<?xml version="1.0" standalone="no"?>
<!DOCTYPE svg PUBLIC "-//W3C//DTD SVG 20010904//EN"
 "http://www.w3.org/TR/2001/REC-SVG-20010904/DTD/svg10.dtd">
<svg version="1.0" xmlns="http://www.w3.org/2000/svg"
 width="260.000000pt" height="260.000000pt" viewBox="0 0 260.000000 260.000000"
 preserveAspectRatio="xMidYMid meet">
<metadata>
Created by potrace 1.11, written by Peter Selinger 2001-2013
</metadata>
<g transform="translate(0.000000,260.000000) scale(0.100000,-0.100000)"
fill="#000000" stroke="none">
<path d="M905 2350 c-17 -33 -27 -39 -20 -12 3 9 -1 4 -9 -13 -8 -16 -12 -33
-10 -37 3 -4 -1 -5 -9 -2 -8 3 -18 1 -22 -5 -3 -6 -1 -11 4 -11 6 0 11 -5 11
-11 0 -5 -5 -7 -12 -3 -8 5 -9 2 -5 -9 4 -10 2 -17 -5 -17 -6 0 -5 -6 3 -17
10 -11 10 -14 2 -9 -8 4 -13 1 -13 -9 0 -9 4 -14 9 -10 6 3 7 -6 2 -23 -5 -17
-5 -36 1 -47 7 -12 7 -16 0 -11 -6 3 -13 2 -17 -4 -6 -9 7 -14 28 -11 12 2 8
-6 -10 -20 -15 -12 -16 -12 -8 1 4 8 4 12 0 7 -12 -10 -14 -47 -3 -47 4 0 8 5
8 12 0 6 3 8 7 5 3 -4 -3 -18 -15 -30 -12 -13 -21 -25 -20 -28 2 -2 -5 4 -15
14 -20 19 -37 22 -37 7 0 -5 5 -9 11 -7 6 1 14 -5 16 -13 3 -9 1 -11 -4 -4 -4
6 -20 10 -35 9 -16 -1 -28 3 -28 9 0 6 -5 4 -10 -4 -8 -13 -10 -12 -10 3 0 10
-4 15 -10 12 -5 -3 -10 -1 -10 6 0 8 -4 8 -15 -1 -13 -11 -14 -10 -9 5 6 14 4
16 -7 10 -11 -7 -11 -5 1 10 8 10 10 16 3 12 -6 -4 -14 -3 -18 3 -4 7 -12 7
-25 0 -13 -7 -21 -7 -25 0 -5 8 -12 7 -23 -2 -12 -10 -14 -10 -8 0 9 15 1 15
-26 1 -16 -9 -19 -8 -13 2 6 8 4 11 -7 6 -9 -3 -21 0 -27 6 -9 9 -11 8 -6 -3
4 -11 -1 -16 -15 -16 -14 0 -19 5 -15 15 4 10 -1 9 -16 -5 -12 -10 -19 -13
-15 -6 9 15 1 15 -25 2 -14 -8 -19 -7 -19 1 0 8 -5 7 -17 -2 -11 -10 -14 -10
-9 -2 5 10 1 11 -17 4 -14 -6 -27 -8 -29 -5 -3 2 -5 -3 -5 -11 0 -12 4 -12 16
-3 12 9 12 7 -1 -7 -11 -12 -33 -19 -63 -20 -25 -1 -49 -6 -53 -10 -4 -5 1 -5
10 -2 10 3 20 2 22 -2 8 -12 -26 -7 -53 8 -14 8 -21 8 -17 2 8 -12 -4 -19 -41
-24 -12 -2 -26 -7 -30 -12 -5 -4 -2 -5 6 0 10 6 12 4 7 -4 -5 -7 -15 -10 -23
-6 -13 4 -14 3 -3 -10 11 -13 10 -14 -3 -9 -24 9 -41 -4 -27 -21 8 -10 8 -15
-1 -21 -8 -4 -9 -3 -5 4 4 8 2 10 -8 6 -13 -5 -15 -103 -16 -791 0 -453 3
-782 8 -779 5 3 8 -6 6 -19 -1 -15 2 -23 8 -19 6 4 8 -2 3 -17 -4 -17 -3 -20
3 -10 8 11 11 9 17 -8 3 -11 11 -21 17 -21 6 0 5 7 -3 17 -11 13 -7 12 16 -3
17 -12 37 -19 45 -17 13 4 13 3 0 -6 -10 -7 -19 -6 -29 2 -11 9 -13 9 -8 0 4
-6 1 -14 -5 -16 -7 -3 535 -6 1204 -6 909 -1 1219 2 1224 11 4 6 3 9 -2 6 -5
-3 -14 0 -21 7 -10 10 -5 12 23 10 29 -3 33 -1 24 10 -10 12 -8 13 9 10 11 -2
23 0 26 6 4 5 1 9 -4 9 -6 0 -11 5 -11 11 0 6 6 9 13 6 8 -3 20 -1 28 5 11 8
11 9 -3 5 -17 -6 -19 16 -3 30 4 4 5 2 1 -4 -4 -7 -2 -13 3 -13 8 0 11 236 11
776 0 617 -3 774 -12 768 -9 -6 -9 -3 0 9 12 14 11 16 -7 12 -12 -2 -19 0 -16
6 4 5 0 9 -7 9 -9 0 -9 3 2 10 11 7 11 10 2 10 -7 0 -10 5 -6 12 4 7 3 8 -4 4
-6 -4 -22 4 -34 16 -13 13 -30 23 -38 23 -8 0 -15 5 -15 12 0 6 -4 15 -8 20
-5 4 -7 2 -5 -6 2 -7 -3 -16 -10 -18 -8 -3 -10 2 -6 14 5 14 4 15 -4 3 -12
-15 -62 -23 -62 -8 0 4 -9 8 -21 8 -13 0 -18 -4 -13 -12 4 -7 3 -8 -4 -4 -6 4
-8 14 -5 22 4 11 0 15 -12 12 -10 -2 -20 4 -22 12 -4 13 -3 13 7 0 10 -13 11
-13 7 0 -2 8 -12 14 -22 12 -9 -2 -15 0 -12 5 3 5 -3 9 -13 9 -10 0 -16 -4
-14 -8 3 -4 1 -8 -5 -8 -5 0 -11 5 -13 11 -3 9 -10 9 -27 -1 -15 -7 -21 -8
-17 -1 8 12 -6 15 -18 4 -11 -11 -37 -12 -30 -1 5 7 -2 9 -20 4 -18 -4 -34 -2
-44 6 -10 8 -13 9 -9 1 4 -6 3 -14 -3 -18 -5 -3 -10 -1 -10 5 0 6 -5 8 -12 3
-18 -11 -52 -10 -60 2 -5 6 -8 5 -8 -2 0 -7 -7 -13 -15 -13 -8 0 -15 -5 -15
-11 0 -5 5 -7 12 -3 6 4 8 3 5 -3 -4 -6 -18 -9 -32 -8 -14 2 -23 -1 -19 -6 3
-5 10 -6 16 -3 7 4 8 2 4 -5 -4 -6 -12 -8 -18 -5 -8 5 -9 1 -5 -12 7 -18 6
-18 -7 -1 -15 20 -27 22 -22 5 1 -7 1 -10 -1 -5 -3 4 -10 4 -15 1 -7 -4 -8 -2
-4 4 4 7 -7 11 -34 10 -22 0 -40 -5 -40 -10 0 -5 -7 -2 -16 7 -9 9 -13 19 -10
23 4 3 11 0 15 -7 6 -9 11 -10 15 -2 4 6 2 11 -4 11 -6 0 -8 5 -4 12 4 6 3 8
-4 4 -6 -3 -13 -2 -17 4 -3 5 2 10 11 10 16 0 16 1 -2 15 -17 13 -17 14 -1 15
9 0 17 4 17 10 0 5 -8 6 -17 3 -15 -6 -16 -4 -5 9 13 16 12 44 -1 66 -5 6 -4
12 0 12 5 0 15 -6 22 -12 11 -11 11 -9 0 9 -7 12 -16 20 -19 18 -4 -2 -7 2 -7
10 0 8 4 12 8 9 4 -2 6 5 4 17 -3 13 -10 26 -16 30 -6 4 -9 11 -5 17 3 6 -3
13 -14 17 -11 4 -18 11 -15 16 4 5 1 9 -6 9 -6 0 -18 8 -26 18 -8 9 -12 12 -9
5 4 -6 2 -14 -3 -17 -5 -4 -8 5 -7 18 l3 25 -373 0 -374 1 -15 -30z m16 -7
c-12 -20 -14 -14 -5 12 4 9 9 14 11 11 3 -2 0 -13 -6 -23z m165 -162 c11 9 14
9 14 -1 0 -10 3 -10 15 0 12 10 15 10 15 -1 0 -12 2 -12 9 0 7 11 9 11 14 0 5
-12 8 -11 17 1 9 12 12 13 17 1 5 -11 7 -11 14 0 6 10 9 11 9 2 0 -7 5 -13 11
-13 5 0 8 4 5 8 -2 4 4 8 14 8 10 0 17 -3 15 -6 -2 -4 2 -7 10 -7 8 0 12 4 9
9 -3 4 0 8 5 8 6 0 11 -6 11 -12 0 -9 4 -8 10 2 9 13 10 13 10 0 0 -13 1 -13
10 0 9 13 10 13 10 0 0 -13 1 -13 10 0 9 13 10 13 10 0 0 -13 1 -13 10 0 9 13
10 13 10 0 0 -12 2 -13 9 -1 7 11 9 11 14 0 5 -12 8 -11 17 1 9 12 12 13 17 1
5 -11 7 -11 14 0 6 10 9 11 9 2 0 -7 5 -13 11 -13 5 0 8 4 5 8 -2 4 4 8 14 8
10 0 17 -3 14 -7 -5 -9 17 -6 34 4 6 5 12 4 12 -2 0 -6 8 -7 18 -4 13 5 15 4
6 -8 -5 -8 -9 -30 -8 -49 0 -19 -3 -40 -8 -47 -7 -8 -3 -10 14 -7 13 2 17 2
10 -2 -6 -3 -9 -10 -6 -16 3 -5 -3 -18 -14 -29 -19 -17 -22 -18 -30 -2 -9 14
-10 14 -16 -5 -6 -19 -9 -20 -22 -8 -10 10 -22 12 -42 7 -15 -4 -33 -6 -40 -4
-6 3 -10 -1 -9 -9 2 -7 2 -10 0 -5 -3 4 -10 4 -15 1 -7 -4 -8 -2 -4 4 5 8 0
12 -13 12 -12 0 -21 -5 -21 -11 0 -6 -7 -4 -15 4 -16 17 -59 11 -48 -6 3 -5 1
-7 -5 -3 -5 3 -12 3 -15 -1 -2 -5 -2 -3 -1 4 2 7 -2 15 -8 19 -6 4 -8 3 -4 -4
3 -6 2 -13 -4 -17 -5 -3 -10 -1 -10 5 0 6 -4 8 -10 5 -5 -3 -10 -2 -10 4 0 11
-58 7 -69 -5 -3 -4 2 -4 11 -1 10 3 20 3 22 -2 7 -11 -27 -10 -41 2 -7 5 -13
6 -13 1 0 -4 -7 1 -15 12 -17 23 -20 11 -4 -19 l12 -22 -23 20 c-21 18 -23 18
-17 2 5 -13 3 -16 -6 -10 -17 11 -30 11 -46 -1 -12 -9 -13 -8 -6 4 6 8 10 18
10 22 0 3 4 10 9 15 5 5 6 2 1 -6 -6 -10 -4 -12 5 -6 9 5 11 4 6 -3 -4 -7 -5
-12 -2 -12 16 0 13 20 -6 36 -12 11 -18 13 -13 5 6 -10 4 -12 -5 -6 -10 6 -9
11 5 22 11 7 13 13 7 13 -7 0 -12 5 -12 11 0 5 4 7 10 4 5 -3 3 10 -5 29 -10
23 -11 37 -5 41 6 4 8 11 5 16 -3 5 0 6 8 3 8 -3 19 0 23 7 6 10 9 10 12 1 3
-10 7 -10 18 -1z m-85 -184 c-10 -9 -11 -8 -5 6 3 10 9 15 12 12 3 -3 0 -11
-7 -18z m568 -3 c-14 -13 -16 -13 -16 0 0 8 4 13 9 10 4 -3 8 0 8 7 0 7 3 9 7
5 4 -3 0 -13 -8 -22z m-1324 6 c3 -5 1 -10 -4 -10 -6 0 -11 5 -11 10 0 6 2 10
4 10 3 0 8 -4 11 -10z m1065 0 c0 -5 -5 -10 -11 -10 -5 0 -7 5 -4 10 3 6 8 10
11 10 2 0 4 -4 4 -10z m160 0 c0 -5 -5 -10 -11 -10 -5 0 -7 5 -4 10 3 6 8 10
11 10 2 0 4 -4 4 -10z m47 -12 c-3 -8 -6 -5 -6 6 -1 11 2 17 5 13 3 -3 4 -12
1 -19z m133 18 c0 -3 -4 -8 -10 -11 -5 -3 -10 -1 -10 4 0 6 5 11 10 11 6 0 10
-2 10 -4z m55 -5 c3 -5 2 -12 -3 -15 -5 -3 -9 1 -9 9 0 17 3 19 12 6z"/>
<path d="M710 2026 c0 -2 8 -10 18 -17 15 -13 16 -12 3 4 -13 16 -21 21 -21
13z"/>
<path d="M2384 2012 c4 -3 14 -7 22 -8 9 -1 13 0 10 4 -4 3 -14 7 -22 8 -9 1
-13 0 -10 -4z"/>
</g>
</svg>
