<svg width="512" height="159" viewBox="0 0 512 159" fill="none" xmlns="http://www.w3.org/2000/svg">
<path fill-rule="evenodd" clip-rule="evenodd" d="M79.4501 0.659668C68.8129 0.659668 60.1895 8.09298 60.1895 18.7507V25.9874H48.1516V18.7507C48.1516 17.4186 47.0736 16.3385 45.744 16.3385H31.2985C29.969 16.3385 28.891 17.4186 28.891 18.7507V25.9874H24.0758C10.7789 25.9874 0 36.787 0 50.1096V134.537C0 147.86 10.7789 158.66 24.0758 158.66H163.715C177.012 158.66 187.791 147.86 187.791 134.537V50.1096C187.791 36.787 177.012 25.9874 163.715 25.9874H158.9V18.7507C158.9 17.4186 157.822 16.3385 156.493 16.3385H142.047C140.718 16.3385 139.64 17.4186 139.64 18.7507V25.9874H127.602V18.7507C127.602 8.09298 118.978 0.659668 108.341 0.659668H79.4501ZM117.971 25.9874V18.7507C117.971 14.7543 114.737 11.514 110.749 11.514H77.0426C73.0538 11.514 69.8198 14.7543 69.8198 18.7507V25.9874H117.971ZM137.232 91.1174C137.232 115.098 117.83 134.537 93.8956 134.537C69.9615 134.537 50.5592 115.098 50.5592 91.1174C50.5592 67.1371 69.9615 47.6974 93.8956 47.6974C117.83 47.6974 137.232 67.1371 137.232 91.1174Z" fill="#C02026"/>
<path fill-rule="evenodd" clip-rule="evenodd" d="M86.6728 57.3464C84.0137 57.3464 81.8577 59.5066 81.8577 62.1709V79.0564H65.0046C62.3455 79.0564 60.1895 81.2166 60.1895 83.8809V98.3542C60.1895 101.019 62.3455 103.179 65.0046 103.179H81.8577V120.064C81.8577 122.729 84.0137 124.889 86.6728 124.889H101.118C103.777 124.889 105.933 122.729 105.933 120.064V103.179H122.787C125.446 103.179 127.602 101.019 127.602 98.3542V83.8809C127.602 81.2166 125.446 79.0564 122.787 79.0564H105.933V62.1709C105.933 59.5066 103.777 57.3464 101.118 57.3464H86.6728Z" fill="#C02026"/>
<path d="M233.546 62.6821C231.582 63.4068 229.718 63.9706 227.953 64.3732C226.229 64.7356 224.566 64.9168 222.962 64.9168C217.068 64.9168 212.558 63.5075 209.431 60.6889C206.344 57.8704 204.8 53.7633 204.8 48.3677V35.3821H216.527V47.0389C216.527 49.777 217.189 51.8305 218.512 53.1996C219.875 54.5283 221.859 55.1927 224.465 55.1927C226.149 55.1927 227.733 55.0316 229.216 54.7095C230.74 54.3471 232.083 53.8035 233.246 53.0788L233.546 62.6821ZM231.923 77.6608V35.3821H243.65V77.6608H231.923Z" fill="#07385D"/>
<path d="M271.304 77.6608V71.5606L270.522 70.0507V58.8166C270.522 57.0046 269.96 55.6155 268.838 54.6491C267.755 53.6425 266.011 53.1392 263.606 53.1392C262.042 53.1392 260.459 53.4009 258.855 53.9243C257.251 54.4075 255.888 55.092 254.765 55.9779L250.917 48.1865C252.761 46.9785 254.966 46.0524 257.532 45.4082C260.138 44.7237 262.724 44.3814 265.29 44.3814C270.582 44.3814 274.671 45.6095 277.558 48.0657C280.485 50.4816 281.948 54.2867 281.948 59.481V77.6608H271.304ZM261.681 78.2044C259.075 78.2044 256.87 77.7615 255.066 76.8756C253.262 75.9898 251.879 74.7818 250.917 73.2518C249.994 71.7217 249.533 70.0104 249.533 68.1179C249.533 66.1046 250.034 64.3732 251.037 62.9237C252.079 61.4338 253.663 60.3064 255.788 59.5414C257.913 58.7361 260.659 58.3334 264.027 58.3334H271.725V64.3128H265.59C263.746 64.3128 262.443 64.6148 261.681 65.2188C260.96 65.8228 260.599 66.6281 260.599 67.6347C260.599 68.6414 260.98 69.4467 261.741 70.0507C262.503 70.6546 263.546 70.9566 264.869 70.9566C266.112 70.9566 267.234 70.6546 268.236 70.0507C269.279 69.4064 270.041 68.44 270.522 67.1515L272.085 71.3794C271.484 73.6343 270.301 75.3456 268.537 76.5133C266.813 77.6407 264.528 78.2044 261.681 78.2044Z" fill="#07385D"/>
<path d="M305.18 78.2044C301.572 78.2044 298.344 77.4796 295.498 76.0301C292.691 74.5805 290.486 72.5874 288.882 70.0507C287.279 67.4737 286.477 64.5343 286.477 61.2325C286.477 57.9307 287.279 55.0115 288.882 52.4748C290.486 49.9381 292.691 47.9651 295.498 46.5558C298.344 45.1062 301.572 44.3814 305.18 44.3814C308.868 44.3814 312.056 45.1666 314.742 46.737C317.428 48.3073 319.333 50.5219 320.455 53.3808L311.615 57.9106C310.853 56.3805 309.911 55.2732 308.788 54.5887C307.666 53.8639 306.443 53.5016 305.12 53.5016C303.797 53.5016 302.594 53.8035 301.511 54.4075C300.429 55.0115 299.567 55.8973 298.926 57.065C298.324 58.1925 298.023 59.5816 298.023 61.2325C298.023 62.9237 298.324 64.3531 298.926 65.5208C299.567 66.6885 300.429 67.5743 301.511 68.1783C302.594 68.7823 303.797 69.0843 305.12 69.0843C306.443 69.0843 307.666 68.742 308.788 68.0575C309.911 67.3327 310.853 66.2053 311.615 64.6752L320.455 69.2051C319.333 72.0639 317.428 74.2785 314.742 75.8489C312.056 77.4192 308.868 78.2044 305.18 78.2044Z" fill="#07385D"/>
<path d="M332.629 77.6608V51.5084L335.094 54.0451H322.104V44.925H354.459V54.0451H341.469L343.995 51.5084V77.6608H332.629Z" fill="#07385D"/>
<path d="M358.886 77.6608V44.925H370.252V57.065H381.979V44.925H393.406V77.6608H381.979V66.1852H370.252V77.6608H358.886Z" fill="#07385D"/>
<path d="M435.452 77.6608V44.925H446.818V77.6608H435.452ZM419.755 55.0719C424.085 55.1122 427.313 56.0785 429.438 57.971C431.603 59.8635 432.685 62.5613 432.685 66.0644C432.685 69.6883 431.442 72.5471 428.957 74.6409C426.471 76.6945 422.923 77.7011 418.312 77.6608H401.112V44.925H412.479V55.0719H419.755ZM417.169 69.8091C418.533 69.8091 419.595 69.4869 420.357 68.8427C421.118 68.1984 421.499 67.2119 421.499 65.8832C421.499 64.5142 421.118 63.5478 420.357 62.9841C419.635 62.4203 418.573 62.1184 417.169 62.0781H412.479V69.7487L417.169 69.8091Z" fill="#07385D"/>
<path d="M454.556 77.6608V44.925H465.922V62.0781L479.574 44.925H490.098V77.6608H478.671V60.4473L465.14 77.6608H454.556ZM471.515 41.7843C467.666 41.7843 464.82 40.979 462.975 39.3684C461.171 37.7175 460.249 35.2009 460.209 31.8186H467.606C467.646 33.1474 467.947 34.1943 468.508 34.9593C469.109 35.6841 470.092 36.0465 471.455 36.0465C472.818 36.0465 473.82 35.6841 474.462 34.9593C475.103 34.1943 475.424 33.1474 475.424 31.8186H482.941C482.941 35.2009 481.999 37.7175 480.115 39.3684C478.271 40.979 475.404 41.7843 471.515 41.7843Z" fill="#07385D"/>
<path d="M205.544 150.139V117.403H217.572L228.938 138.784H224.187L236.636 117.403H247.401L247.461 150.139H237.177V128.758L238.921 129.966L228.818 147.24H223.947L213.843 129.12L215.828 128.576V150.139H205.544Z" fill="#07385D"/>
<path d="M271.949 150.682C268.1 150.682 264.732 149.957 261.846 148.508C258.999 147.018 256.774 145.005 255.17 142.468C253.607 139.891 252.825 136.972 252.825 133.71C252.825 130.449 253.587 127.55 255.11 125.013C256.674 122.436 258.819 120.443 261.545 119.034C264.271 117.584 267.338 116.859 270.746 116.859C273.954 116.859 276.88 117.524 279.527 118.852C282.173 120.141 284.278 122.053 285.841 124.59C287.405 127.127 288.187 130.207 288.187 133.831C288.187 134.234 288.166 134.697 288.126 135.22C288.086 135.744 288.046 136.227 288.006 136.67H262.207V130.63H281.932L277.602 132.321C277.642 130.831 277.362 129.543 276.76 128.456C276.199 127.369 275.397 126.523 274.355 125.919C273.352 125.315 272.17 125.013 270.806 125.013C269.443 125.013 268.241 125.315 267.198 125.919C266.196 126.523 265.414 127.389 264.853 128.516C264.291 129.603 264.011 130.892 264.011 132.382V134.133C264.011 135.744 264.332 137.133 264.973 138.301C265.655 139.468 266.617 140.374 267.86 141.019C269.103 141.622 270.586 141.924 272.31 141.924C273.914 141.924 275.277 141.703 276.399 141.26C277.562 140.777 278.705 140.052 279.827 139.086L285.841 145.367C284.278 147.099 282.353 148.427 280.068 149.353C277.783 150.239 275.076 150.682 271.949 150.682Z" fill="#07385D"/>
<path d="M316.72 145.126V126.523H308L307.88 129.664C307.799 131.234 307.699 132.724 307.579 134.133C307.499 135.502 307.298 136.75 306.978 137.878C306.657 139.005 306.196 139.972 305.594 140.777C304.993 141.542 304.191 142.106 303.189 142.468L292.003 140.958C293.085 140.958 293.968 140.656 294.649 140.052C295.371 139.408 295.932 138.522 296.333 137.395C296.734 136.267 297.015 134.979 297.175 133.529C297.375 132.039 297.516 130.469 297.596 128.818L298.017 117.403H328.146V145.126H316.72ZM290.92 156.903V140.958H332.657V156.903H322.072V150.139H301.565V156.903H290.92Z" fill="#07385D"/>
<path d="M337.567 150.139V117.403H348.934V134.556L362.585 117.403H373.109V150.139H361.683V132.925L348.152 150.139H337.567Z" fill="#07385D"/>
<path d="M403.645 150.139L393.722 134.858L402.923 129.422L417.116 150.139H403.645ZM380.792 150.139V117.403H392.218V150.139H380.792ZM388.851 138.482V129.482H400.638V138.482H388.851ZM404.066 135.039L393.361 133.952L404.306 117.403H416.394L404.066 135.039Z" fill="#07385D"/>
<path d="M436.361 150.139V142.649L452.117 127.852C453.24 126.805 454.061 125.879 454.583 125.073C455.144 124.268 455.505 123.543 455.665 122.899C455.866 122.215 455.966 121.59 455.966 121.027C455.966 119.658 455.505 118.591 454.583 117.826C453.701 117.061 452.358 116.678 450.553 116.678C449.03 116.678 447.607 117.02 446.284 117.705C444.96 118.389 443.878 119.416 443.036 120.785L434.196 115.832C435.759 113.175 438.024 111.041 440.991 109.43C443.958 107.82 447.506 107.014 451.636 107.014C454.883 107.014 457.73 107.538 460.176 108.585C462.621 109.632 464.526 111.121 465.889 113.054C467.292 114.987 467.994 117.262 467.994 119.879C467.994 121.248 467.813 122.617 467.452 123.986C467.092 125.315 466.39 126.744 465.347 128.274C464.345 129.764 462.842 131.435 460.837 133.288L448.328 144.884L446.344 140.656H469.136V150.139H436.361Z" fill="#07385D"/>
<path d="M471.888 142.045V134.254L490.771 107.86H503.1L484.757 134.254L479.104 132.563H512V142.045H471.888ZM494.139 150.139V142.045L494.5 132.563V125.375H505.746V150.139H494.139Z" fill="#07385D"/>
</svg>
