<svg width="124" height="50" viewBox="0 0 124 50" fill="none" xmlns="http://www.w3.org/2000/svg">
<path d="M123.999 27.9193C123.999 28.8385 122.919 28.9994 122 28.9994H75.9999C75.1681 28.9994 75.0199 28.9744 74.913 28.1473L73.1125 15.1954L69.4775 48.5201C69.3903 49.3052 68.7558 49.9327 67.9573 49.9928C67.9104 49.9945 67.8711 49.9999 67.8214 49.9999C67.0786 49.9999 66.4239 49.5105 66.2274 48.7849L60.8098 29.4718L55.4741 39.6329C55.1541 40.2447 54.4844 40.6162 53.8042 40.5129C53.116 40.4307 52.5569 39.9321 52.3865 39.2632L49.9998 28.9994H1.99985C1.08501 28.9994 0 28.1082 0 27.1908C0 26.2687 1.085 25.9993 1.99985 25.9993H50.9998C51.7621 25.9993 52.5171 26.0442 52.6999 26.7872L54.5544 34.2164L59.8041 24.2274C60.1175 23.6185 60.7723 23.2528 61.4449 23.3414C62.1199 23.4138 62.6851 23.8921 62.8768 24.5459L67.1018 39.6101L71.2681 1.47961C71.3564 0.645594 72.0522 0.01225 72.8963 0C73.832 0.07932 74.45 0.610601 74.5664 1.44287L77.9998 25.9993H122C122.916 25.9998 123.999 27.0019 123.999 27.9193H123.999Z" fill="white"/>
</svg>
