<svg width="359" height="236" viewBox="0 0 359 236" fill="none" xmlns="http://www.w3.org/2000/svg">
<path fill-rule="evenodd" clip-rule="evenodd" d="M274.914 0C321.237 0 358.748 37.5283 358.748 83.8719C358.748 83.8719 358.748 84.3757 358.748 85.1313C359.503 96.2134 355.979 155.654 270.886 228.192C270.383 228.696 269.628 229.2 269.124 229.703C260.565 237.259 252.76 241.541 258.047 219.88C263.334 197.212 267.362 180.085 267.865 174.544C268.369 169.003 262.83 166.736 261.32 166.485C221.543 159.936 191.332 125.178 191.332 83.6201C191.081 37.5283 228.592 0 274.914 0ZM359 85.635C359 86.1387 359 86.6425 359 86.8943C359 86.3906 359 85.8869 359 85.635ZM358.748 86.8943C358.748 87.6499 358.748 88.6574 358.496 89.413C358.748 88.6574 358.748 87.9018 358.748 86.8943ZM358.245 93.6948C357.993 94.9541 357.993 96.2135 357.741 97.4728C357.993 96.2135 358.245 94.9541 358.245 93.6948ZM357.238 100.243C357.238 100.747 356.986 100.999 356.986 101.503C357.238 100.999 357.238 100.747 357.238 100.243ZM356.986 101.755C356.734 102.51 356.734 103.266 356.482 104.021C356.734 103.266 356.986 102.51 356.986 101.755ZM356.482 104.273C356.231 105.533 355.979 106.54 355.475 107.799C355.979 106.54 356.231 105.281 356.482 104.273ZM355.475 108.051C355.224 108.807 354.972 109.562 354.72 110.318C354.468 110.822 354.468 111.074 354.217 111.577L355.475 108.051ZM353.461 114.096C352.958 115.355 352.454 116.363 351.951 117.37C352.454 116.363 352.958 115.104 353.461 114.096ZM351.951 117.874C351.447 118.882 350.944 120.141 350.44 121.148C350.944 119.889 351.447 118.882 351.951 117.874ZM348.93 123.667C348.678 123.919 348.678 124.423 348.426 124.674C348.678 124.171 348.93 123.919 348.93 123.667ZM348.426 124.926C348.175 125.43 347.671 125.934 347.419 126.689C347.671 125.934 347.923 125.43 348.426 124.926ZM346.412 127.949C346.161 128.453 345.657 129.208 345.154 129.712C345.657 129.208 346.161 128.704 346.412 127.949ZM344.902 130.216C344.398 130.719 344.147 131.475 343.643 131.979C344.147 131.475 344.65 130.971 344.902 130.216ZM343.643 132.231C343.391 132.482 343.14 132.986 342.888 133.238C343.391 132.734 343.643 132.482 343.643 132.231ZM340.622 136.512C340.118 137.016 339.867 137.52 339.363 138.023C339.615 137.52 340.118 137.016 340.622 136.512ZM338.86 138.527C338.356 139.031 337.853 139.535 337.601 140.038C338.104 139.535 338.356 139.031 338.86 138.527ZM333.573 144.068C333.069 144.572 332.566 144.824 332.314 145.328C332.818 144.824 333.321 144.32 333.573 144.068ZM328.79 148.35C328.286 148.602 328.034 149.106 327.531 149.358C328.034 149.106 328.538 148.602 328.79 148.35ZM326.02 150.869C325.517 151.121 325.013 151.624 324.762 151.876C325.013 151.372 325.517 151.121 326.02 150.869ZM322.999 152.884C322.496 153.136 321.992 153.639 321.489 153.891C321.741 153.639 322.496 153.387 322.999 152.884ZM355.475 108.051C355.224 108.807 354.972 109.562 354.72 110.318L355.475 108.051ZM330.048 147.343C329.797 147.594 329.545 147.846 329.293 148.098L330.048 147.343ZM320.734 154.395C320.482 154.647 320.23 154.647 319.978 154.899L320.734 154.395Z" fill="#B8DDFF"/>
<path fill-rule="evenodd" clip-rule="evenodd" d="M83.8338 0C130.156 0 167.668 37.5283 167.668 83.8719C167.668 83.8719 167.668 84.3757 167.668 85.1313C168.423 96.2134 164.898 155.654 79.8057 228.192C79.3022 228.696 78.547 229.2 78.0435 229.703C69.4839 237.259 61.6795 241.541 66.9663 219.88C72.2532 197.212 76.2812 180.085 76.7847 174.544C77.2882 169.003 71.7496 166.736 70.2391 166.485C30.2104 160.188 0 125.682 0 83.8719C0 37.5283 37.5112 0 83.8338 0ZM167.919 85.635C167.919 86.1387 167.919 86.6425 167.919 86.8943C167.919 86.3906 167.919 85.8869 167.919 85.635ZM167.919 86.8943C167.919 87.6499 167.919 88.6574 167.668 89.413C167.668 88.6574 167.919 87.9018 167.919 86.8943ZM167.416 93.6948C167.164 94.9541 167.164 96.2135 166.912 97.4728C166.912 96.2135 167.164 94.9541 167.416 93.6948ZM166.409 100.243C166.409 100.747 166.157 100.999 166.157 101.503C166.157 100.999 166.157 100.747 166.409 100.243ZM165.905 101.755C165.654 102.51 165.654 103.266 165.402 104.021C165.654 103.266 165.905 102.51 165.905 101.755ZM165.402 104.273C165.15 105.533 164.898 106.54 164.395 107.799C164.898 106.54 165.15 105.281 165.402 104.273ZM164.395 108.051C164.143 108.807 163.891 109.562 163.64 110.318C163.388 110.822 163.388 111.074 163.136 111.577L164.395 108.051ZM162.381 114.096C161.877 115.355 161.374 116.363 160.87 117.37C161.374 116.363 161.877 115.104 162.381 114.096ZM160.87 117.874C160.367 118.882 159.863 120.141 159.36 121.148C159.863 119.889 160.367 118.882 160.87 117.874ZM158.101 123.667C157.849 123.919 157.849 124.423 157.597 124.674C157.597 124.171 157.849 123.919 158.101 123.667ZM155.332 127.949C155.08 128.453 154.576 129.208 154.073 129.712C154.576 129.208 155.08 128.704 155.332 127.949ZM154.073 130.216C153.569 130.719 153.318 131.475 152.814 131.979C153.066 131.475 153.569 130.971 154.073 130.216ZM152.814 132.231C152.562 132.482 152.311 132.986 152.059 133.238C152.311 132.734 152.562 132.482 152.814 132.231ZM147.779 138.527C147.276 139.031 146.772 139.535 146.52 140.038C147.024 139.535 147.527 139.031 147.779 138.527ZM142.744 144.068C142.241 144.572 141.737 144.824 141.485 145.328C141.737 144.824 142.241 144.32 142.744 144.068ZM134.94 150.869C134.436 151.121 133.933 151.624 133.681 151.876C133.933 151.372 134.436 151.121 134.94 150.869ZM131.919 152.884C131.415 153.136 130.912 153.639 130.408 153.891C130.912 153.639 131.415 153.387 131.919 152.884ZM164.395 108.051C164.143 108.807 163.891 109.562 163.64 110.318L164.395 108.051ZM139.219 147.343C138.968 147.594 138.716 147.846 138.464 148.098L139.219 147.343ZM129.653 154.395C129.401 154.647 129.149 154.647 128.898 154.899L129.653 154.395Z" fill="#B8DDFF"/>
</svg>
