<svg width="26" height="26" viewBox="0 0 26 26" fill="none" xmlns="http://www.w3.org/2000/svg">
<g clip-path="url(#clip0_234_5540)">
<path d="M18.4079 8.32805C18.4079 11.2706 15.9271 13.6561 12.8668 13.6561C9.80645 13.6561 7.32559 11.2706 7.32559 8.32805C7.32559 5.38545 9.80645 3 12.8668 3C15.9271 3 18.4079 5.38545 18.4079 8.32805Z" fill="#D62C2C"/>
<path d="M16.2304 15.3345C18.8533 15.3345 20.9798 17.4571 20.9798 20.0757V28.6266C20.9798 31.4687 19.4187 34.2199 18.0555 34.7996C17.8216 34.8977 17.6611 35.1096 17.6416 35.3548L16.6983 47.3346C16.5604 49.199 14.9228 49.4817 12.9747 49.4817C11.0207 49.4817 9.3591 49.1904 9.22863 47.3202L8.34085 35.3533C8.32285 35.1082 8.16239 34.8962 7.92995 34.7953C6.56977 34.2098 5.01465 31.4615 5.01465 28.6266V20.0757C5.01465 17.4571 7.14114 15.3345 9.7625 15.3345H16.2304Z" fill="#D62C2C"/>
</g>
<defs>
<clipPath id="clip0_234_5540">
<rect width="16" height="20" fill="white" transform="translate(5 3)"/>
</clipPath>
</defs>
</svg>
