<svg width="19" height="18" viewBox="0 0 19 18" fill="none" xmlns="http://www.w3.org/2000/svg">
<path d="M5.84966 18C4.55439 18 3.31931 17.5225 2.33462 16.6322C1.27289 15.6772 0.627663 14.3491 0.516915 12.8992C0.406168 11.4493 0.841936 10.0342 1.74477 8.91758L6.99084 2.42161L8.30777 3.55815L3.0617 10.0516C1.80255 11.611 1.98312 13.9636 3.46377 15.2991C4.2077 15.9706 5.1611 16.2964 6.14579 16.2168C7.13048 16.1373 8.02127 15.6622 8.65687 14.8788L16.2768 5.47063C16.662 4.99313 16.8378 4.39129 16.7727 3.77452C16.7053 3.15775 16.4068 2.61062 15.9277 2.2326C15.0056 1.5064 13.6959 1.65313 12.9447 2.56336L5.58242 11.4966C5.27907 11.8646 5.30796 12.4143 5.64742 12.7475C5.82799 12.9241 6.06152 13.0111 6.3095 12.9937C6.55748 12.9763 6.77897 12.8594 6.93547 12.6605L11.5893 6.77132L12.9182 7.89294L8.26685 13.7821C7.81182 14.3566 7.14011 14.7147 6.42266 14.762C5.7052 14.8092 4.99497 14.5456 4.47253 14.0358C3.46617 13.0559 3.38191 11.4344 4.27752 10.3476L11.635 1.41687C12.9784 -0.212098 15.3186 -0.47323 16.9654 0.824969C17.82 1.49894 18.3569 2.47632 18.4749 3.57805C18.5953 4.68226 18.2799 5.75664 17.5913 6.60967L9.9714 16.0154C9.03967 17.1669 7.72755 17.8657 6.2782 17.9826C6.13616 17.995 5.9917 18 5.84966 18Z" fill="#D62C2C"/>
</svg>
