<svg width="26" height="26" viewBox="0 0 26 26" fill="none" xmlns="http://www.w3.org/2000/svg">
<path fill-rule="evenodd" clip-rule="evenodd" d="M15.1543 16.7392L15.6717 16.0249C15.9941 15.579 16.5328 15.3917 17.0637 15.5423L20.0618 16.3878C20.6565 16.5558 21.0426 17.106 20.9962 17.7218C20.9596 18.2218 20.9943 18.7295 20.6603 19.1407C19.5695 20.4862 18.4286 21.3936 15.9903 20.8299C10.8569 18.6735 7.32583 15.1407 5.16938 10.0095C4.60758 7.5713 5.51302 6.42846 6.85863 5.33966C7.27178 5.00762 7.77759 5.04044 8.27761 5.00376C8.89346 4.95743 9.44367 5.34352 9.61163 5.93811L10.4572 8.93616C10.6059 9.46511 10.4186 10.0037 9.97458 10.328L9.26027 10.8454C9.12513 10.9439 9.08652 11.1273 9.17146 11.272C10.3549 13.2585 12.7411 15.6427 14.7277 16.826C14.8725 16.9129 15.0559 16.8743 15.1543 16.7392Z" fill="#D62C2C"/>
</svg>
