<svg width="37" height="46" viewBox="0 0 37 46" fill="none" xmlns="http://www.w3.org/2000/svg">
<path d="M4 10.1H24.8C25.1 10.1 25.4 9.8 25.4 9.5C25.4 9.2 25.1 8.89999 24.8 8.89999H4C3.7 8.89999 3.4 9.2 3.4 9.5C3.3 9.8 3.6 10.1 4 10.1Z" fill="#29A6DF"/>
<path d="M3.99991 14H24.7999C25.0999 14 25.3999 13.7 25.3999 13.4C25.3999 13.1 25.0999 12.8 24.7999 12.8H3.99991C3.69991 12.8 3.3999 13.1 3.3999 13.4C3.3999 13.7 3.59991 14 3.99991 14Z" fill="#29A6DF"/>
<path d="M4 18H24.8C25.1 18 25.4 17.7 25.4 17.4C25.4 17.1 25.1 16.8 24.8 16.8H4C3.7 16.8 3.4 17.1 3.4 17.4C3.3 17.7 3.6 18 4 18Z" fill="#29A6DF"/>
<path d="M4 21.9H24.8C25.1 21.9 25.4 21.6 25.4 21.3C25.4 21 25.1 20.7 24.8 20.7H4C3.7 20.7 3.4 21 3.4 21.3C3.3 21.6 3.6 21.9 4 21.9Z" fill="#29A6DF"/>
<path d="M4 25.9H17C17.3 25.9 17.6 25.6 17.6 25.3C17.6 25 17.3 24.7 17 24.7H4C3.7 24.7 3.4 25 3.4 25.3C3.3 25.6 3.6 25.9 4 25.9Z" fill="#29A6DF"/>
<path d="M13.8999 28.6H3.99991C3.69991 28.6 3.3999 28.9 3.3999 29.2C3.3999 29.5 3.69991 29.8 3.99991 29.8H13.8999C14.1999 29.8 14.4999 29.5 14.4999 29.2C14.4999 28.9 14.1999 28.6 13.8999 28.6Z" fill="#29A6DF"/>
<path d="M28.0999 24.7V3C28.0999 1.6 26.9 0.5 25.5 0.5H3.19998C1.79998 0.5 0.599976 1.70001 0.599976 3.10001V32.9C0.599976 35 2.29997 36.8 4.49997 36.8H16.4C17.3 41.7 21.4999 45.4 26.5999 45.4C32.2999 45.4 37 40.7 37 35C37 29.8 33.0999 25.4 28.0999 24.7ZM3.19998 1.70001H25.5C26.2 1.70001 26.8 2.3 26.8 3C26.8 3.7 26.2 4.29999 25.5 4.29999H3.19998C2.49998 4.29999 1.89996 3.7 1.89996 3C1.89996 2.3 2.39998 1.70001 3.19998 1.70001ZM4.49997 35.5C3.09997 35.5 1.89996 34.3 1.89996 32.9V5.20001C2.29996 5.40001 2.69998 5.60001 3.19998 5.60001H25.5C26 5.60001 26.4 5.50001 26.8 5.20001V24.6C26.7 24.6 26.6999 24.6 26.5999 24.6C20.8999 24.6 16.2 29.3 16.2 35C16.2 35.2 16.2 35.4 16.2 35.5H4.49997ZM26.5999 44.1C21.5999 44.1 17.5 40 17.5 35C17.5 30 21.5999 25.9 26.5999 25.9C31.5999 25.9 35.7 30 35.7 35C35.7 40 31.5999 44.1 26.5999 44.1Z" fill="#29A6DF"/>
<path d="M7.79996 3.70001C8.19996 3.70001 8.49997 3.4 8.49997 3C8.49997 2.6 8.19996 2.29999 7.79996 2.29999C7.39996 2.29999 7.09998 2.6 7.09998 3C7.09998 3.4 7.39996 3.70001 7.79996 3.70001Z" fill="#29A6DF"/>
<path d="M20.9 3.70001C21.3 3.70001 21.5999 3.4 21.5999 3C21.5999 2.6 21.3 2.29999 20.9 2.29999C20.5 2.29999 20.2 2.6 20.2 3C20.2 3.4 20.5 3.70001 20.9 3.70001Z" fill="#29A6DF"/>
<path d="M14.3 3.70001C14.7 3.70001 15 3.4 15 3C15 2.6 14.7 2.29999 14.3 2.29999C13.9 2.29999 13.6 2.6 13.6 3C13.6 3.4 14 3.70001 14.3 3.70001Z" fill="#29A6DF"/>
<path d="M31.9 32.6H28.9999V29.7C28.9999 29.4 28.7 29.1 28.4 29.1H24.9C24.6 29.1 24.2999 29.4 24.2999 29.7V32.6H21.4C21.1 32.6 20.7999 32.9 20.7999 33.2V36.7C20.7999 37 21.1 37.3 21.4 37.3H24.2999V40.2C24.2999 40.5 24.6 40.8 24.9 40.8H28.4C28.7 40.8 28.9999 40.5 28.9999 40.2V37.3H31.9C32.2 37.3 32.4999 37 32.4999 36.7V33.2C32.4999 32.9 32.2 32.6 31.9 32.6ZM31.2 36.1H27.7V39.6H25.4999V36.1H21.9999V33.9H25.4999V30.4H27.7V33.9H31.2V36.1Z" fill="#29A6DF"/>
</svg>
