<svg width="37" height="46" viewBox="0 0 37 46" fill="none" xmlns="http://www.w3.org/2000/svg">
<path d="M27.6999 27.2C27.3999 27 26.9999 27.1 26.7999 27.4C26.5999 27.7 26.6999 28.0999 26.9999 28.2999C30.8999 30.9999 33.7999 33.3 34.4999 38C34.8999 40.4 34.7999 41.7999 34.0999 42.5999C32.5999 44.2999 27.8999 44.2999 19.3999 44.2999H18.9999V34.2999C18.9999 33.9999 18.6999 33.7 18.3999 33.7C18.0999 33.7 17.7999 33.9999 17.7999 34.2999V44.2999H17.3999C8.79988 44.2999 4.09988 44.2999 2.69988 42.5999C1.99988 41.7999 1.89988 40.4 2.39988 38C3.19988 33.6 5.49988 31.3999 9.89988 28.2999C10.1999 28.0999 10.2999 27.7 10.0999 27.4C9.89989 27.1 9.49988 27 9.19988 27.2C5.19988 29.9 2.09989 32.4 1.09989 37.7C0.599891 40.5 0.799882 42.1999 1.69988 43.2999C3.49988 45.5 8.19988 45.5 17.3999 45.5H19.4999C28.6999 45.5 33.2999 45.5 35.0999 43.2999C36.0999 42.1999 36.2999 40.5 35.7999 37.7C34.9999 32.5 31.7999 30 27.6999 27.2Z" fill="#29A6DF"/>
<path d="M18.3999 29C23.0999 29 27.7999 23 27.7999 16.9C27.7999 16.4 27.7999 15.9 27.6999 15.5C27.7999 15.4 27.7999 15.3 27.7999 15.2V2.89996C27.7999 2.69996 27.6999 2.49996 27.4999 2.39996C27.3999 2.29996 24.0999 0.299957 18.3999 0.299957C12.6999 0.299957 9.49988 2.29996 9.29988 2.39996C9.09988 2.49996 8.99988 2.69996 8.99988 2.89996V15.2C8.99988 15.3 8.99988 15.4 9.09988 15.5C8.99988 16 8.99988 16.4 8.99988 16.9C8.99988 23.1 13.5999 29 18.3999 29ZM18.3999 27.8C14.2999 27.8 10.2999 22.4 10.2999 17C10.2999 16.6 10.2999 16.1 10.3999 15.7C11.3999 15.5 13.8999 15 18.4999 15C23.0999 15 25.5999 15.5 26.5999 15.7C26.5999 16.1 26.6999 16.5 26.6999 17C26.5999 22.3 22.4999 27.8 18.3999 27.8ZM10.2999 3.29996C11.1999 2.79996 13.9999 1.59998 18.3999 1.59998C22.7999 1.59998 25.6999 2.89996 26.5999 3.29996V14.4C25.3999 14.1 22.8999 13.7 18.4999 13.7C14.0999 13.7 11.5999 14.1 10.3999 14.4V3.29996H10.2999Z" fill="#29A6DF"/>
<path d="M21.5999 36.9V40.5999C21.5999 40.8999 21.8998 41.2 22.1998 41.2H28.5999C28.8999 41.2 29.1998 40.8999 29.1998 40.5999V36.9C29.1998 36.6 28.8999 36.3 28.5999 36.3H22.1998C21.8998 36.3 21.5999 36.5 21.5999 36.9ZM22.8998 37.5H27.9998V39.9H22.8998V37.5Z" fill="#29A6DF"/>
<path d="M20.3999 11.9V9.79996H22.4999C22.7999 9.79996 23.0999 9.49998 23.0999 9.19998V6.49997C23.0999 6.19997 22.7999 5.89996 22.4999 5.89996H20.3999V3.79996C20.3999 3.49996 20.0999 3.19998 19.7999 3.19998H17.0999C16.7999 3.19998 16.4999 3.49996 16.4999 3.79996V5.89996H14.3999C14.0999 5.89996 13.7999 6.19997 13.7999 6.49997V9.19998C13.7999 9.49998 14.0999 9.79996 14.3999 9.79996H16.4999V11.9C16.4999 12.2 16.7999 12.5 17.0999 12.5H19.7999C20.0999 12.5 20.3999 12.2 20.3999 11.9ZM19.1999 11.3H17.6999V8.59998H14.9999V7.09998H17.6999V4.39996H19.1999V7.09998H21.8999V8.59998H19.1999V11.3Z" fill="#29A6DF"/>
</svg>
