<svg fill="none" height="48" viewBox="0 0 20 48" width="20" xmlns="http://www.w3.org/2000/svg"><path d="m19.3 1.10001c0-.300004-.3-.60001-.6-.60001s-.6.300006-.6.60001c0 .8-.1 1.59998-.3 2.29998h-.1l-15.90001.80001c-.4-.9-.59998-2-.59998-3.2 0-.3-.300004-.600006-.600004-.600006s-.600006.300006-.600006.600006c0 5.8 4.20001 8.80001 8.60001 11.6-4.3 2.8-8.60001 5.8-8.60001 11.6s4.20001 8.8 8.60001 11.6c-4.3 2.8-8.60001 5.8-8.60001 11.6 0 .3.300006.6.600006.6s.600004-.3.600004-.6c0-1.2.19998-2.2.59998-3.2l15.90001.8h.1c.2.7.3 1.5.3 2.3 0 .3.3.6.6.6s.6-.3.6-.6c0-5.8-4.2-8.8-8.6-11.6 4.3-2.8 8.6-5.8 8.6-11.6s-4.2-8.8-8.6-11.6c4.4-2.7 8.6-5.69999 8.6-11.39999zm-17.00001 4.29998 15.10001-.79998c-.4.8-.9 1.59998-1.4 2.29998-.1 0-.1 0-.2 0l-11.19999 1.10001h-.10001c-1-.7-1.70001-1.60001-2.20001-2.60001zm12.30001 2.90001c-1.4 1.3-3.2 2.4-4.99999 3.6-1.4-.9-2.7-1.8-3.9-2.7zm-4.99999 5.1c1.59999 1 3.19999 2 4.49999 3.2l-8.1-.8c1.2-.9 2.40001-1.6 3.60001-2.4zm-4.9 3.5 10.79999 1.1h.1c.6.7 1.1 1.4 1.5 2.1l-14.49999-.8c.5-.9 1.3-1.7 2.1-2.4zm13.29999 6.7h-16.89999c.1-1.1.29998-2.1.69998-3l15.50001.8h.2c.3.6.5 1.4.5 2.2zm-.4 3.4c-.1 0-.2 0-.3 0l-15.50001.8c-.4-.9-.59998-1.9-.69998-3h16.89999c0 .8-.2 1.5-.4 2.2zm-15.1 2 14.5-.8c-.4.8-.9 1.5-1.5 2.2 0 0 0 0-.1 0l-10.79999 1.1c-.8-.8-1.50001-1.6-2.10001-2.5zm11.6 2.8c-1.3 1.1-2.9 2.2-4.49999 3.2-1.2-.8-2.4-1.6-3.5-2.4zm-4.49999 4.7c1.79999 1.1 3.49999 2.3 4.99999 3.6l-8.89999-.9c1.2-.9 2.5-1.8 3.9-2.7zm-7.30002 6.4c.5-1 1.3-1.8 2.1-2.6h.10001l11.2 1.1h.1.1c.6.7 1.1 1.5 1.4 2.3z" fill="#29a6df"/></svg>