<svg width="37" height="39" viewBox="0 0 37 39" fill="none" xmlns="http://www.w3.org/2000/svg">
<path d="M11.9 12C12 12.1 12.2 12.2 12.3 12.2C12.5 12.2 12.6 12.2 12.8 12.1C14.1 11 15.7 10.3 17.4 10.1C17.7 10.1 17.9 9.90001 17.9 9.60001C18.1 8.70001 18.2 8.19999 18.3 7.89999C18.4 8.19999 18.6 8.70001 18.7 9.60001C18.7 9.90001 19 10.1 19.2 10.1C20.9 10.3 22.5 11 23.8 12.1C23.9 12.2 24.1 12.3 24.2 12.3C24.2 12.3 24.2 12.3 24.3 12.3C24.5 12.3 24.6 12.2 24.7 12.1L27.9 8.10001C28.1 7.80001 28.1 7.4 27.8 7.2C25.1 4.9 21.7 3.60001 18.1 3.60001C14.6 3.60001 11.1 4.9 8.40003 7.2C8.10003 7.4 8.10004 7.80001 8.30004 8.10001L11.9 12ZM18.4 4.89999C21.4 4.89999 24.4 5.9 26.8 7.8L24.3 10.8C23 9.9 21.6 9.2 20 9C19.6 7.2 19.2 6.39999 18.4 6.39999C17.6 6.39999 17.2 7.2 16.8 9C15.2 9.3 13.7 9.9 12.5 10.8L10 7.8C12.4 5.9 15.4 4.89999 18.4 4.89999Z" fill="#29A6DF"/>
<path d="M18.4 0C7.80002 0 3.60003 3.3 2.20003 4.7C1.20003 5.7 0.700034 6.89999 0.800034 7.89999L2.40003 33.4C2.60003 36.2 5.00003 38.5 7.80003 38.5H29C31.8 38.5 34.2 36.2 34.4 33.4L36 7.89999C36.1 6.89999 35.6 5.8 34.6 4.7C33.2 3.2 29 0 18.4 0ZM33.1 33.3C33 35.4 31.1 37.2 29 37.2H7.90002C5.80002 37.2 3.90003 35.5 3.80003 33.3L2.20003 7.8C2.20003 7.2 2.60003 6.40001 3.30003 5.60001C4.50003 4.30001 8.40003 1.3 18.5 1.3C28.6 1.3 32.5 4.30001 33.7 5.60001C34.4 6.40001 34.8 7.2 34.8 7.8L33.1 33.3Z" fill="#29A6DF"/>
<path d="M32.2 10.3C31.9 10.3 31.6 10.5 31.5 10.9L30.1 33.1C30.1 33.7 29.5 34.2 28.9 34.2H7.80003C7.20003 34.2 6.70004 33.7 6.60004 33.1L5.20003 10.9C5.20003 10.6 4.90003 10.3 4.50003 10.3C4.20003 10.3 3.90002 10.6 3.90002 11L5.30003 33.2C5.40003 34.4 6.50003 35.5 7.70003 35.5H29C30.2 35.5 31.3 34.5 31.4 33.2L32.8 11C32.8 10.6 32.5 10.3 32.2 10.3Z" fill="#29A6DF"/>
</svg>
