<svg width="59" height="77" viewBox="0 0 59 77" fill="none" xmlns="http://www.w3.org/2000/svg">
<path d="M34.9336 67.7884C30.9548 67.8203 27.0121 67.031 23.3508 65.4698C16.2338 62.4215 10.5642 56.7398 7.52243 49.6074C5.96512 45.9381 5.17761 41.9871 5.20885 37.9998C5.17329 33.8991 6.00749 29.8376 7.65619 26.0844M18.3224 13.2902C20.742 11.6093 23.4125 10.324 26.2341 9.48218C29.0563 8.6345 31.9873 8.20628 34.9336 8.2112C38.2824 8.19695 41.6088 8.75953 44.7675 9.8744C47.9104 10.9949 50.849 12.6233 53.4669 14.6952" stroke="#3E4042" stroke-width="4.88" stroke-linecap="round"/>
<path d="M53.3778 61.3638C50.9607 63.2828 48.2596 64.8121 45.3719 65.8966" stroke="#3E4042" stroke-width="4.88" stroke-linecap="round"/>
<path d="M40.6655 67.7833C41.3604 67.7833 41.9238 67.2187 41.9238 66.5223C41.9238 65.8258 41.3604 65.2612 40.6655 65.2612C39.9705 65.2612 39.4071 65.8258 39.4071 66.5223C39.4071 67.2187 39.9705 67.7833 40.6655 67.7833Z" fill="#3D9A9B"/>
<path d="M50.9601 61.0758C50.544 60.207 47.4675 57.9976 46.6847 57.8834C46.1596 57.804 44.4157 58.509 43.0632 58.9707C42.8007 58.2409 42.0724 58.653 41.0519 59.1445C39.957 58.4196 38.02 56.0663 36.8706 55.5053C35.5132 54.845 29.2958 57.7345 29.2958 57.7345C28.9737 58.3948 34.5521 57.1387 35.5478 57.094C36.5436 57.0494 37.9357 58.2608 38.7532 59.08C39.5706 59.8991 39.6548 60.4055 39.1693 60.8971C38.6838 61.3886 37.8515 61.1155 37.7623 61.2942C37.6732 61.473 38.3766 62.034 39.6102 61.9943C40.8438 61.9546 41.7702 60.9517 42.2111 60.5048C42.6521 60.058 43.4051 59.914 44.8368 59.4176C46.2686 58.9211 47.3882 59.7105 48.9388 60.2914C50.4895 60.8722 51.3763 61.9446 50.9601 61.0758Z" fill="#3D9A9B"/>
</svg>
