<svg width="933" height="918" viewBox="0 0 933 918" fill="none" xmlns="http://www.w3.org/2000/svg">
<g style="mix-blend-mode:hard-light">
<path d="M466.341 815.634C667.621 815.634 830.79 652.465 830.79 451.185C830.79 249.906 667.621 86.7368 466.341 86.7368C265.062 86.7368 101.893 249.906 101.893 451.185C101.893 652.465 265.062 815.634 466.341 815.634Z" stroke="#AAC6C7" stroke-opacity="0.5" stroke-width="2.7" stroke-miterlimit="10"/>
</g>
<g style="mix-blend-mode:hard-light">
<path d="M60.7869 380.604C77.3728 285.093 127.156 198.508 201.355 136.122C275.554 73.7359 369.401 39.5578 466.342 39.6168" stroke="#AAC6C7" stroke-opacity="0.5" stroke-width="8.11" stroke-linecap="round" stroke-linejoin="round"/>
</g>
<g style="mix-blend-mode:hard-light">
<path d="M661.255 88.6094C726.751 123.816 781.482 176.113 819.631 239.94C857.78 303.767 877.92 376.739 877.911 451.097C877.911 678.415 693.638 862.666 466.342 862.666C239.046 862.666 54.7732 678.503 54.7732 451.097" stroke="#AAC6C7" stroke-opacity="0.5" stroke-width="8.11" stroke-linecap="round" stroke-linejoin="round"/>
</g>
<g style="mix-blend-mode:hard-light">
<path d="M1 451.098C1 235.037 148.374 53.297 348.112 1" stroke="#AAC6C7" stroke-opacity="0.5" stroke-width="1.35" stroke-linecap="round" stroke-linejoin="round"/>
</g>
<g style="mix-blend-mode:hard-light">
<path d="M685.31 40.4761C759.741 80.1581 821.984 139.328 865.381 211.656C908.778 283.984 931.696 366.749 931.683 451.098C931.683 708.11 723.354 916.461 466.342 916.461C254.532 916.461 75.7665 774.947 19.4382 581.289" stroke="#AAC6C7" stroke-opacity="0.5" stroke-width="1.35" stroke-linecap="round" stroke-linejoin="round"/>
</g>
</svg>
