<svg width="38" height="36" viewBox="0 0 38 36" fill="none" xmlns="http://www.w3.org/2000/svg">
<path d="M17.8047 0.789062L19 5.28906C15.1094 8.75781 12.5547 11.5469 11.3359 13.6562C10.1641 15.7187 9.57812 17.7109 9.57812 19.6328C9.57812 20.6172 10.1406 22.1641 11.2656 24.2734C12.1562 25.9609 12.6016 27.5547 12.6016 29.0547C12.6016 30.9297 12.0156 32.4766 10.8438 33.6953C9.71875 34.8672 8.28906 35.4531 6.55469 35.4531C4.77344 35.4531 3.25 34.7734 1.98438 33.4141C0.765625 32.0078 0.15625 30.1797 0.15625 27.9297C0.15625 23.9922 1.42188 19.8906 3.95312 15.625C6.53125 11.3125 11.1484 6.36719 17.8047 0.789062ZM36.0859 0.789062L37.2812 5.28906C33.3438 8.75781 30.7656 11.5469 29.5469 13.6562C28.375 15.7187 27.7891 17.7109 27.7891 19.6328C27.7891 20.6172 28.3516 22.1641 29.4766 24.2734C30.3672 25.9609 30.8125 27.5547 30.8125 29.0547C30.8125 30.9297 30.25 32.4766 29.125 33.6953C28 34.8672 26.5469 35.4531 24.7656 35.4531C22.9844 35.4531 21.4609 34.7734 20.1953 33.4141C18.9766 32.0078 18.3672 30.1797 18.3672 27.9297C18.3672 23.9922 19.6562 19.8906 22.2344 15.625C24.8125 11.3125 29.4297 6.36719 36.0859 0.789062Z" fill="white"/>
</svg>
