<svg width="38" height="36" viewBox="0 0 38 36" fill="none" xmlns="http://www.w3.org/2000/svg">
<path d="M20.1953 35.2109L19 30.7109C22.8906 27.2422 25.4453 24.4531 26.6641 22.3437C27.8359 20.2812 28.4219 18.2891 28.4219 16.3672C28.4219 15.3828 27.8594 13.8359 26.7344 11.7266C25.8438 10.0391 25.3984 8.44531 25.3984 6.94531C25.3984 5.07031 25.9844 3.52343 27.1563 2.30468C28.2813 1.13281 29.7109 0.546872 31.4453 0.546872C33.2266 0.546872 34.75 1.22656 36.0156 2.58594C37.2344 3.99219 37.8438 5.82031 37.8438 8.07031C37.8438 12.0078 36.5781 16.1094 34.0469 20.375C31.4688 24.6875 26.8516 29.6328 20.1953 35.2109ZM1.91406 35.2109L0.718752 30.7109C4.65625 27.2422 7.23438 24.4531 8.45313 22.3437C9.625 20.2812 10.2109 18.2891 10.2109 16.3672C10.2109 15.3828 9.64844 13.8359 8.52344 11.7266C7.63282 10.0391 7.1875 8.44531 7.1875 6.94531C7.1875 5.07031 7.75 3.52343 8.875 2.30468C10 1.13281 11.4531 0.54687 13.2344 0.546871C15.0156 0.546871 16.5391 1.22656 17.8047 2.58593C19.0234 3.99218 19.6328 5.82031 19.6328 8.07031C19.6328 12.0078 18.3438 16.1094 15.7656 20.375C13.1875 24.6875 8.57031 29.6328 1.91406 35.2109Z" fill="white"/>
</svg>
