<svg width="215" height="19" viewBox="0 0 215 19" fill="none" xmlns="http://www.w3.org/2000/svg">
<g clip-path="url(#clip0_747_2162)">
<path fill-rule="evenodd" clip-rule="evenodd" d="M42.3891 0.544274C39.6701 1.44973 38.884 2.44282 38.7831 5.88941C38.7325 7.77336 38.6172 13.3667 38.9273 14.9367C39.8577 19.4202 48.1012 19.5736 52.2409 18.3322C54.9022 17.529 55.4215 16.3898 55.4719 13.0674C55.5224 10.6139 55.4719 8.41593 55.5224 6.56851C55.5224 2.91746 54.7075 0.675711 50.7769 0.230283C48.3031 -0.0691032 44.5816 -0.178635 42.3819 0.544274H42.3891ZM52.2842 13.8341V5.59733C52.3491 3.28256 48.9449 3.58195 47.2357 3.58195C45.3606 3.58195 42.0862 3.38479 42.0862 5.59733V13.8341C42.0862 14.9879 43.5286 15.4187 45.1658 15.5355C46.6672 15.5884 48.1703 15.5445 49.6662 15.404C51.1951 15.2872 52.1904 14.8564 52.2553 13.8195L52.2842 13.8341Z" fill="#EC2327"/>
<path fill-rule="evenodd" clip-rule="evenodd" d="M21.8618 0.0747793C25.8429 0.0747793 30.3191 -0.200577 32.7791 0.305484C35.2392 0.811546 36.5275 2.37438 36.5275 5.51494C36.5275 10.7244 34.8971 12.2128 31.2798 12.5924C31.1757 12.6005 31.071 12.6005 30.9668 12.5924C28.827 12.7784 26.0031 12.5924 22.4295 12.5924V17.2585C22.4295 17.7204 22.25 18.1633 21.9307 18.49C21.6112 18.8165 21.178 19 20.7264 19C20.2747 19 19.8415 18.8165 19.522 18.49C19.2027 18.1633 19.0233 17.7204 19.0233 17.2585V14.2817C18.9577 12.0937 19.0233 9.50388 19.0233 7.33825C19.0233 5.57448 19.0888 3.68419 19.0233 1.92041C18.9934 1.7171 19.0029 1.50974 19.0515 1.31022C19.1001 1.11071 19.1867 0.922962 19.3064 0.757729C19.4261 0.5925 19.5765 0.453039 19.7489 0.34734C19.9214 0.24164 20.1126 0.171779 20.3115 0.141758C20.8224 0.0668669 21.3393 0.0444288 21.8545 0.0747793H21.8618ZM31.0396 3.58744H22.4367V9.15412H30.0061C32.1896 9.15412 33.3104 9.00526 33.405 6.46009C33.4997 3.91489 32.7646 3.63954 31.0396 3.58744Z" fill="#EC2327"/>
<path d="M16.8025 17.2499V9.9256V6.67191C16.8169 2.96303 15.9685 0.686968 12.0357 0.231755C9.56964 -0.0592835 5.83092 -0.193609 3.62366 0.552642C0.920294 1.46307 0.129416 2.47051 0.0287592 5.9779C0.0287592 7.32861 -0.035949 10.5524 0.0287592 12.8956V17.2313C0.0297013 17.4607 0.0741517 17.6876 0.159573 17.8991C0.244993 18.1106 0.36971 18.3025 0.526605 18.464C0.683499 18.6255 0.869498 18.7532 1.07398 18.8401C1.27846 18.9269 1.49742 18.9711 1.71836 18.9701C2.16399 18.9702 2.59158 18.7874 2.90803 18.4618C3.22448 18.1361 3.40417 17.6939 3.40796 17.2313V10.1942V10.0599V5.67939C3.40796 3.43318 6.69369 3.63466 8.57743 3.63466C10.2526 3.63466 13.5672 3.33616 13.5024 5.67939V15.9925V17.2613C13.5034 17.4906 13.5478 17.7174 13.6332 17.9289C13.7187 18.1404 13.8434 18.3324 14.0003 18.4938C14.1571 18.6553 14.3432 18.7831 14.5476 18.8699C14.7521 18.9568 14.9711 19.001 15.1921 19C15.6363 19 16.0624 18.8168 16.3766 18.4907C16.6908 18.1647 16.8025 17.7111 16.8025 17.2499Z" fill="#EC2327"/>
<path fill-rule="evenodd" clip-rule="evenodd" d="M57.7139 17.2565C57.7158 16.7906 57.8959 16.3445 58.2152 16.0151C58.5344 15.6857 58.9669 15.4999 59.4184 15.4979H60.5499L67.9266 0.950801C68.086 0.638577 68.3318 0.382263 68.6328 0.214393C68.9336 0.0465218 69.2761 -0.0253378 69.6166 0.00793378C69.9541 -0.0237542 70.293 0.0490172 70.5902 0.216957C70.8873 0.384896 71.1292 0.640383 71.2849 0.950801L78.6616 15.4979H79.387C79.8385 15.4999 80.2709 15.6857 80.5902 16.0151C80.9094 16.3445 81.0896 16.7906 81.0915 17.2565C81.0906 17.4864 81.0458 17.7139 80.9595 17.9259C80.8734 18.1381 80.7476 18.3305 80.5893 18.4925C80.431 18.6543 80.2433 18.7825 80.037 18.8696C79.8308 18.9566 79.6099 19.001 79.387 19H59.4184C59.1954 19.001 58.9746 18.9566 58.7683 18.8696C58.562 18.7825 58.3744 18.6543 58.216 18.4925C58.0578 18.3305 57.932 18.1381 57.8458 17.9259C57.7596 17.7139 57.7148 17.4864 57.7139 17.2565ZM69.6166 5.20119L64.387 15.4979H74.8246L69.6166 5.20119Z" fill="#117DC1"/>
<path fill-rule="evenodd" clip-rule="evenodd" d="M104.158 0.066294C104.403 0.0672685 104.647 0.113247 104.873 0.201606C105.1 0.289964 105.306 0.418971 105.478 0.581261C105.652 0.743551 105.789 0.935948 105.882 1.14746C105.975 1.35897 106.023 1.58547 106.021 1.814V6.94556L116.111 0.319154C116.518 0.0545791 117.021 -0.0515159 117.511 0.0235175C118.001 0.0985513 118.441 0.348768 118.735 0.720754C118.878 0.908621 118.979 1.12084 119.034 1.34524C119.088 1.56964 119.094 1.80181 119.052 2.02844C119.01 2.25507 118.92 2.47169 118.787 2.66588C118.655 2.86008 118.482 3.02803 118.279 3.1601L108.678 9.49645L118.279 15.8329C118.687 16.1008 118.963 16.5079 119.049 16.965C119.134 17.4222 119.021 17.8921 118.735 18.2722C118.441 18.6449 118.004 18.8969 117.514 18.9746C117.024 19.0524 116.521 18.9498 116.111 18.6886L106.021 12.0548V17.2608C106.021 17.4879 105.973 17.713 105.879 17.9228C105.786 18.1325 105.648 18.3231 105.475 18.4834C105.302 18.6437 105.096 18.7707 104.87 18.8569C104.644 18.9432 104.402 18.9871 104.158 18.9861C103.663 18.9862 103.188 18.8051 102.836 18.4821C102.484 18.1592 102.283 17.7204 102.277 17.2608V1.814C102.281 1.35168 102.481 0.909398 102.832 0.58248C103.184 0.25556 103.66 0.0701791 104.158 0.066294Z" fill="#117DC1"/>
<path fill-rule="evenodd" clip-rule="evenodd" d="M131.487 3.50078V17.2646C131.483 17.7249 131.291 18.1652 130.953 18.49C130.616 18.8148 130.159 18.998 129.681 19C129.445 19.001 129.21 18.9568 128.991 18.8701C128.772 18.7832 128.573 18.6556 128.405 18.4944C128.237 18.3331 128.104 18.1414 128.013 17.9304C127.922 17.7194 127.875 17.4931 127.875 17.2646V3.50078H123.094C122.613 3.5008 122.152 3.31766 121.811 2.99122C121.47 2.66478 121.277 2.22149 121.272 1.75787C121.277 1.29287 121.469 0.848011 121.81 0.519188C122.151 0.190367 122.612 0.00390784 123.094 0H136.269C136.507 0.000980235 136.743 0.0472266 136.962 0.136099C137.182 0.224972 137.381 0.354729 137.549 0.517963C137.717 0.681197 137.85 0.87471 137.94 1.08745C138.03 1.30019 138.076 1.528 138.075 1.75787C138.075 2.22013 137.885 2.66344 137.546 2.99029C137.208 3.31716 136.748 3.50078 136.269 3.50078H131.487Z" fill="#117DC1"/>
<path fill-rule="evenodd" clip-rule="evenodd" d="M201.621 7.62985H208.501C210.93 7.62985 211.852 7.71198 211.852 5.63654C211.852 4.14341 211.296 3.50884 208.501 3.50884H201.621V7.62985ZM201.621 15.5061H210.297C211.55 15.2373 211.852 14.6102 211.852 13.5127C211.852 11.4373 210.93 11.5269 208.501 11.5269H201.621V15.521V15.5061ZM210.459 19C206.86 19 203.234 19 199.635 19C199.2 19.002 198.781 18.8208 198.47 18.4963C198.161 18.1716 197.985 17.73 197.98 17.2679V1.75442C197.982 1.29101 198.156 0.84702 198.465 0.51864C198.774 0.190258 199.192 0.00392315 199.629 0C202.684 0 205.881 0 208.888 0C211.895 0 214.775 1.23183 214.775 4.94224C214.823 6.15356 214.668 7.36433 214.317 8.51828C214.243 8.71852 214.15 8.911 214.042 9.09315C213.959 9.25961 213.921 9.44829 213.937 9.63639C213.952 9.82457 214.018 10.004 214.127 10.1533C214.217 10.3448 214.297 10.5417 214.366 10.743C214.677 11.8541 214.815 13.0115 214.775 14.1697C214.751 15.3989 214.294 16.5742 213.494 17.4641C212.694 18.3539 211.608 18.8939 210.451 18.9776L210.459 19Z" fill="#117DC1"/>
<path fill-rule="evenodd" clip-rule="evenodd" d="M86.9524 0.544274C84.2337 1.44973 83.4473 2.44282 83.3465 5.88941C83.2961 7.77336 83.1805 13.3667 83.4911 14.9367C84.4213 19.4202 92.6722 19.5736 96.8117 18.3322C99.466 17.529 99.9847 16.3898 100.035 13.0674C100.086 10.6139 100.035 8.41593 100.086 6.56851C100.086 2.91746 99.271 0.675711 95.3405 0.230283C92.8663 -0.0691032 89.1448 -0.178635 86.9458 0.544274H86.9524ZM96.8481 13.8341V5.59733C96.9125 3.28256 93.5082 3.58195 91.799 3.58195C89.9238 3.58195 86.65 3.38479 86.65 5.59733V13.8341C86.65 14.9879 88.0924 15.4187 89.7297 15.5355C91.2307 15.5881 92.7342 15.5442 94.2294 15.404C95.7585 15.2872 96.7539 14.8564 96.8192 13.8195L96.8481 13.8341Z" fill="#117DC1"/>
<path fill-rule="evenodd" clip-rule="evenodd" d="M143.939 0.544274C141.228 1.44973 140.426 2.44282 140.325 5.88941C140.275 7.77336 140.166 13.3667 140.491 14.9367C141.402 19.4202 149.683 19.5736 153.816 18.3322C156.475 17.529 157.003 16.3898 157.068 13.0674C157.068 10.6139 157.068 8.41593 157.068 6.56851C157.104 2.91746 156.252 0.675711 152.321 0.230283C149.849 -0.0691032 146.128 -0.178635 143.91 0.544274H143.939ZM153.839 13.8341V5.59733C153.903 3.28256 150.485 3.58195 148.78 3.58195C146.908 3.58195 143.621 3.38479 143.621 5.59733V13.8341C143.621 14.9879 145.065 15.4187 146.728 15.5355C148.224 15.5882 149.724 15.5443 151.215 15.404C152.755 15.2872 153.744 14.8564 153.816 13.8195L153.839 13.8341Z" fill="#117DC1"/>
<path fill-rule="evenodd" clip-rule="evenodd" d="M182.65 0.544274C179.923 1.44973 179.143 2.44282 179.042 5.88941C178.999 7.77336 178.884 13.3667 179.194 14.9367C180.124 19.4202 188.371 19.5736 192.512 18.3322C195.175 17.529 195.695 16.3898 195.745 13.0674C195.788 10.6139 195.745 8.41593 195.788 6.56851C195.788 2.91746 194.973 0.675711 191.048 0.230283C188.566 -0.0691032 184.851 -0.178635 182.65 0.544274ZM192.578 13.8341V5.59733C192.642 3.28256 189.23 3.58195 187.527 3.58195C185.651 3.58195 182.368 3.38479 182.368 5.59733V13.8341C182.368 14.9879 183.811 15.4187 185.456 15.5355C186.956 15.5884 188.457 15.5446 189.952 15.404C191.488 15.2872 192.484 14.8564 192.549 13.8195L192.578 13.8341Z" fill="#117DC1"/>
<path fill-rule="evenodd" clip-rule="evenodd" d="M162.353 0.0560206C166.344 0.0560206 170.57 -0.182277 173.027 0.324087C175.485 0.830449 176.794 2.39422 176.794 5.53667C176.794 10.7492 175.165 12.2386 171.552 12.6257C171.448 12.6334 171.343 12.6334 171.239 12.6257C169.058 12.8119 166.258 12.663 162.71 12.663V17.2575C162.71 17.7196 162.531 18.1628 162.212 18.4896C161.893 18.8164 161.46 19 161.009 19C160.558 19 160.125 18.8164 159.807 18.4896C159.487 18.1628 159.308 17.7196 159.308 17.2575V14.2789C159.228 12.0896 159.265 9.49818 159.308 7.32383C159.308 5.559 159.359 3.67503 159.308 1.9102C159.247 1.49846 159.349 1.07898 159.59 0.743885C159.831 0.408792 160.193 0.18549 160.595 0.123031C161.1 0.0521111 161.612 0.0296642 162.121 0.0560016L162.353 0.0560206ZM171.254 3.60057H162.704V9.17056H170.25C172.432 9.17056 173.566 9.02161 173.667 6.48237C173.769 3.9431 173.021 3.65269 171.246 3.60057H171.254Z" fill="#117DC1"/>
</g>
<defs>
<clipPath id="clip0_747_2162">
<rect width="214.783" height="19" fill="white"/>
</clipPath>
</defs>
</svg>
