<svg width="255" height="68" viewBox="0 0 255 68" fill="none" xmlns="http://www.w3.org/2000/svg">
<path fill-rule="evenodd" clip-rule="evenodd" d="M42.3963 50.5654C45.4602 43.7685 53.1201 38.6578 59.4669 30.4277C74.7341 10.6246 70.4796 2.60036 69.5341 0C73.1583 2.98226 73.2546 7.44064 73.2546 7.44064C73.7248 5.77622 73.998 4.06427 74.0688 2.33861C76.0341 5.04624 75.6051 9.42738 75.198 10.9807C76.2442 10.0625 76.9051 8.75369 77.5223 5.4024C77.5529 5.43673 79.3781 8.21731 76.6162 13.86C77.461 13.7442 80.2711 10.3371 80.2711 10.3371C80.2711 10.3371 79.9296 14.8255 76.9926 17.6318C77.1765 18.3055 81.7111 15.246 81.7111 15.246C81.7111 15.246 80.5906 18.6788 76.5331 21.5667C80.3061 20.9702 80.9101 20.6613 82 20.2579C81.9737 20.7943 79.3738 24.0469 76.2048 25.124C80.1704 25.42 80.0391 24.6391 81.4047 24.6949C81.2296 25.5059 79.5226 27.351 75.1061 29.1361C74.5896 29.342 78.8266 29.3506 80.2842 28.707C78.2839 31.7107 74.6553 32.0068 74.3051 32.5431C73.955 33.0795 76.7431 32.865 78.7216 32.7319C76.4893 35.0276 74.524 35.3967 72.957 35.7357C72.9551 35.7389 72.954 35.7426 72.954 35.7464C72.954 35.7501 72.9551 35.7539 72.957 35.7571C74.6772 36.139 75.7496 36.9801 75.2112 37.731C74.7385 38.3918 69.9981 38.8896 69.486 39.5418C68.9738 40.194 72.5937 41.1123 71.994 41.8118C71.2806 42.6399 66.9998 42.67 66.2338 43.4681C65.7042 44.0302 68.6981 45.3905 68.151 45.9397C67.6038 46.489 63.6338 46.5962 63.0429 47.1584C62.2726 47.8836 64.8507 49.085 64.054 49.7931C63.4325 50.3466 60.2372 50.3294 59.677 50.9473C59.1167 51.5652 61.1695 52.8869 60.4911 53.4447C59.8126 54.0026 57.3002 53.9596 56.6655 54.4402C56.184 54.805 57.3177 55.9764 56.8844 56.3412C56.2191 56.8947 53.5885 56.929 52.8881 57.4182C52.0127 58.0404 53.7635 58.9973 53.1464 59.6324C52.4285 60.3576 49.5922 60.3318 48.1871 60.9411C47.1104 61.4132 49.312 62.3271 48.4848 62.6962C43.0003 65.1421 41.2714 67.6609 41.0744 67.9698C41.0687 67.9796 41.0604 67.9875 41.0503 67.9928C41.0403 67.9981 41.0289 68.0006 41.0175 67.9999H40.9912C40.977 68.0007 40.9629 67.9975 40.9505 67.9906C40.938 67.9838 40.9279 67.9736 40.9212 67.9613C40.698 67.618 38.9559 65.1206 33.5152 62.6962C32.688 62.3271 34.8896 61.4089 33.8129 60.9411C32.4078 60.3318 29.5715 60.3576 28.8536 59.6324C28.2233 58.9973 30.0004 58.0404 29.1119 57.4182C28.4116 56.929 25.7809 56.8947 25.1156 56.3412C24.6779 55.9764 25.816 54.805 25.3345 54.4402C24.6998 53.9596 22.1261 53.9511 21.5089 53.4447C20.8917 52.9384 22.9008 51.5996 22.323 50.9473C21.7453 50.2951 18.5807 50.3466 17.946 49.7931C17.1494 49.085 19.7274 47.8836 18.9571 47.1584C18.3662 46.5962 14.4224 46.5104 13.849 45.9397C13.2756 45.369 16.2958 44.0302 15.7662 43.4681C15.0002 42.6571 10.7194 42.6399 10.006 41.8118C9.40632 41.1123 13.0699 40.2498 12.514 39.5418C11.9581 38.8338 7.26156 38.3918 6.78884 37.731C6.25046 36.9801 7.32284 36.139 9.04303 35.7571C9.04495 35.7539 9.04596 35.7501 9.04596 35.7464C9.04596 35.7426 9.04495 35.7389 9.04303 35.7357C7.47603 35.4053 5.51073 35.0362 3.27843 32.7319C5.25686 32.865 8.00566 33.0237 7.69489 32.5431C7.38412 32.0625 3.71613 31.6849 1.71581 28.707C3.17337 29.3334 7.406 29.3249 6.89388 29.1361C2.47742 27.351 0.765987 25.5059 0.595282 24.6949C1.96093 24.6219 1.82962 25.4029 5.79524 25.124C2.60874 24.0469 0.0262624 20.7943 0 20.2579C1.1074 20.6613 1.69393 20.9702 5.46696 21.5667C1.40942 18.6788 0.288888 15.246 0.288888 15.246C0.288888 15.246 4.82353 18.3055 5.00737 17.6318C2.07035 14.8427 1.72894 10.3371 1.72894 10.3371C1.72894 10.3371 4.53902 13.7442 5.3838 13.86C2.62187 8.21731 4.4471 5.43673 4.47774 5.4024C5.09491 8.74082 5.75585 10.0496 6.80197 10.9807C6.3949 9.42738 5.96594 5.04624 7.93125 2.33861C8.00204 4.06427 8.27522 5.77622 8.74538 7.44064C8.74538 7.44064 8.84168 2.98226 12.4659 0C11.5248 2.60036 7.27031 10.6246 22.5331 30.4277C29.2344 39.117 37.4152 44.3306 40.0721 51.7197L41.0131 53.6121C41.0131 53.6121 41.8185 51.6597 42.3963 50.5654Z" fill="url(#paint0_linear)"/>
<path d="M110.939 17.1286C115.195 17.1286 119.417 19.427 120.739 24.0275H118.187C116.832 21.0351 114.123 19.5555 110.939 19.5555C105.865 19.46 102.462 23.2711 102.462 28.4076C102.462 33.3862 105.836 37.2634 110.906 37.2634C114.28 37.2634 117.148 35.5635 118.312 32.3802H120.882C119.619 37.3258 115.375 39.6903 110.969 39.6903C104.822 39.6903 99.8145 35.3432 99.8145 28.4076C99.8145 21.472 104.731 17.0368 110.939 17.1286Z" fill="#E4003A"/>
<path d="M136.967 27.8754C139.489 28.6097 140.94 30.5226 140.94 33.1404C140.94 37.1424 138.072 39.349 133.942 39.349H124.396V17.2903H132.998C136.967 17.2903 139.93 19.0857 139.93 23.2749C139.93 25.3236 138.953 27.0897 136.967 27.8754ZM127.054 19.6217V26.9648H132.462C135.267 26.9648 137.316 26.0176 137.316 23.3704C137.316 20.7232 135.425 19.6217 132.84 19.6217H127.054ZM132.462 29.2449H127.043V37.0286H133.417C136.222 37.0286 138.27 35.828 138.303 33.1514C138.417 30.0196 135.425 29.2449 132.462 29.2449Z" fill="#E4003A"/>
<path d="M154.52 39.7894C148.312 39.7894 143.362 35.4386 143.362 28.4075C143.362 21.3765 148.374 17 154.55 17C160.725 17 165.737 21.4059 165.737 28.4075C165.726 35.0934 161.169 39.7894 154.52 39.7894ZM154.52 37.3625C159.374 37.3625 163.09 33.768 163.09 28.4112C163.09 23.0544 159.436 19.4012 154.55 19.4012C149.777 19.4012 146.009 22.992 146.009 28.4112C146.009 33.768 149.699 37.3625 154.52 37.3625Z" fill="#E4003A"/>
<path d="M172.071 26.1128H178.313C183.453 26.1128 186.001 28.8224 186.001 32.6996C186.001 36.5106 183.431 39.4112 178.313 39.4405H169.501V17.3818H184.125V19.6986H172.071V26.1128ZM172.071 28.3818V37.1091H178.28C181.683 37.1091 183.383 35.3761 183.383 32.7289C183.383 30.302 181.683 28.3818 178.28 28.3818H172.071Z" fill="#E4003A"/>
<path d="M199.204 39.7894C192.995 39.7894 188.046 35.4386 188.046 28.4075C188.046 21.3765 193.058 17 199.233 17C205.409 17 210.42 21.4059 210.42 28.4075C210.42 35.0934 205.853 39.7894 199.204 39.7894ZM199.204 37.3625C204.058 37.3625 207.773 33.768 207.773 28.4112C207.773 23.0544 204.12 19.4012 199.233 19.4012C194.46 19.4012 190.693 22.992 190.693 28.4112C190.693 33.768 194.383 37.3625 199.204 37.3625Z" fill="#E4003A"/>
<path d="M213.192 43.1305H210.989V37.1715H213.35L221.427 17.1946H222.562L230.944 37.1715H233.4V43.1305H231.227V39.4405H213.2L213.192 43.1305ZM216.027 37.1715H228.253L222.011 21.5747H221.978L216.027 37.1715Z" fill="#E4003A"/>
<path d="M238.655 33.9922L236.085 39.4408H233.346V39.0957L243.626 17.2903H244.823L255.001 39.0957V39.4408H252.291L249.721 33.9922H238.655ZM239.536 31.7232H248.803L244.169 21.4171L239.536 31.7232Z" fill="#E4003A"/>
<path d="M102.02 52.11V51.2909C101.474 51.3074 100.94 51.0998 100.501 50.7013C100.328 50.4876 100.193 50.2308 100.108 49.9481C100.022 49.6655 99.9874 49.3637 100.006 49.0632C99.9855 48.7571 100.02 48.4492 100.106 48.1608C100.192 47.8724 100.329 47.6103 100.506 47.3924C100.943 46.9934 101.475 46.7822 102.02 46.7917V46H102.574V46.7917C103.117 46.7714 103.649 46.9818 104.079 47.3869C104.255 47.6068 104.39 47.8704 104.474 48.1596C104.559 48.4489 104.592 48.757 104.571 49.0632C104.589 49.3637 104.554 49.6655 104.469 49.9481C104.383 50.2308 104.249 50.4876 104.075 50.7013C103.643 51.0989 103.114 51.3067 102.574 51.2909V52.11H102.02ZM100.649 49.0413C100.625 49.4657 100.737 49.8847 100.961 50.2098C101.255 50.5176 101.634 50.6776 102.02 50.6576V47.3814C101.643 47.3717 101.275 47.5222 100.979 47.8073C100.857 47.9733 100.764 48.169 100.707 48.3815C100.65 48.5941 100.63 48.8188 100.649 49.0413ZM103.932 49.0413C103.958 48.6133 103.846 48.1898 103.619 47.8619C103.33 47.5542 102.957 47.3905 102.574 47.4033V50.6794C102.956 50.698 103.33 50.5379 103.619 50.2317C103.848 49.901 103.961 49.473 103.932 49.0413ZM109.051 49.0413C109.103 49.8407 108.935 50.6385 108.573 51.3073C108.193 51.7721 107.677 52.0332 107.139 52.0332C106.601 52.0332 106.086 51.7721 105.705 51.3073C105.399 50.6167 105.238 49.8434 105.238 49.0577C105.238 48.272 105.399 47.4987 105.705 46.8081C105.894 46.577 106.118 46.3936 106.365 46.2685C106.612 46.1434 106.876 46.079 107.144 46.079C107.411 46.079 107.675 46.1434 107.922 46.2685C108.169 46.3936 108.393 46.577 108.582 46.8081C108.935 47.4712 109.1 48.2579 109.051 49.0468V49.0413ZM108.394 49.0413C108.429 48.4369 108.327 47.8326 108.099 47.2941C107.984 47.1197 107.839 46.979 107.673 46.8824C107.508 46.7857 107.327 46.7355 107.144 46.7355C106.96 46.7355 106.779 46.7857 106.614 46.8824C106.448 46.979 106.303 47.1197 106.188 47.2941C105.993 47.8468 105.893 48.4423 105.893 49.0441C105.893 49.6458 105.993 50.2413 106.188 50.7941C106.303 50.9675 106.448 51.1073 106.613 51.2034C106.778 51.2994 106.959 51.3492 107.141 51.3492C107.324 51.3492 107.505 51.2994 107.669 51.2034C107.834 51.1073 107.98 50.9675 108.095 50.7941C108.325 50.2567 108.429 49.6519 108.394 49.0468V49.0413ZM112.83 51.908V49.2871H110.695V51.8916H110.069V46.1856H110.695V48.6154H112.83V46.202H113.455V51.8916L112.83 51.908ZM114.17 53V51.2418H114.563C114.747 50.8014 114.897 50.3407 115.01 49.8658C115.145 49.2908 115.248 48.7052 115.318 48.1131C115.39 47.4744 115.427 46.8305 115.43 46.1856H117.882V51.2418H118.449V52.9836H117.837V51.8916H114.795V52.9836L114.17 53ZM117.243 46.8518H116.028C115.992 47.6612 115.898 48.4652 115.747 49.2543C115.627 49.9433 115.436 50.6111 115.179 51.2418H117.243V46.8518ZM121.018 51.9134V46.1856H124.278V51.8916H123.653V46.8518H121.643V51.8916L121.018 51.9134ZM129.107 49.0468C129.161 49.8456 128.994 50.6433 128.633 51.3128C128.253 51.7776 127.737 52.0387 127.2 52.0387C126.662 52.0387 126.146 51.7776 125.766 51.3128C125.459 50.6222 125.299 49.8489 125.299 49.0632C125.299 48.2775 125.459 47.5042 125.766 46.8136C125.955 46.5824 126.179 46.3991 126.426 46.274C126.672 46.1489 126.937 46.0844 127.204 46.0844C127.471 46.0844 127.736 46.1489 127.983 46.274C128.229 46.3991 128.454 46.5824 128.642 46.8136C128.988 47.4782 129.148 48.2618 129.098 49.0468H129.107ZM128.45 49.0468C128.483 48.4431 128.383 47.8396 128.16 47.2995C128.044 47.1259 127.898 46.986 127.732 46.89C127.566 46.7939 127.385 46.744 127.202 46.744C127.018 46.744 126.837 46.7939 126.672 46.89C126.506 46.986 126.36 47.1259 126.244 47.2995C126.021 47.8396 125.92 48.4431 125.953 49.0468C125.918 49.6531 126.02 50.2595 126.248 50.7995C126.363 50.973 126.509 51.1128 126.674 51.2088C126.839 51.3049 127.019 51.3547 127.202 51.3547C127.385 51.3547 127.565 51.3049 127.73 51.2088C127.895 51.1128 128.04 50.973 128.156 50.7995C128.378 50.2574 128.473 49.651 128.432 49.0468H128.45ZM133.685 51.8916V47.1412L132.39 50.33H132.006L130.724 47.1412V51.8916H130.13V46.1856H130.974L132.216 49.3034L133.471 46.1856H134.288V51.8916H133.685ZM139.113 49.025C139.166 49.8237 139 50.6215 138.639 51.2909C138.462 51.5389 138.241 51.7331 137.992 51.8582C137.743 51.9833 137.474 52.0359 137.205 52.0117C136.936 52.0363 136.666 51.9829 136.417 51.8557C136.168 51.7286 135.946 51.5313 135.771 51.28C135.467 50.5888 135.307 49.8158 135.307 49.0304C135.307 48.2451 135.467 47.4721 135.771 46.7808C135.947 46.5266 136.169 46.3272 136.42 46.199C136.671 46.0708 136.943 46.0175 137.214 46.0437C137.483 46.0182 137.754 46.0701 138.003 46.1953C138.253 46.3204 138.476 46.5154 138.653 46.7644C139.008 47.4421 139.17 48.2448 139.113 49.0468V49.025ZM138.456 49.025C138.489 48.4213 138.389 47.8178 138.166 47.2777C138.05 47.1041 137.903 46.9642 137.738 46.8681C137.572 46.7721 137.391 46.7222 137.208 46.7222C137.024 46.7222 136.843 46.7721 136.677 46.8681C136.512 46.9642 136.365 47.1041 136.249 47.2777C136.056 47.8309 135.957 48.4262 135.957 49.0277C135.957 49.6292 136.056 50.2244 136.249 50.7777C136.364 50.951 136.509 51.0908 136.674 51.1868C136.838 51.2828 137.018 51.3327 137.201 51.3327C137.383 51.3327 137.563 51.2828 137.728 51.1868C137.893 51.0908 138.038 50.951 138.152 50.7777C138.383 50.2463 138.488 49.647 138.456 49.0468V49.025ZM140.131 51.8916V46.1856H140.761V51.2418H142.423V46.1856H143.039V51.2418H144.705V46.1856H145.326V51.2418H145.898V52.9836H145.286V51.8916H140.131ZM146.671 51.8916V46.1856H147.269V50.9087L149.248 46.1856H150.141V51.8916H149.547V46.9774L147.457 51.8916H146.671ZM153.255 51.8916V46.1856H153.853V50.9087L155.828 46.1856H156.721V51.8916H156.127V46.9774L154.041 51.8916H153.255ZM162.89 47.993C162.909 48.2622 162.884 48.5336 162.816 48.7907C162.748 49.0478 162.637 49.2854 162.492 49.4891C162.124 49.8355 161.663 49.9993 161.201 49.9477H160.464V51.8916H159.839V46.1856H161.228C161.681 46.1364 162.133 46.2939 162.496 46.6279C162.638 46.812 162.747 47.0308 162.815 47.2699C162.882 47.5089 162.908 47.7628 162.89 48.0148V47.993ZM162.233 47.993C162.245 47.8336 162.229 47.6728 162.187 47.5213C162.145 47.3698 162.077 47.231 161.987 47.1139C161.748 46.8987 161.452 46.7995 161.156 46.8354H160.464V49.2379H161.067C161.312 49.2547 161.558 49.2139 161.791 49.1178C161.937 49.0477 162.056 48.9133 162.126 48.741C162.202 48.5164 162.239 48.2744 162.233 48.0312V47.993ZM163.841 51.8752V46.1856H166.704V46.8736H164.471V48.5499H166.4V49.2434H164.484V51.22H166.718V51.8916L163.841 51.8752ZM167.303 51.8752L168.902 46.1474H169.715L171.314 51.8916H170.653L170.246 50.4009H168.339L167.937 51.8916L167.303 51.8752ZM168.531 49.6911H170.054L169.295 46.9009L168.531 49.6911ZM172.734 48.5335H173.592C174.06 48.4891 174.528 48.6225 174.932 48.9158C175.08 49.0655 175.196 49.2573 175.269 49.4743C175.342 49.6914 175.371 49.927 175.352 50.1607C175.37 50.4097 175.337 50.6604 175.255 50.8895C175.173 51.1186 175.045 51.3186 174.883 51.4711C174.503 51.7638 174.058 51.905 173.61 51.8752H172.091V46.1856H175.066V46.8354H172.717L172.734 48.5335ZM174.713 50.1716C174.721 49.97 174.679 49.7702 174.593 49.5983C174.51 49.4472 174.387 49.3354 174.244 49.2816C174.01 49.2035 173.768 49.1704 173.525 49.1833H172.734V51.1981H173.391C173.66 51.2129 173.93 51.1779 174.191 51.0944C174.347 51.0424 174.485 50.9292 174.584 50.7722C174.671 50.6064 174.716 50.4125 174.713 50.2153V50.1716ZM176.303 51.8697V46.1856H176.898V50.9087L178.876 46.1856H179.77V51.8916H179.171V46.9774L177.09 51.8916L176.303 51.8697ZM182.36 46.8081V47.1521C182.395 48.3323 182.262 49.511 181.967 50.6357C181.708 51.5039 181.342 51.9353 180.869 51.9353C180.727 51.9365 180.587 51.9088 180.453 51.8534L180.565 51.2418C180.613 51.2634 180.665 51.2745 180.717 51.2746C181.061 51.2746 181.315 50.8924 181.485 50.1279C181.677 49.0524 181.761 47.9522 181.735 46.8518V46.1311H184.308V51.8916H183.687V46.83L182.36 46.8081ZM185.541 51.8697V46.1856H186.139V50.9087L188.114 46.1856H189.007V51.8916H188.422V46.9774L186.327 51.8916L185.541 51.8697ZM191.951 46.83V51.8916H191.33V46.8518H189.775V46.1638H193.505V46.8518L191.951 46.83ZM193.264 51.8697L194.863 46.142H195.676L197.28 51.8916H196.619L196.212 50.4009H194.3L193.903 51.8916L193.264 51.8697ZM194.492 49.6856H196.016L195.252 46.8955L194.492 49.6856ZM198.066 51.8697V46.1856H198.696V51.22H200.733V46.1856H201.349V51.2418H201.916V52.9836H201.309V51.8916L198.066 51.8697ZM202.693 51.8697V46.1856H203.292V50.9087L205.266 46.1856H206.16V51.8916H205.575V46.9774L203.475 51.8916L202.693 51.8697ZM207.406 51.8697V46.1856H208V50.9087L209.979 46.1856H210.872V51.8916H210.274V46.9774L208.192 51.8916L207.406 51.8697ZM214.017 50.6084C214.139 50.8373 214.307 51.025 214.504 51.1544C214.703 51.284 214.926 51.3515 215.151 51.351C215.911 51.351 216.29 50.9797 216.29 50.2317C216.297 50.097 216.28 49.9623 216.24 49.8362C216.201 49.7101 216.141 49.5956 216.063 49.5C215.862 49.3013 215.606 49.2054 215.348 49.2325H214.455V48.6154H215.29C215.529 48.6318 215.767 48.5554 215.969 48.397C216.055 48.3082 216.121 48.1951 216.163 48.0677C216.206 47.9402 216.222 47.8021 216.21 47.6654C216.218 47.537 216.202 47.4081 216.162 47.2888C216.123 47.1694 216.061 47.0628 215.982 46.9774C215.785 46.8046 215.545 46.7198 215.303 46.7371C215.082 46.7336 214.862 46.7742 214.651 46.8573C214.43 46.9485 214.227 47.0975 214.057 47.2941L213.682 46.7098C213.874 46.5141 214.093 46.3624 214.33 46.2621C214.65 46.1356 214.985 46.0783 215.321 46.0928C215.733 46.06 216.142 46.2028 216.478 46.4969C216.618 46.64 216.728 46.8215 216.799 47.0264C216.871 47.2314 216.901 47.454 216.889 47.6763C216.904 47.9599 216.841 48.2416 216.708 48.4755C216.576 48.7094 216.383 48.8818 216.161 48.9649C216.408 49.0489 216.62 49.2439 216.755 49.5109C216.883 49.7632 216.95 50.0549 216.947 50.3518C216.949 50.661 216.874 50.9636 216.733 51.22C216.579 51.4917 216.365 51.704 216.116 51.8315C215.811 51.9889 215.482 52.0652 215.151 52.0554C214.826 52.0618 214.503 51.9837 214.204 51.8261C213.927 51.6734 213.693 51.4247 213.53 51.1108L214.017 50.6084ZM217.501 51.8697L219.109 46.1856H219.922L221.521 51.8916H220.86L220.454 50.4009H218.542L218.144 51.8916L217.501 51.8697ZM218.734 49.6856H220.257L219.493 46.8955L218.734 49.6856ZM225.608 50.188C225.627 50.4304 225.596 50.6747 225.518 50.8988C225.44 51.1228 225.318 51.3196 225.162 51.4711C224.768 51.7668 224.309 51.9061 223.848 51.8697H222.321V46.1856H223.71C224.138 46.1461 224.568 46.2499 224.952 46.486C225.082 46.5964 225.185 46.7472 225.252 46.9228C225.319 47.0983 225.346 47.2924 225.331 47.4852C225.357 47.7725 225.298 48.0617 225.165 48.3002C225.031 48.5387 224.832 48.7106 224.603 48.7847C224.881 48.8179 225.142 48.964 225.345 49.1997C225.445 49.3444 225.52 49.5124 225.565 49.6935C225.61 49.8747 225.625 50.0652 225.608 50.2535V50.188ZM224.675 47.6162C224.684 47.4978 224.669 47.3783 224.63 47.2693C224.591 47.1602 224.529 47.0654 224.451 46.9938C224.204 46.848 223.93 46.7858 223.656 46.8136H222.933V48.5226H223.625C223.907 48.55 224.189 48.4719 224.434 48.2988C224.512 48.2225 224.574 48.125 224.616 48.0142C224.658 47.9033 224.678 47.782 224.675 47.6599V47.6162ZM224.961 50.1552C224.966 49.9633 224.926 49.7737 224.844 49.6092C224.759 49.4648 224.636 49.3592 224.496 49.3089C224.246 49.2354 223.989 49.2042 223.732 49.2161H222.933V51.1927H223.576C223.866 51.2064 224.155 51.1734 224.438 51.0944C224.596 51.045 224.737 50.9315 224.836 50.7722C224.923 50.6005 224.966 50.4009 224.961 50.1989V50.1552ZM226.618 51.8697V46.1856H227.212V50.9087L229.191 46.1856H230.084V51.8916H229.49V46.9774L227.399 51.8916L226.618 51.8697ZM234.922 50.8651C234.803 51.1154 234.653 51.3404 234.475 51.5312C234.314 51.6872 234.131 51.8039 233.934 51.8752C233.698 51.9569 233.452 51.9955 233.206 51.9899C232.919 52.0198 232.629 51.9684 232.36 51.8397C232.092 51.7109 231.851 51.5082 231.656 51.2473C231.33 50.5676 231.158 49.7939 231.158 49.0059C231.158 48.2178 231.33 47.4441 231.656 46.7644C231.847 46.5054 232.084 46.3036 232.349 46.1748C232.614 46.046 232.9 45.9937 233.184 46.0218C233.432 46.0167 233.679 46.0572 233.917 46.142C234.114 46.2152 234.298 46.3318 234.462 46.486C234.627 46.6561 234.763 46.8638 234.864 47.0975L234.35 47.5125C234.27 47.3382 234.169 47.1798 234.051 47.0429C233.942 46.9328 233.818 46.8477 233.684 46.7917C233.523 46.7271 233.354 46.6957 233.184 46.6989C232.986 46.6798 232.788 46.7224 232.608 46.8227C232.427 46.923 232.27 47.0777 232.152 47.2722C231.901 47.795 231.786 48.3985 231.822 49.0031C231.788 49.6051 231.901 50.2057 232.148 50.7285C232.262 50.9311 232.417 51.0944 232.597 51.2025C232.778 51.3105 232.979 51.3598 233.18 51.3456C233.429 51.3591 233.677 51.2858 233.893 51.134C234.11 50.9822 234.287 50.7583 234.403 50.4883L234.922 50.8651ZM235.815 51.8697V46.1856H236.409V50.9087L238.388 46.1856H239.281V51.8916H238.687V46.9774L236.588 51.8916L235.815 51.8697ZM244.092 51.8697V47.1194L242.783 50.3518H242.395L241.113 47.163V51.8916H240.514V46.1856H241.363L242.605 49.3034L243.855 46.1856H244.677V51.8916L244.092 51.8697ZM245.919 51.8697V46.1856H246.544V48.3697H247.313C247.787 48.3251 248.259 48.4792 248.653 48.8066C248.808 48.9804 248.929 49.1951 249.006 49.4344C249.083 49.6737 249.115 49.9314 249.099 50.188C249.118 50.4344 249.087 50.6826 249.009 50.911C248.931 51.1394 248.809 51.3411 248.653 51.4984C248.265 51.8012 247.808 51.9447 247.348 51.908L245.919 51.8697ZM248.438 50.1389C248.449 49.9052 248.41 49.6722 248.327 49.4618C248.245 49.2973 248.118 49.1735 247.969 49.1123C247.724 49.0274 247.469 48.9905 247.214 49.0031H246.544V51.1872H247.308C247.598 51.2071 247.887 51.1237 248.139 50.947C248.233 50.8569 248.308 50.7405 248.358 50.6074C248.408 50.4744 248.431 50.3286 248.425 50.1825L248.438 50.1389ZM249.868 46.142H250.489V51.8916H249.868V46.142ZM251.27 51.8916L252.789 49.0195L251.31 46.1638H252.047L253.155 48.4243L254.299 46.1638H255L253.504 49.014L255 51.9134H254.263L253.128 49.6092L251.967 51.9134L251.27 51.8916Z" fill="#1E1D1D"/>
<defs>
<linearGradient id="paint0_linear" x1="41.0175" y1="66.0603" x2="41.0175" y2="1.75503" gradientUnits="userSpaceOnUse">
<stop stop-color="#29A6DF"/>
<stop offset="1" stop-color="#71CBF4"/>
</linearGradient>
</defs>
</svg>
