<svg width="24" height="25" viewBox="0 0 24 25" fill="none" xmlns="http://www.w3.org/2000/svg">
<circle cx="12" cy="12.5" r="12" fill="#DD053F"/>
<path d="M17 14.96V16.46C17.0006 16.5992 16.972 16.7371 16.9163 16.8647C16.8605 16.9923 16.7786 17.1068 16.676 17.2009C16.5734 17.2951 16.4523 17.3667 16.3204 17.4113C16.1885 17.456 16.0487 17.4725 15.91 17.46C14.3714 17.2928 12.8935 16.7671 11.595 15.925C10.3869 15.1573 9.36267 14.1331 8.595 12.925C7.74999 11.6206 7.22412 10.1355 7.06 8.58999C7.0475 8.45172 7.06393 8.31237 7.10825 8.1808C7.15256 8.04923 7.22378 7.92833 7.31738 7.8258C7.41098 7.72326 7.5249 7.64134 7.65189 7.58525C7.77889 7.52915 7.91617 7.50012 8.055 7.49999H9.555C9.79765 7.4976 10.0329 7.58353 10.2169 7.74175C10.4009 7.89998 10.521 8.11971 10.555 8.35999C10.6183 8.84002 10.7357 9.31135 10.905 9.76499C10.9723 9.94395 10.9868 10.1384 10.947 10.3254C10.9071 10.5124 10.8144 10.684 10.68 10.82L10.045 11.455C10.7568 12.7068 11.7932 13.7432 13.045 14.455L13.68 13.82C13.8159 13.6856 13.9876 13.5929 14.1746 13.553C14.3615 13.5132 14.556 13.5277 14.735 13.595C15.1886 13.7643 15.66 13.8817 16.14 13.945C16.3829 13.9793 16.6047 14.1016 16.7633 14.2887C16.9218 14.4759 17.0061 14.7148 17 14.96Z" stroke="white" stroke-linecap="round" stroke-linejoin="round"/>
</svg>
