<svg width="124" height="50" viewBox="0 0 124 50" fill="none" xmlns="http://www.w3.org/2000/svg">
<path d="M123.999 27.9177C123.999 28.8369 122.919 28.9978 122 28.9978H75.9999C75.1681 28.9978 75.0199 28.9728 74.913 28.1458L73.1125 15.1938L69.4775 48.5186C69.3903 49.3036 68.7558 49.9311 67.9573 49.9912C67.9104 49.993 67.8711 49.9983 67.8214 49.9983C67.0786 49.9983 66.4239 49.5089 66.2274 48.7833L60.8098 29.4702L55.4741 39.6313C55.1541 40.2432 54.4844 40.6146 53.8042 40.5114C53.116 40.4291 52.5569 39.9306 52.3865 39.2616L49.9998 28.9978H1.99985C1.08501 28.9978 0 28.1066 0 27.1892C0 26.2671 1.085 25.9977 1.99985 25.9977H50.9998C51.7621 25.9977 52.5171 26.0426 52.6999 26.7856L54.5544 34.2148L59.8041 24.2258C60.1175 23.6169 60.7723 23.2512 61.4449 23.3398C62.1199 23.4122 62.6851 23.8905 62.8768 24.5443L67.1018 39.6085L71.2681 1.47803C71.3564 0.644007 72.0522 0.0106631 72.8963 -0.00158691C73.832 0.0777331 74.45 0.609014 74.5664 1.44128L77.9998 25.9977H122C122.916 25.9983 123.999 27.0003 123.999 27.9177H123.999Z" fill="#D62C2C"/>
</svg>
