<?xml version="1.0" encoding="UTF-8"?>
<svg xmlns="http://www.w3.org/2000/svg" width="30" height="47" viewBox="0 0 30 47" fill="none">
  <path d="M18.6 43.2H10.9001C10.6001 43.2 10.3 43.5 10.3 43.8C10.3 44.1 10.6001 44.4 10.9001 44.4H18.6C18.9 44.4 19.2001 44.1 19.2001 43.8C19.3001 43.5 19 43.2 18.6 43.2Z" fill="#29A6DF"></path>
  <path d="M26.7 0.900024H2.89999C1.59999 0.900024 0.5 2.00003 0.5 3.30003V44.2C0.5 45.5 1.59999 46.6 2.89999 46.6H26.7C28 46.6 29.1 45.5 29.1 44.2V3.40002C29.1 2.00002 28 0.900024 26.7 0.900024ZM1.70001 6.50002H27.9V40.9H1.70001V6.50002ZM2.89999 2.20002H26.7C27.3 2.20002 27.9 2.70002 27.9 3.40002V5.20002H1.70001V3.40002C1.70001 2.70002 2.19999 2.20002 2.89999 2.20002ZM26.7 45.5H2.89999C2.29999 45.5 1.70001 45 1.70001 44.3V42.1H27.9V44.3C27.9 44.9 27.4 45.5 26.7 45.5Z" fill="#29A6DF"></path>
  <path d="M5.39993 4.40002C5.59993 4.40002 5.69993 4.30002 5.79993 4.20002C5.89993 4.10002 5.99994 3.90002 5.99994 3.70002C5.99994 3.50002 5.89993 3.40002 5.79993 3.30002C5.59993 3.10002 5.09993 3.10002 4.89993 3.30002C4.79993 3.40002 4.69995 3.60002 4.69995 3.80002C4.69995 4.00002 4.79993 4.10002 4.89993 4.30002C5.09993 4.40002 5.29993 4.40002 5.39993 4.40002Z" fill="#29A6DF"></path>
  <path d="M19.4 14.8C17.5 14.8 15.8 15.8 14.8 17.3C13.8 15.8 12.1 14.8 10.2 14.8C7.10001 14.8 4.5 17.7 4.5 21.1C4.5 27.6 12.2 31.7 14.5 32.7C14.6 32.7 14.7 32.8 14.8 32.8C14.9 32.8 15 32.8 15.1 32.7C21.4 29.9 25.1 25.5 25.1 21C25.1 17.7 22.4 14.8 19.4 14.8ZM14.8 31.5C12.4 30.3 5.79999 26.7 5.79999 21.1C5.79999 18.4 7.90001 16 10.2 16C12.3 16 13.8 17.5 14.2 19C14.3 19.3 14.5 19.5 14.8 19.5C15.1 19.5 15.3 19.3 15.4 19C15.8 17.5 17.3 16 19.4 16C21.8 16 23.8 18.4 23.8 21.1C23.8 25.7 19.2 29.5 14.8 31.5Z" fill="#29A6DF"></path>
</svg>
