<?xml version="1.0" encoding="UTF-8"?>
<svg xmlns="http://www.w3.org/2000/svg" width="20" height="48" viewBox="0 0 20 48" fill="none">
  <path d="M19.3 1.10001C19.3 0.800006 19 0.5 18.7 0.5C18.4 0.5 18.1 0.800006 18.1 1.10001C18.1 1.90001 18 2.69999 17.8 3.39999H17.7L1.79999 4.2C1.39999 3.3 1.20001 2.2 1.20001 1C1.20001 0.7 0.900006 0.399994 0.600006 0.399994C0.300006 0.399994 0 0.7 0 1C0 6.8 4.20001 9.80001 8.60001 12.6C4.30001 15.4 0 18.4 0 24.2C0 30 4.20001 33 8.60001 35.8C4.30001 38.6 0 41.6 0 47.4C0 47.7 0.300006 48 0.600006 48C0.900006 48 1.20001 47.7 1.20001 47.4C1.20001 46.2 1.39999 45.2 1.79999 44.2L17.7 45H17.8C18 45.7 18.1 46.5 18.1 47.3C18.1 47.6 18.4 47.9 18.7 47.9C19 47.9 19.3 47.6 19.3 47.3C19.3 41.5 15.1 38.5 10.7 35.7C15 32.9 19.3 29.9 19.3 24.1C19.3 18.3 15.1 15.3 10.7 12.5C15.1 9.8 19.3 6.80001 19.3 1.10001ZM2.29999 5.39999L17.4 4.60001C17 5.40001 16.5 6.19999 16 6.89999C15.9 6.89999 15.9 6.89999 15.8 6.89999L4.60001 8H4.5C3.5 7.3 2.79999 6.39999 2.29999 5.39999ZM14.6 8.3C13.2 9.6 11.4 10.7 9.60001 11.9C8.20001 11 6.90001 10.1 5.70001 9.2L14.6 8.3ZM9.60001 13.4C11.2 14.4 12.8 15.4 14.1 16.6L6 15.8C7.2 14.9 8.40001 14.2 9.60001 13.4ZM4.70001 16.9L15.5 18C15.5 18 15.5 18 15.6 18C16.2 18.7 16.7 19.4 17.1 20.1L2.60001 19.3C3.10001 18.4 3.90001 17.6 4.70001 16.9ZM18 23.6H1.10001C1.20001 22.5 1.39999 21.5 1.79999 20.6L17.3 21.4C17.4 21.4 17.4 21.4 17.5 21.4C17.8 22 18 22.8 18 23.6ZM17.6 27C17.5 27 17.4 27 17.3 27L1.79999 27.8C1.39999 26.9 1.20001 25.9 1.10001 24.8H18C18 25.6 17.8 26.3 17.6 27ZM2.5 29L17 28.2C16.6 29 16.1 29.7 15.5 30.4C15.5 30.4 15.5 30.4 15.4 30.4L4.60001 31.5C3.80001 30.7 3.1 29.9 2.5 29ZM14.1 31.8C12.8 32.9 11.2 34 9.60001 35C8.40001 34.2 7.20001 33.4 6.10001 32.6L14.1 31.8ZM9.60001 36.5C11.4 37.6 13.1 38.8 14.6 40.1L5.70001 39.2C6.90001 38.3 8.20001 37.4 9.60001 36.5ZM2.29999 42.9C2.79999 41.9 3.59999 41.1 4.39999 40.3H4.5L15.7 41.4C15.7 41.4 15.7 41.4 15.8 41.4H15.9C16.5 42.1 17 42.9 17.3 43.7L2.29999 42.9Z" fill="#29A6DF"></path>
</svg>
