<?xml version="1.0" encoding="UTF-8"?>
<svg xmlns="http://www.w3.org/2000/svg" width="58" height="67" viewBox="0 0 58 67" fill="none">
  <path d="M55.8333 0C47.4126 0 41.0055 5.30874 38.2596 11.1667C35.3306 5.30874 29.1066 0 20.6858 0C9.51913 0 0 10.6175 0 23.0656C0 47.4126 28.9235 62.6066 37.7104 66.8169C37.8935 66.8169 38.0765 67 38.2596 67C38.4426 67 38.6257 67 38.8087 66.8169C47.5956 62.7896 76.5191 47.7787 76.5191 23.0656C76.5191 10.6175 67 0 55.8333 0ZM38.2596 64.6202C30.2049 60.776 8.05465 48.877 3.29509 30.388H23.2486L25.8115 41.1885C25.9945 41.7377 26.3607 42.1038 26.9098 42.1038C27.459 42.1038 27.8251 41.7377 28.0082 41.1885L32.5847 24.7131L38.6257 46.6803C38.8088 47.2295 39.1749 47.5956 39.724 47.5956C40.2732 47.5956 40.6394 47.2295 40.8224 46.6803L47.0464 21.7842L49.4262 29.4727C49.6093 30.0219 49.9754 30.2049 50.5246 30.2049H73.4071C68.4645 49.0601 46.3142 60.776 38.2596 64.6202ZM73.7732 28.0082H51.2568L47.9617 17.0246C47.7787 16.4754 47.4126 16.1093 46.8634 16.2924C46.3142 16.2924 45.9481 16.6585 45.765 17.2077L39.724 41.9208L33.6831 20.1366C33.5 19.5874 33.1339 19.2213 32.5847 19.2213C32.0355 19.2213 31.6694 19.5874 31.4863 20.1366L27.0929 36.2459L25.2623 28.9235C25.0792 28.3743 24.7131 28.0082 24.1639 28.0082H2.7459C2.37978 26.3607 2.37979 24.8962 2.37979 23.0656C2.37979 11.8989 10.9836 2.19672 20.6858 2.19672C29.2896 2.19672 35.5137 8.42077 37.1612 14.6448C37.3443 15.194 37.7104 15.5601 38.2596 15.5601C38.8087 15.5601 39.1749 15.194 39.3579 14.6448C41.0055 8.42077 47.2295 2.19672 55.8333 2.19672C65.5355 2.19672 74.1394 11.8989 74.1394 23.0656C74.1394 24.8962 73.9563 26.5437 73.7732 28.0082Z" fill="#29A6DF"></path>
</svg>
