<?xml version="1.0" encoding="UTF-8"?>
<svg xmlns="http://www.w3.org/2000/svg" width="35" height="44" viewBox="0 0 35 44" fill="none">
  <path d="M29 13.4L30.3 11.9L30.5 12.1C30.6 12.2 30.8 12.3 30.9 12.3C31.1 12.3 31.3 12.2 31.4 12.1C31.6 11.8 31.6 11.4 31.3 11.2L30 10.1C29.7 9.90001 29.3 9.90001 29.1 10.2C28.9 10.5 28.9 10.9 29.2 11.1L29.4 11.3L28.1 12.9C25.4 10.8 22 9.49999 18.3 9.39999V8C20 7.7 21.3 6.19999 21.3 4.39999C21.3 2.39999 19.7 0.700012 17.6 0.700012C15.6 0.700012 13.9 2.29999 13.9 4.39999C13.9 6.19999 15.2 7.7 16.9 8V9.39999C13.2 9.49999 9.80004 10.8 7.10004 12.9L5.80002 11.3L6.00003 11.1C6.30003 10.9 6.30004 10.5 6.10004 10.2C5.90004 9.90001 5.50004 9.90001 5.20004 10.1L3.90002 11.2C3.60002 11.4 3.60002 11.8 3.80002 12.1C3.90002 12.2 4.10002 12.3 4.30002 12.3C4.40002 12.3 4.60004 12.2 4.70004 12.1L4.90002 11.9L6.20004 13.4C2.70004 16.5 0.400024 21.1 0.400024 26.2C0.400024 35.7 8.10004 43.4 17.6 43.4C27.1 43.4 34.8 35.7 34.8 26.2C34.8 21.1 32.5 16.5 29 13.4ZM15.2 4.10001C15.2 2.80001 16.3 1.70001 17.6 1.70001C18.9 1.70001 20 2.80001 20 4.10001C20 5.40001 18.9 6.5 17.6 6.5C16.3 6.5 15.2 5.40001 15.2 4.10001ZM17.6 42.1C8.80004 42.1 1.70004 35 1.70004 26.2C1.70004 17.4 8.80004 10.3 17.6 10.3C26.4 10.3 33.5 17.4 33.5 26.2C33.5 35 26.4 42.1 17.6 42.1Z" fill="#29A6DF"></path>
  <path d="M17.6 13C10.3 13 4.40002 18.9 4.40002 26.2C4.40002 33.5 10.3 39.4 17.6 39.4C24.9 39.4 30.8 33.5 30.8 26.2C30.8 18.9 24.9 13 17.6 13ZM17.6 38.1C11 38.1 5.70004 32.8 5.70004 26.2C5.70004 19.6 11 14.3 17.6 14.3C24.2 14.3 29.5 19.6 29.5 26.2C29.5 32.8 24.2 38.1 17.6 38.1Z" fill="#29A6DF"></path>
  <path d="M25.1 21.1L17.3 25.6C17 25.8 16.9 26.2 17.1 26.5C17.2 26.7 17.4 26.8 17.6 26.8C17.7 26.8 17.8 26.8 17.9 26.7L25.7 22.2C26 22 26.1 21.6 25.9 21.3C25.8 21.1 25.4 21 25.1 21.1Z" fill="#29A6DF"></path>
</svg>
