<?xml version="1.0" encoding="UTF-8"?>
<svg xmlns="http://www.w3.org/2000/svg" width="61" height="81" viewBox="0 0 61 81" fill="none">
  <path d="M6.13365 17.3186H43.657C44.1982 17.3186 44.7395 16.7774 44.7395 16.2362C44.7395 15.695 44.1982 15.1538 43.657 15.1538H6.13365C5.59244 15.1538 5.05123 15.695 5.05123 16.2362C4.87083 16.7774 5.41204 17.3186 6.13365 17.3186Z" fill="#29A6DF"></path>
  <path d="M6.13362 24.354H43.657C44.1982 24.354 44.7394 23.8128 44.7394 23.2716C44.7394 22.7304 44.1982 22.1892 43.657 22.1892H6.13362C5.59242 22.1892 5.05121 22.7304 5.05121 23.2716C5.05121 23.8128 5.41202 24.354 6.13362 24.354Z" fill="#29A6DF"></path>
  <path d="M6.13365 31.5702H43.657C44.1982 31.5702 44.7395 31.029 44.7395 30.4878C44.7395 29.9465 44.1982 29.4053 43.657 29.4053H6.13365C5.59244 29.4053 5.05123 29.9465 5.05123 30.4878C4.87083 31.029 5.41204 31.5702 6.13365 31.5702Z" fill="#29A6DF"></path>
  <path d="M6.13365 38.6058H43.657C44.1982 38.6058 44.7395 38.0645 44.7395 37.5233C44.7395 36.9821 44.1982 36.441 43.657 36.441H6.13365C5.59244 36.441 5.05123 36.9821 5.05123 37.5233C4.87083 38.0645 5.41204 38.6058 6.13365 38.6058Z" fill="#29A6DF"></path>
  <path d="M6.13365 45.8218H29.5858C30.127 45.8218 30.6682 45.2805 30.6682 44.7393C30.6682 44.1981 30.127 43.657 29.5858 43.657H6.13365C5.59244 43.657 5.05123 44.1981 5.05123 44.7393C4.87083 45.2805 5.41204 45.8218 6.13365 45.8218Z" fill="#29A6DF"></path>
  <path d="M23.9933 50.6925H6.13362C5.59242 50.6925 5.05121 51.2338 5.05121 51.775C5.05121 52.3162 5.59242 52.8573 6.13362 52.8573H23.9933C24.5345 52.8573 25.0757 52.3162 25.0757 51.775C25.0757 51.2338 24.5345 50.6925 23.9933 50.6925Z" fill="#29A6DF"></path>
  <path d="M49.6102 43.657V4.51002C49.6102 1.98441 47.4454 0 44.9198 0H4.69043C2.16482 0 0 2.16482 0 4.69043V58.4499C0 62.2383 3.0668 65.4855 7.03562 65.4855H28.5033C30.1269 74.3251 37.7037 81 46.9042 81C57.187 81 65.6659 72.5211 65.6659 62.2383C65.6659 52.8574 58.6302 44.9198 49.6102 43.657ZM4.69043 2.16483H44.9198C46.1826 2.16483 47.265 3.24721 47.265 4.51002C47.265 5.77283 46.1826 6.85521 44.9198 6.85521H4.69043C3.42763 6.85521 2.34519 5.77283 2.34519 4.51002C2.34519 3.24721 3.24723 2.16483 4.69043 2.16483ZM7.03562 63.1403C4.51001 63.1403 2.34519 60.9755 2.34519 58.4499V8.47886C3.06679 8.83966 3.78843 9.20045 4.69043 9.20045H44.9198C45.8218 9.20045 46.5434 9.02006 47.265 8.47886V43.4766C47.0846 43.4766 47.0846 43.4766 46.9042 43.4766C36.6213 43.4766 28.1425 51.9554 28.1425 62.2383C28.1425 62.5991 28.1425 62.9599 28.1425 63.1403H7.03562ZM46.9042 78.6547C37.8841 78.6547 30.4877 71.2583 30.4877 62.2383C30.4877 53.2182 37.8841 45.8218 46.9042 45.8218C55.9242 45.8218 63.3207 53.2182 63.3207 62.2383C63.3207 71.2583 55.9242 78.6547 46.9042 78.6547Z" fill="#29A6DF"></path>
  <path d="M12.9888 5.77291C13.7104 5.77291 14.2517 5.23168 14.2517 4.51008C14.2517 3.78848 13.7104 3.24725 12.9888 3.24725C12.2672 3.24725 11.7261 3.78848 11.7261 4.51008C11.7261 5.23168 12.2672 5.77291 12.9888 5.77291Z" fill="#29A6DF"></path>
  <path d="M36.6214 5.77291C37.343 5.77291 37.8841 5.23168 37.8841 4.51008C37.8841 3.78848 37.343 3.24725 36.6214 3.24725C35.8998 3.24725 35.3586 3.78848 35.3586 4.51008C35.3586 5.23168 35.8998 5.77291 36.6214 5.77291Z" fill="#29A6DF"></path>
  <path d="M24.7148 5.77291C25.4364 5.77291 25.9777 5.23168 25.9777 4.51008C25.9777 3.78848 25.4364 3.24725 24.7148 3.24725C23.9932 3.24725 23.4521 3.78848 23.4521 4.51008C23.4521 5.23168 24.1736 5.77291 24.7148 5.77291Z" fill="#29A6DF"></path>
  <path d="M56.4655 57.9086H51.2338V52.677C51.2338 52.1358 50.6927 51.5945 50.1515 51.5945H43.8374C43.2962 51.5945 42.755 52.1358 42.755 52.677V57.9086H37.5234C36.9822 57.9086 36.4409 58.4498 36.4409 58.991V65.3051C36.4409 65.8463 36.9822 66.3874 37.5234 66.3874H42.755V71.6191C42.755 72.1603 43.2962 72.7015 43.8374 72.7015H50.1515C50.6927 72.7015 51.2338 72.1603 51.2338 71.6191V66.3874H56.4655C57.0067 66.3874 57.5478 65.8463 57.5478 65.3051V58.991C57.5478 58.4498 57.0067 57.9086 56.4655 57.9086ZM55.2027 64.2226H48.8886V70.5366H44.9198V64.2226H38.6058V60.2539H44.9198V53.9398H48.8886V60.2539H55.2027V64.2226Z" fill="#29A6DF"></path>
</svg>
