<?xml version="1.0" encoding="UTF-8"?>
<svg xmlns="http://www.w3.org/2000/svg" width="49" height="26" viewBox="0 0 49 26" fill="none">
  <path d="M45.9 9.7L35.4 2.3C35.2 1.3 34.3 0.5 33.3 0.5H2.2C0.999997 0.5 0 1.5 0 2.7V20.4C0 21.6 0.999997 22.6 2.2 22.6H5.5C5.8 24.5 7.5 26 9.5 26C11.5 26 13.2 24.5 13.5 22.6H32.2C32.5 24.5 34.2 26 36.2 26C38.2 26 39.9 24.5 40.2 22.6H46.2C47.4 22.6 48.4 21.6 48.4 20.4V14.5C48.4 12.6 47.5 10.8 45.9 9.7ZM9.5 24.6C8 24.6 6.7 23.3 6.7 21.8C6.7 20.3 8 19 9.5 19C11 19 12.3 20.3 12.3 21.8C12.3 23.4 11 24.6 9.5 24.6ZM36.1 24.6C34.6 24.6 33.3 23.3 33.3 21.8C33.3 20.3 34.6 19 36.1 19C37.6 19 38.9 20.3 38.9 21.8C38.9 23.4 37.7 24.6 36.1 24.6ZM46.2 21.2H40.2C39.9 19.3 38.2 17.8 36.2 17.8C34.2 17.8 32.5 19.3 32.2 21.2H13.5C13.2 19.3 11.5 17.8 9.5 17.8C7.5 17.8 5.8 19.3 5.5 21.2H2.3C1.8 21.2 1.4 20.8 1.4 20.3V12.1H11.5C11.8 12.1 12.1 11.8 12.1 11.5C12.1 11.2 11.8 10.9 11.5 10.9H1.3V2.7C1.3 2.2 1.7 1.8 2.2 1.8H33.3C33.8 1.8 34.2 2.2 34.2 2.7C34.2 2.9 34.3 3.1 34.5 3.2L45.2 10.8C46.1 11.5 46.8 12.5 47 13.6H36.5V9.89999C36.5 9.59999 36.2 9.3 35.9 9.3C35.6 9.3 35.3 9.59999 35.3 9.89999V14.2C35.3 14.5 35.6 14.8 35.9 14.8H47.1V20.3C47.1 20.8 46.7 21.2 46.2 21.2Z" fill="#29A6DF"></path>
  <path d="M33.2 10.9H28.5C28.2 10.9 27.9 11.2 27.9 11.5C27.9 11.8 28.2 12.1 28.5 12.1H33.2C33.5 12.1 33.8 11.8 33.8 11.5C33.8 11.2 33.5 10.9 33.2 10.9Z" fill="#29A6DF"></path>
  <path d="M24.7 9.3H22.1V6.7C22.1 6.4 21.8 6.10001 21.5 6.10001H18.3C18 6.10001 17.7 6.4 17.7 6.7V9.3H15.1C14.8 9.3 14.5 9.59999 14.5 9.89999V13.1C14.5 13.4 14.8 13.7 15.1 13.7H17.7V16.2C17.7 16.5 18 16.8 18.3 16.8H21.5C21.8 16.8 22.1 16.5 22.1 16.2V13.7H24.7C25 13.7 25.3 13.4 25.3 13.1V9.89999C25.3 9.59999 25 9.3 24.7 9.3ZM24 12.4H22.1H20.8V13.7V15.6H18.9V13.7V12.4H17.6H15.7V10.5H17.6H18.9V9.2V7.3H20.8V9.2V10.5H22.1H24V12.4Z" fill="#29A6DF"></path>
</svg>
