<?xml version="1.0" encoding="UTF-8"?>
<svg xmlns="http://www.w3.org/2000/svg" width="40" height="81" viewBox="0 0 40 81" fill="none">
  <path d="M29.1879 45.91C27.2116 44.6938 25.9955 42.5656 25.9955 40.2853V19.0025C27.0596 18.5464 27.8197 17.9383 27.8197 17.0262C27.8197 14.8979 23.5632 13.9858 20.0667 13.9858C16.4182 13.9858 12.3137 14.7459 12.3137 17.0262C12.3137 17.9383 13.0738 18.5464 14.1379 19.0025V40.4373C14.1379 42.7176 12.9217 44.8459 10.9455 46.062C4.56064 50.1666 0.152051 58.0716 3.05176e-05 65.8247C3.05176e-05 70.3853 1.67226 74.6418 4.86468 77.8342C6.5369 79.5065 8.96921 80.5706 11.5536 80.5706H28.7318C31.1642 80.5706 33.5965 79.6585 35.1167 78.1383C38.3091 75.0979 39.9813 70.9934 39.9813 66.1287C40.1333 58.0716 35.7248 50.0145 29.1879 45.91ZM19.9147 15.81C22.9551 15.81 25.0834 16.4181 25.6914 16.8742C25.0834 17.3303 22.9551 17.9383 19.9147 17.9383C16.8743 17.9383 14.746 17.3303 14.1379 16.8742C14.746 16.4181 16.8743 15.81 19.9147 15.81ZM33.9005 76.4661C32.5323 77.6822 30.7081 78.4424 28.7318 78.4424H11.2495C9.12124 78.4424 7.297 77.6822 5.92882 76.314C3.04044 73.4257 1.52023 69.6251 1.52023 65.6726C1.67225 58.5277 5.62477 51.2307 11.5536 47.4302C14.1379 45.758 15.6581 43.0216 15.6581 40.1333V19.3065C16.8743 19.6105 18.3945 19.6105 19.7626 19.6105C21.1308 19.6105 22.651 19.4585 23.8672 19.3065V40.1333C23.8672 43.0216 25.3874 45.758 27.9717 47.4302C34.0525 51.2307 38.0051 58.6797 38.0051 65.8247C38.1571 70.2332 36.7889 73.8817 33.9005 76.4661Z" fill="#29A6DF"></path>
  <path d="M28.2757 60.3519C26.9075 60.3519 26.1474 61.1121 25.5394 61.7201C25.0833 62.1762 24.7793 62.4802 24.1712 62.4802C23.5631 62.4802 23.2591 62.1762 22.803 61.7201C22.1949 61.1121 21.4348 60.3519 20.0666 60.3519C18.6985 60.3519 17.9384 61.1121 17.3303 61.7201C16.8742 62.1762 16.5702 62.4802 15.9621 62.4802C15.354 62.4802 15.05 62.1762 14.5939 61.7201C13.9858 61.1121 13.2257 60.3519 11.8576 60.3519C10.4894 60.3519 9.72926 61.1121 9.12118 61.7201C8.66512 62.1762 8.36108 62.4802 7.753 62.4802C7.14492 62.4802 6.84089 62.1762 6.38483 61.7201C6.08079 61.4161 5.77674 61.1121 5.32068 60.808C4.86462 60.504 4.25654 60.656 3.9525 61.112C3.64846 61.5681 3.80048 62.1762 4.25654 62.4802C4.40856 62.6323 4.71261 62.7843 4.86463 63.0883C5.47271 63.6964 6.2328 64.4565 7.60098 64.4565C9.12118 64.4565 9.88129 63.6964 10.3373 63.0883C10.7934 62.6323 11.0975 62.3282 11.7055 62.3282C12.3136 62.3282 12.6176 62.6323 13.0737 63.0883C13.6818 63.6964 14.4419 64.4565 15.8101 64.4565C17.3303 64.4565 18.0904 63.6964 18.5464 63.0883C19.0025 62.6323 19.3065 62.3282 19.9146 62.3282C20.5227 62.3282 20.8267 62.6323 21.2828 63.0883C21.8909 63.6964 22.651 64.4565 24.0192 64.4565C25.3873 64.4565 26.1474 63.6964 26.7555 63.0883C27.2116 62.6323 27.5156 62.3282 28.1237 62.3282C28.7318 62.3282 29.0358 62.6323 29.4919 63.0883C30.1 63.6964 30.8601 64.4565 32.2282 64.4565C33.5964 64.4565 34.3565 63.6964 34.9646 63.0883C35.2686 62.7843 35.4207 62.6323 35.5727 62.4802C36.0287 62.1762 36.1808 61.5681 35.8767 61.112C35.5727 60.656 34.9646 60.504 34.5086 60.808C34.0525 61.1121 33.7484 61.4161 33.4444 61.7201C32.9883 62.1762 32.6843 62.4802 32.0762 62.4802C31.4681 62.4802 31.1641 62.1762 30.708 61.7201C30.404 61.1121 29.6439 60.3519 28.2757 60.3519Z" fill="#29A6DF"></path>
  <path d="M24.3232 7.60101C26.4515 7.60101 28.1237 5.92878 28.1237 3.8005C28.1237 1.67222 26.4515 0 24.3232 0C22.195 0 20.5227 1.67222 20.5227 3.8005C20.5227 5.77676 22.195 7.60101 24.3232 7.60101ZM24.3232 1.97624C25.3874 1.97624 26.1475 2.73636 26.1475 3.8005C26.1475 4.86464 25.3874 5.62472 24.3232 5.62472C23.2591 5.62472 22.499 4.86464 22.499 3.8005C22.499 2.73636 23.2591 1.97624 24.3232 1.97624Z" fill="#29A6DF"></path>
  <path d="M18.6986 12.6176C20.2188 12.6176 21.2829 11.4015 21.2829 10.0333C21.2829 8.51313 20.0667 7.44897 18.6986 7.44897C17.1784 7.44897 16.1142 8.66515 16.1142 10.0333C16.1142 11.4015 17.3304 12.6176 18.6986 12.6176ZM18.6986 9.27323C19.1546 9.27323 19.4587 9.57727 19.4587 10.0333C19.4587 10.4894 19.1546 10.7934 18.6986 10.7934C18.2425 10.7934 17.9385 10.4894 17.9385 10.0333C17.9385 9.57727 18.2425 9.27323 18.6986 9.27323Z" fill="#29A6DF"></path>
</svg>
