<?xml version="1.0" encoding="UTF-8"?>
<svg xmlns="http://www.w3.org/2000/svg" width="54" height="74" viewBox="0 0 54 74" fill="none">
  <path d="M40.2315 44.0399C39.7376 43.7124 39.0792 43.8761 38.7499 44.3673C38.4207 44.8584 38.5853 45.5133 39.0791 45.8407C45.4996 50.2611 50.2737 54.0266 51.4261 61.7213C52.0846 65.6505 51.92 67.9425 50.7676 69.2522C48.2982 72.0354 40.5608 72.0354 26.5675 72.0354H25.9091V55.6637C25.9091 55.1726 25.4152 54.6815 24.9213 54.6815C24.4274 54.6815 23.9335 55.1726 23.9335 55.6637V72.0354H23.275C9.11717 72.0354 1.37974 72.0354 -0.925028 69.2522C-2.07741 67.9425 -2.24204 65.6505 -1.41891 61.7213C-0.101902 54.5177 3.6845 50.9159 10.9281 45.8407C11.4219 45.5133 11.5866 44.8584 11.2573 44.3673C10.9281 43.8761 10.2696 43.7124 9.77568 44.0399C3.19063 48.4602 -1.91277 52.5531 -3.55903 61.2301C-4.38216 65.8142 -4.05293 68.5973 -2.57129 70.3982C0.391982 74 8.12941 74 23.275 74H26.7322C41.8778 74 49.4506 74 52.4139 70.3982C54.0601 68.5973 54.3894 65.8142 53.5663 61.2301C52.2493 52.7169 46.9812 48.6239 40.2315 44.0399Z" fill="#29A6DF"></path>
  <path d="M24.9213 46.9867C32.6588 46.9867 40.3962 37.1637 40.3962 27.177C40.3962 26.3584 40.3962 25.5398 40.2316 24.885C40.3962 24.7212 40.3962 24.5576 40.3962 24.3938V4.25665C40.3962 3.92921 40.2316 3.60178 39.9023 3.43806C39.7377 3.27434 34.305 0 24.9213 0C15.5376 0 10.2696 3.27434 9.94036 3.43806C9.6111 3.60178 9.44647 3.92921 9.44647 4.25665V24.3938C9.44647 24.5576 9.44648 24.7212 9.61111 24.885C9.44648 25.7035 9.44647 26.3584 9.44647 27.177C9.44647 37.3274 17.0193 46.9867 24.9213 46.9867ZM24.9213 45.0221C18.1717 45.0221 11.5866 36.1814 11.5866 27.3407C11.5866 26.6859 11.5866 25.8673 11.7512 25.2124C13.3975 24.885 17.5132 24.0664 25.086 24.0664C32.6588 24.0664 36.7744 24.885 38.4207 25.2124C38.4207 25.8673 38.5853 26.5221 38.5853 27.3407C38.4207 36.0177 31.671 45.0221 24.9213 45.0221ZM11.5866 4.9115C13.0683 4.09292 17.6778 2.12835 24.9213 2.12835C32.1649 2.12835 36.9391 4.25664 38.4207 4.9115V23.0841C36.4452 22.5929 32.3295 21.9381 25.086 21.9381C17.8424 21.9381 13.7267 22.5929 11.7512 23.0841V4.9115H11.5866Z" fill="#29A6DF"></path>
  <path d="M30.1893 59.9204V65.9778C30.1893 66.469 30.6831 66.9602 31.177 66.9602H41.7131C42.207 66.9602 42.7008 66.469 42.7008 65.9778V59.9204C42.7008 59.4293 42.207 58.938 41.7131 58.938H31.177C30.6831 58.938 30.1893 59.2655 30.1893 59.9204ZM32.3294 60.9027H40.7253V64.8319H32.3294V60.9027Z" fill="#29A6DF"></path>
  <path d="M28.2138 18.9911V15.5531H31.6709C32.1648 15.5531 32.6587 15.062 32.6587 14.5708V10.1505C32.6587 9.6593 32.1648 9.16814 31.6709 9.16814H28.2138V5.73008C28.2138 5.23893 27.7199 4.74782 27.226 4.74782H22.7811C22.2872 4.74782 21.7934 5.23893 21.7934 5.73008V9.16814H18.3362C17.8423 9.16814 17.3484 9.6593 17.3484 10.1505V14.5708C17.3484 15.062 17.8423 15.5531 18.3362 15.5531H21.7934V18.9911C21.7934 19.4823 22.2872 19.9735 22.7811 19.9735H27.226C27.7199 19.9735 28.2138 19.4823 28.2138 18.9911ZM26.2383 18.0088H23.7689V13.5885H19.324V11.1328H23.7689V6.71239H26.2383V11.1328H30.6832V13.5885H26.2383V18.0088Z" fill="#29A6DF"></path>
</svg>
