<?xml version="1.0" encoding="UTF-8"?>
<svg xmlns="http://www.w3.org/2000/svg" width="54" height="50" viewBox="0 0 54 50" fill="none">
  <path d="M49.0413 18.0392L28.2149 3.52942C27.8182 1.56863 26.0331 0 24.0496 0H-37.6364C-40.0165 0 -42 1.96078 -42 4.31372V39.0196C-42 41.3725 -40.0165 43.3333 -37.6364 43.3333H-31.0909C-30.4959 47.0588 -27.124 50 -23.157 50C-19.1901 50 -15.8182 47.0588 -15.2231 43.3333H21.8678C22.4628 47.0588 25.8347 50 29.8016 50C33.7686 50 37.1405 47.0588 37.7355 43.3333H49.6364C52.0165 43.3333 54 41.3725 54 39.0196V27.451C54 23.7255 52.2149 20.1961 49.0413 18.0392ZM-23.157 47.2549C-26.1322 47.2549 -28.7108 44.7059 -28.7108 41.7647C-28.7108 38.8235 -26.1322 36.2745 -23.157 36.2745C-20.1818 36.2745 -17.6033 38.8235 -17.6033 41.7647C-17.6033 44.902 -20.1818 47.2549 -23.157 47.2549ZM29.6033 47.2549C26.6281 47.2549 24.0496 44.7059 24.0496 41.7647C24.0496 38.8235 26.6281 36.2745 29.6033 36.2745C32.5785 36.2745 35.157 38.8235 35.157 41.7647C35.157 44.902 32.7769 47.2549 29.6033 47.2549ZM49.6364 40.5882H37.7355C37.1405 36.8627 33.7686 33.9216 29.8016 33.9216C25.8347 33.9216 22.4628 36.8627 21.8678 40.5882H-15.2231C-15.8182 36.8627 -19.1901 33.9216 -23.157 33.9216C-27.124 33.9216 -30.4959 36.8627 -31.0909 40.5882H-37.438C-38.4297 40.5882 -39.2231 39.8039 -39.2231 38.8235V22.7451H-19.1901C-18.595 22.7451 -18 22.1569 -18 21.5686C-18 20.9804 -18.595 20.3921 -19.1901 20.3921H-39.4215V4.31372C-39.4215 3.33333 -38.6281 2.54903 -37.6364 2.54903H24.0496C25.0413 2.54903 25.8347 3.33333 25.8347 4.31372C25.8347 4.70588 26.0331 5.09803 26.4297 5.29411L47.6529 20.1961C49.438 21.5686 50.8264 23.5294 51.2231 25.6863H30.3967V18.4314C30.3967 17.8431 29.8017 17.2549 29.2066 17.2549C28.6116 17.2549 28.0165 17.8431 28.0165 18.4314V26.8627C28.0165 27.451 28.6116 28.0392 29.2066 28.0392H51.4215V38.8235C51.4215 39.8039 50.6281 40.5882 49.6364 40.5882Z" fill="#29A6DF"></path>
  <path d="M23.8513 20.3921H14.5289C13.9339 20.3921 13.3389 20.9803 13.3389 21.5686C13.3389 22.1568 13.9339 22.7451 14.5289 22.7451H23.8513C24.4463 22.7451 25.0413 22.1568 25.0413 21.5686C25.0413 20.9803 24.4463 20.3921 23.8513 20.3921Z" fill="#29A6DF"></path>
  <path d="M6.99171 17.2549H1.83469V12.1569C1.83469 11.5686 1.23965 10.9804 0.644612 10.9804H-5.70249C-6.29753 10.9804 -6.89258 11.5686 -6.89258 12.1569V17.2549H-12.0496C-12.6446 17.2549 -13.2397 17.8431 -13.2397 18.4314V24.7059C-13.2397 25.2941 -12.6446 25.8824 -12.0496 25.8824H-6.89258V30.7843C-6.89258 31.3726 -6.29753 31.9608 -5.70249 31.9608H0.644612C1.23965 31.9608 1.83469 31.3726 1.83469 30.7843V25.8824H6.99171C7.58675 25.8824 8.18181 25.2941 8.18181 24.7059V18.4314C8.18181 17.8431 7.58675 17.2549 6.99171 17.2549ZM5.60329 23.3333H1.83469H-0.743812V25.8824V29.6079H-4.51241V25.8824V23.3333H-7.09093H-10.8595V19.6079H-7.09093H-4.51241V17.0588V13.3334H-0.743812V17.0588V19.6079H1.83469H5.60329V23.3333Z" fill="#29A6DF"></path>
</svg>
