<?xml version="1.0" encoding="UTF-8"?>
<svg xmlns="http://www.w3.org/2000/svg" width="58" height="100" viewBox="0 0 58 100" fill="none">
  <path d="M-0.114281 67.3545L-2.83239 69.3879C-7.82537 72.8613 -9.06828 79.7103 -5.58456 84.5535C-3.99034 86.8642 -1.43597 88.5068 1.48803 89.0374C4.41203 89.5681 7.21831 88.8982 9.68521 87.3246L25.0482 76.6372C22.0657 74.5799 19.3639 71.8999 17.2383 68.8191C16.0427 67.0861 15.039 65.2196 14.1979 63.3825C14.065 63.19 14.0946 63.0268 14.1538 62.7007C14.213 62.3745 14.4346 62.0779 14.7891 61.9738C15.3356 61.7361 15.9558 62.0171 16.1919 62.5653C16.8707 64.3729 17.9038 66.0764 19.1291 67.6462C21.2547 70.7271 24.1189 73.4366 27.1015 75.4938L40.5441 66.1423C45.5371 62.6689 46.78 55.8199 43.2963 50.9766C41.702 48.666 39.1476 47.0233 36.2236 46.4927C33.2996 45.962 30.4934 46.6319 28.0265 48.2056L19.5768 54.0836C19.1927 54.3508 18.543 54.2329 18.1148 53.8183C17.8491 53.4332 17.9675 52.7809 18.3811 52.3507L26.8308 46.4726C29.7114 44.4687 33.197 43.7537 36.6083 44.3728C40.0197 44.9918 43.0318 46.886 45.0246 49.7742C49.143 55.7433 47.6633 63.897 41.7398 67.8753L11.2058 89.1165C8.32521 91.1204 4.83955 91.8354 1.42822 91.2164C-1.98311 90.5973 -4.99526 88.7031 -6.98803 85.8148C-8.9808 82.9266 -9.65888 79.2663 -9.06701 76.0048C-8.47515 72.7434 -6.58375 69.7177 -3.67359 67.5508L-0.95548 65.5174C-0.571404 65.2502 0.0784099 65.3681 0.50656 65.7827C0.580224 66.3014 0.461832 66.9537 -0.114281 67.3545Z" fill="#29A6DF"></path>
  <path d="M20.7208 77.3679L8.8144 85.6507C6.70198 87.1202 4.5455 87.9079 1.88721 87.7624C1.39987 87.674 0.971756 87.2594 0.898091 86.7407L0.927686 86.5776C1.01647 86.0884 1.40054 85.8212 1.91747 85.7466C4.25088 85.8331 5.86081 85.2831 7.61874 83.9177L19.5251 75.6349C19.9092 75.3677 20.5589 75.4857 20.8246 75.8708C21.3856 76.4779 21.2673 77.1302 20.7208 77.3679Z" fill="#29A6DF"></path>
  <path d="M29.6988 36.3588L1.27974 60.5029C-4.15146 65.1171 -12.4398 64.5765 -17.1432 59.0404C-21.7396 53.6301 -21.1671 45.3447 -15.6096 40.6232L12.8095 16.4791C18.2407 11.8649 26.529 12.4056 31.2324 17.9417C35.9357 23.4779 35.2563 31.6373 29.6988 36.3588ZM-15.5012 57.6454C-11.653 62.1749 -4.65696 62.7303 -0.109907 58.8672L14.1628 46.7415C11.0144 45.0836 8.05065 42.619 5.59208 39.7251C3.13352 36.8312 1.18019 33.5081 0.0527629 30.1332L-14.2199 42.2589C-18.767 46.122 -19.3494 53.1158 -15.5012 57.6454ZM14.1992 18.1148L1.69474 28.7382C2.82217 32.1131 4.64922 35.5435 7.10778 38.4374C9.56635 41.3313 12.5301 43.7959 15.8047 45.3466L28.3092 34.7231C32.8562 30.8601 33.4386 23.8663 29.5904 19.3367C25.8685 14.6999 18.8725 14.1444 14.1992 18.1148Z" fill="#29A6DF"></path>
  <path d="M10.6647 46.4639C10.9854 46.8413 10.9272 47.5407 10.4219 47.9699L-1.32459 57.9495C-1.70351 58.2714 -2.40313 58.2159 -2.72381 57.8384C-3.0445 57.461 -2.98622 56.7616 -2.6073 56.4397L9.13923 46.4601C9.77077 45.9236 10.4704 45.9791 10.6647 46.4639Z" fill="#29A6DF"></path>
</svg>
