<?xml version="1.0" encoding="UTF-8"?>
<svg xmlns="http://www.w3.org/2000/svg" width="38" height="79" viewBox="0 0 38 79" fill="none">
  <path d="M32.7656 17.0515V9.85201C32.7656 4.35763 24.2398 0 13.4405 0C2.6412 0 -5.88455 4.35763 -5.88455 9.85201V17.0515C-9.10539 19.1356 -11 21.788 -11 24.63C-11 24.63 -11 24.63 -11 24.8194V66.122V66.3115C-11 73.1321 -0.390162 78.6264 13.2511 78.6264C26.8923 78.6264 37.5021 73.1321 37.5021 66.3115V66.122V24.8194C37.6916 21.7881 35.9864 19.1356 32.7656 17.0515ZM-3.42155 17.241V14.5885C-0.200706 17.6199 6.0515 19.704 13.4405 19.704C20.8295 19.704 27.0817 17.6199 30.3026 14.5885V17.241C30.3026 20.8408 23.4819 24.8194 13.4405 24.8194C3.39905 24.8194 -3.42155 20.8408 -3.42155 17.241ZM13.4405 2.27356C23.4819 2.27356 30.3026 6.06278 30.3026 9.85201C30.3026 13.6412 23.4819 17.4305 13.4405 17.4305C3.39905 17.4305 -3.42155 13.6412 -3.42155 9.85201C-3.42155 6.06278 3.39905 2.27356 13.4405 2.27356ZM-5.31616 19.5145C-3.23209 23.8722 4.15689 27.093 13.4405 27.093C22.7241 27.093 30.1131 23.8722 32.1972 19.5145C34.2813 21.0302 35.418 22.7354 35.418 24.63C35.418 29.9349 25.3766 34.482 13.4405 34.482C1.6939 34.482 -8.34754 29.9349 -8.537 24.63V24.4406C-8.537 22.9249 -7.40024 21.0302 -5.31616 19.5145ZM35.418 66.122V66.3115C35.418 71.6164 25.3766 76.1635 13.4405 76.1635C1.50443 76.1635 -8.537 71.6164 -8.537 66.122V65.9326V65.7431V29.7454C-4.55831 33.9136 3.58851 36.7555 13.4405 36.7555C23.2925 36.7555 31.4393 33.9136 35.418 29.7454V65.7431C35.418 65.9326 35.418 66.122 35.418 66.122Z" fill="#29A6DF"></path>
  <path d="M29.3552 41.3027C29.3552 41.1132 29.1658 41.1132 29.1658 40.9238C29.1658 40.9238 28.9763 40.7343 28.7868 40.7343H28.5974C28.4079 40.7343 28.4079 40.7343 28.2185 40.7343H28.029H27.8395C26.3239 41.3027 24.4292 41.8711 22.5346 42.25C16.8508 43.3868 10.0302 43.3868 4.34635 42.25C2.6412 41.8711 0.746585 41.3027 -0.958567 40.7343H-1.14804H-1.33748C-1.52694 40.7343 -1.52696 40.7343 -1.52696 40.7343H-1.71643C-1.71643 40.7343 -1.90587 40.7343 -1.90587 40.9238C-1.90587 40.9238 -2.09535 40.9238 -2.09535 41.1132C-2.09535 41.1132 -2.09535 41.1132 -2.09535 41.3027L-2.28479 41.4922V41.6816V41.8711V62.1434C-2.28479 62.3329 -2.28479 62.3329 -2.28479 62.5223V62.7118C-2.28479 62.7118 -2.28481 62.9013 -2.09535 62.9013C-2.09535 62.9013 -2.09533 63.0907 -1.90587 63.0907C-1.90587 63.0907 -1.71642 63.2802 -1.52696 63.2802C2.83065 64.9854 8.13557 65.9327 13.6299 65.9327C19.1243 65.9327 24.6187 64.9854 28.7868 63.2802C28.9763 63.2802 28.9763 63.0907 29.1658 63.0907L29.3552 62.9013C29.3552 62.9013 29.3552 62.9013 29.3552 62.7118V62.5223C29.3552 62.3329 29.3552 62.3329 29.3552 62.1434V41.8711V41.6816C29.3552 41.3027 29.3552 41.3027 29.3552 41.3027ZM-0.200733 61.1961V43.3868C1.1255 43.7657 2.45174 44.1446 3.77797 44.5235C6.80935 45.0919 10.0302 45.4708 13.4405 45.4708C16.8508 45.4708 20.0716 45.0919 23.103 44.5235C24.6187 44.1446 25.7555 43.7657 27.0817 43.3868V61.1961C23.2925 62.5224 18.3665 63.4696 13.4405 63.4696C8.51448 63.4696 3.77795 62.7118 -0.200733 61.1961Z" fill="#29A6DF"></path>
</svg>
