<?xml version="1.0" encoding="UTF-8"?>
<svg xmlns="http://www.w3.org/2000/svg" width="45" height="76" viewBox="0 0 45 76" fill="none">
  <path d="M34.4529 22.4039L36.7462 19.7577L37.099 20.1106C37.2754 20.287 37.6283 20.4634 37.8047 20.4634C38.1575 20.4634 38.5103 20.287 38.6867 20.1106C39.0395 19.5814 39.0395 18.8757 38.5103 18.5229L36.217 16.5824C35.6878 16.2296 34.9821 16.2296 34.6293 16.7588C34.2765 17.2881 34.2765 17.9937 34.8057 18.3465L35.1585 18.6993L32.8652 21.5218C28.1022 17.8172 22.1043 15.5239 15.5772 15.3475V12.8778C18.5761 12.3486 20.8694 9.70245 20.8694 6.52709C20.8694 2.99892 18.0469 0 14.3423 0C10.8141 0 7.81518 2.82251 7.81518 6.52709C7.81518 9.70245 10.1085 12.3486 13.1074 12.8778V15.3475C6.58032 15.5239 0.582441 17.8172 -4.18059 21.5218L-6.47394 18.6993L-6.1211 18.3465C-5.59188 17.9937 -5.59186 17.2881 -5.94468 16.7588C-6.2975 16.2296 -7.00312 16.2296 -7.53235 16.5824L-9.8257 18.5229C-10.3549 18.8757 -10.3549 19.5814 -10.0021 20.1106C-9.82571 20.287 -9.47289 20.4634 -9.12007 20.4634C-8.94366 20.4634 -8.5908 20.287 -8.41439 20.1106L-8.06161 19.7577L-5.76826 22.4039C-11.9426 27.8725 -16 35.9874 -16 44.9842C-16 61.7431 -2.41651 75.3265 14.3423 75.3265C31.1012 75.3265 44.6846 61.7431 44.6846 44.9842C44.6846 35.9874 40.6272 27.8725 34.4529 22.4039ZM10.1085 5.99789C10.1085 3.70457 12.049 1.76409 14.3423 1.76409C16.6356 1.76409 18.5761 3.70457 18.5761 5.99789C18.5761 8.2912 16.6356 10.2317 14.3423 10.2317C12.049 10.2317 10.1085 8.2912 10.1085 5.99789ZM14.3423 73.0331C-1.18165 73.0331 -13.7067 60.5082 -13.7067 44.9842C-13.7067 29.4603 -1.18165 16.9352 14.3423 16.9352C29.8663 16.9352 42.3913 29.4603 42.3913 44.9842C42.3913 60.5082 29.8663 73.0331 14.3423 73.0331Z" fill="#29A6DF"></path>
  <path d="M14.3423 21.6983C1.46447 21.6983 -8.94366 32.1064 -8.94366 44.9842C-8.94366 57.8621 1.46447 68.2702 14.3423 68.2702C27.2201 68.2702 37.6282 57.8621 37.6282 44.9842C37.6282 32.1064 27.2201 21.6983 14.3423 21.6983ZM14.3423 65.9768C2.69933 65.9768 -6.65032 56.6272 -6.65032 44.9842C-6.65032 33.3413 2.69933 23.9916 14.3423 23.9916C25.9853 23.9916 35.3349 33.3413 35.3349 44.9842C35.3349 56.6272 25.9853 65.9768 14.3423 65.9768Z" fill="#29A6DF"></path>
  <path d="M27.573 35.9874L13.8131 43.9258C13.2838 44.2786 13.1075 44.9842 13.4603 45.5134C13.6367 45.8662 13.9895 46.0426 14.3423 46.0426C14.5187 46.0426 14.6951 46.0427 14.8715 45.8663L28.6314 37.9279C29.1607 37.5751 29.337 36.8694 28.9842 36.3401C28.8078 35.9873 28.1022 35.811 27.573 35.9874Z" fill="#29A6DF"></path>
</svg>
