<?xml version="1.0" encoding="UTF-8"?>
<svg xmlns="http://www.w3.org/2000/svg" width="45" height="84" viewBox="0 0 45 84" fill="none">
  <path d="M25.1729 77.5257H11.0607C10.5108 77.5257 9.961 78.0755 9.961 78.6253C9.961 79.1752 10.5108 79.725 11.0607 79.725H25.1729C25.7227 79.725 26.2726 79.1752 26.2726 78.6253C26.4559 78.0755 25.906 77.5257 25.1729 77.5257Z" fill="#29A6DF"></path>
  <path d="M40.0183 0H-3.60139C-5.98398 0 -8 2.01604 -8 4.39863V79.3585C-8 81.7411 -5.98398 83.7571 -3.60139 83.7571H40.0183C42.4009 83.7571 44.4169 81.7411 44.4169 79.3585V4.5819C44.4169 2.01604 42.4009 0 40.0183 0ZM-5.80067 10.2635H42.2177V73.3104H-5.80067V10.2635ZM-3.60139 2.38258H40.0183C41.118 2.38258 42.2177 3.29897 42.2177 4.5819V7.88086H-5.80067V4.5819C-5.80067 3.29897 -4.88432 2.38258 -3.60139 2.38258ZM40.0183 81.7411H-3.60139C-4.70104 81.7411 -5.80067 80.8247 -5.80067 79.5418V75.5097H42.2177V79.5418C42.2177 80.6414 41.3013 81.7411 40.0183 81.7411Z" fill="#29A6DF"></path>
  <path d="M0.980469 6.41463C1.34702 6.41463 1.53029 6.23135 1.71356 6.04807C1.89684 5.8648 2.08014 5.49825 2.08014 5.13169C2.08014 4.76514 1.89684 4.58188 1.71356 4.3986C1.34701 4.03205 0.430641 4.03205 0.0640891 4.3986C-0.119187 4.58188 -0.302429 4.94843 -0.302429 5.31498C-0.302429 5.68153 -0.119187 5.86481 0.0640891 6.23136C0.430641 6.41464 0.797193 6.41463 0.980469 6.41463Z" fill="#29A6DF"></path>
  <path d="M26.6392 25.4754C23.1569 25.4754 20.0412 27.3081 18.2084 30.0573C16.3756 27.3081 13.26 25.4754 9.77775 25.4754C4.09619 25.4754 -0.669006 30.7904 -0.669006 37.0217C-0.669006 48.9347 13.4432 56.449 17.6586 58.2818C17.8419 58.2818 18.0251 58.465 18.2084 58.465C18.3917 58.465 18.575 58.465 18.7583 58.2818C30.3046 53.15 37.0858 45.0859 37.0858 36.8385C37.0858 30.7904 32.1374 25.4754 26.6392 25.4754ZM18.2084 56.0825C13.8098 53.8831 1.71356 47.2852 1.71356 37.0217C1.71356 32.0733 5.5624 27.6747 9.77775 27.6747C13.6265 27.6747 16.3757 30.4238 17.1088 33.173C17.2921 33.7228 17.6586 34.0893 18.2084 34.0893C18.7582 34.0893 19.1248 33.7228 19.3081 33.173C20.0412 30.4238 22.7904 27.6747 26.6392 27.6747C31.0378 27.6747 34.7032 32.0733 34.7032 37.0217C34.7032 45.4524 26.2725 52.4169 18.2084 56.0825Z" fill="#29A6DF"></path>
</svg>
