<svg width="1440" height="1747" viewBox="0 0 1440 1747" fill="none" xmlns="http://www.w3.org/2000/svg">
<path d="M993 581.6C993 579.4 994.8 577.7 997 577.7C999.2 577.7 1000.9 579.5 1000.9 581.7C1000.9 583.9 999.1 585.6 996.9 585.6C994.6 585.6 992.9 583.8 993 581.6Z" fill="white"/>
<path d="M701.4 450C701.4 447.8 703.2 446.1 705.4 446.1C707.6 446.1 709.3 447.9 709.3 450.1C709.3 452.3 707.5 454 705.3 454C703.1 454 701.4 452.2 701.4 450Z" fill="white"/>
<path d="M745.3 355.3C745.3 353.1 747.1 351.4 749.3 351.4C751.5 351.4 753.2 353.2 753.2 355.4C753.2 357.6 751.4 359.3 749.2 359.3C747 359.3 745.3 357.5 745.3 355.3Z" fill="white"/>
<path d="M758.4 809C758.4 806.8 760.2 805.1 762.4 805.1C764.6 805.1 766.3 806.9 766.3 809.1C766.3 811.3 764.5 813 762.3 813C760 813 758.3 811.2 758.4 809Z" fill="white"/>
<path d="M598.3 254.1C598.3 251.9 600.1 250.2 602.3 250.2C604.5 250.2 606.2 252 606.2 254.2C606.2 256.4 604.4 258.1 602.2 258.1C600 258 598.3 256.3 598.3 254.1Z" fill="white"/>
<path d="M699.4 341.5C699.4 339.3 701.2 337.6 703.4 337.6C705.6 337.6 707.3 339.4 707.3 341.6C707.3 343.8 705.5 345.5 703.3 345.5C701.1 345.4 699.4 343.6 699.4 341.5Z" fill="white"/>
<path d="M836 262.4C836 260.2 837.8 258.5 840 258.5C842.2 258.5 843.9 260.3 843.9 262.5C843.9 264.7 842.1 266.4 839.9 266.4C837.7 266.3 836 264.5 836 262.4Z" fill="white"/>
<path d="M653.6 43.9C653.6 41.7 655.4 40 657.6 40C659.8 40 661.5 41.8 661.5 44C661.5 46.2 659.7 47.9 657.5 47.9C655.3 47.9 653.6 46.1 653.6 43.9Z" fill="white"/>
<path d="M916.4 99.1998C916.4 96.9998 918.2 95.2998 920.4 95.2998C922.6 95.2998 924.3 97.0998 924.3 99.2998C924.3 101.5 922.5 103.2 920.3 103.2C918.1 103.2 916.4 101.4 916.4 99.1998Z" fill="white"/>
<path d="M947.4 385.2C947.4 383 949.2 381.3 951.4 381.3C953.6 381.3 955.3 383.1 955.3 385.3C955.3 387.5 953.5 389.2 951.3 389.2C949.1 389.2 947.4 387.4 947.4 385.2Z" fill="white"/>
<path d="M1121.5 237C1121.5 234.8 1123.3 233.1 1125.5 233.1C1127.7 233.1 1129.4 234.9 1129.4 237.1C1129.4 239.3 1127.6 241 1125.4 241C1123.2 240.9 1121.5 239.2 1121.5 237Z" fill="white"/>
<path d="M1027.2 254.6C1027.2 252.4 1029 250.7 1031.2 250.7C1033.4 250.7 1035.1 252.5 1035.1 254.7C1035.1 256.9 1033.3 258.6 1031.1 258.6C1028.9 258.6 1027.2 256.8 1027.2 254.6Z" fill="white"/>
<path d="M1169.1 230C1169.1 227.8 1170.9 226.1 1173.1 226.1C1175.3 226.1 1177 227.9 1177 230.1C1177 232.3 1175.2 234 1173 234C1170.8 233.9 1169 232.1 1169.1 230Z" fill="white"/>
<path d="M1261.2 136.6C1261.2 134.4 1263 132.7 1265.2 132.7C1267.4 132.7 1269.1 134.5 1269.1 136.7C1269.1 138.9 1267.3 140.6 1265.1 140.6C1262.9 140.6 1261.2 138.8 1261.2 136.6Z" fill="white"/>
<path d="M1220.4 198C1220.4 195.8 1222.2 194.1 1224.4 194.1C1226.6 194.1 1228.3 195.9 1228.3 198.1C1228.3 200.3 1226.5 202 1224.3 202C1222.1 202 1220.4 200.2 1220.4 198Z" fill="white"/>
<path d="M1432.6 248.7C1432.6 246.5 1434.4 244.8 1436.6 244.8C1438.8 244.8 1440.5 246.6 1440.5 248.8C1440.5 251 1438.7 252.7 1436.5 252.7C1434.2 252.7 1432.5 250.9 1432.6 248.7Z" fill="white"/>
<path d="M1384 113.1C1384 110.9 1385.8 109.2 1388 109.2C1390.2 109.2 1391.9 111 1391.9 113.2C1391.9 115.4 1390.1 117.1 1387.9 117.1C1385.7 117.1 1384 115.3 1384 113.1Z" fill="white"/>
<path d="M1279.9 602.2C1279.9 600 1281.7 598.3 1283.9 598.3C1286.1 598.3 1287.8 600.1 1287.8 602.3C1287.8 604.5 1286 606.2 1283.8 606.2C1281.6 606.2 1279.9 604.4 1279.9 602.2Z" fill="white"/>
<path d="M497 442.3C497 440.1 498.8 438.4 501 438.4C503.2 438.4 504.9 440.2 504.9 442.4C504.9 444.6 503.1 446.3 500.9 446.3C498.7 446.3 497 444.5 497 442.3Z" fill="white"/>
<path d="M1247.1 728.7C1247.1 726.5 1248.9 724.8 1251.1 724.8C1253.3 724.8 1255 726.6 1255 728.8C1255 731 1253.2 732.7 1251 732.7C1248.8 732.6 1247.1 730.8 1247.1 728.7Z" fill="white"/>
<path d="M1386.1 743.2C1386.1 741 1387.9 739.3 1390.1 739.3C1392.3 739.3 1394 741.1 1394 743.3C1394 745.5 1392.2 747.2 1390 747.2C1387.8 747.2 1386.1 745.4 1386.1 743.2Z" fill="white"/>
<path d="M1219.4 4.99991C1219.4 3.59991 1220.6 2.3999 1222.1 2.3999C1223.6 2.3999 1224.7 3.59991 1224.7 5.09991C1224.7 6.59991 1223.5 7.69991 1222 7.69991C1220.5 7.59991 1219.3 6.39991 1219.4 4.99991Z" fill="white"/>
<path d="M1042.3 4.39999C1042.3 2.19999 1044.1 0.5 1046.3 0.5C1048.5 0.5 1050.2 2.3 1050.2 4.5C1050.2 6.7 1048.4 8.39999 1046.2 8.39999C1044 8.29999 1042.3 6.49999 1042.3 4.39999Z" fill="white"/>
<path d="M1278.3 523.8C1278.3 522.3 1279.5 521.2 1281 521.2C1282.5 521.2 1283.6 522.4 1283.6 523.9C1283.6 525.4 1282.4 526.5 1280.9 526.5C1279.4 526.5 1278.3 525.3 1278.3 523.8Z" fill="white"/>
<path d="M1195.6 431.7C1195.7 428.8 1198 426.5 1201 426.5C1203.9 426.6 1206.2 429 1206.2 431.9C1206.1 434.8 1203.8 437.1 1200.8 437.1C1197.9 437 1195.5 434.6 1195.6 431.7Z" fill="white"/>
<path d="M994.2 581.8L1281.3 523.4L1284.2 602.7L994.2 581.8ZM1280.6 524.3L999.6 581.5L1283.4 601.9L1280.6 524.3Z" fill="white"/>
<path d="M1125.4 236.7L1174.5 229.4L951.8 385.4L997.2 581.4L1250.8 728.2L1283.5 602.2L1284.2 602.4L1251.3 729.3L1250.9 729.1L996.6 581.9L996.5 581.8L950.9 385.1L951.1 384.9L1171.5 230.6L1125.5 237.4L1125.4 236.7Z" fill="white"/>
<path d="M1030.9 254.3H1031.1L1126.8 236.4L949.8 387L1030.9 254.3ZM1124.1 237.7L1031.3 255L952.9 383.5L1124.1 237.7Z" fill="white"/>
<path d="M1045.4 4.09991H1046.1L1046.4 3.8999L1046.5 4.09991L1222.5 4.69991L1222.3 5.09991L1222.7 4.99991L1265.5 136.9L1207.1 178.9L1224.6 197.9L1224.1 198.4L1206.5 179.3L1125.7 237.4L1125.4 238.2L1125.1 237.4L919.8 99.2999L920.2 98.9999L1045.7 4.3999L1045.4 4.09991ZM1124.7 236.1L1046 4.99991L921 99.1999L1124.7 236.1ZM1221.4 5.3999L1047 4.7999L1167.3 135.5L1221.4 5.3999ZM1167 136.2L1047.1 5.99991L1125.4 236L1167 136.2ZM1264.7 136.5L1222.2 5.49991L1167.9 136.1L1206.7 178.3L1264.7 136.5ZM1206 178.7L1167.5 136.9L1126.2 236.1L1206 178.7Z" fill="white"/>
<path d="M1265 136.2L1438.5 249.7L1223.8 198.3L1265 136.2ZM1434.5 248L1265.2 137.2L1224.9 197.8L1434.5 248Z" fill="white"/>
<path d="M839.7 262.2L840.3 262.6L705.7 450.2L762.5 808.3L996.6 581.4L1200.4 431.7L1199.3 429.5L1200.9 431.4L1221.6 415.3L1125.1 237.3L1125.7 237L1222.2 414.7L1437.7 247.3L1281.4 523.9L1390.4 743.1L1389.8 743.5L1283.6 602.5L1200.8 432.3L997.1 582L762 809.8L761.9 809.1L704.9 450L705 449.9L839.7 262.2ZM1280.9 523.1L1435.2 250.2L1222.5 415.4L1280.9 523.1ZM1279 521.1L1222 415.9L1201.4 431.9L1279 521.1ZM1280.6 524.1L1202.4 434.1L1284.1 602.1L1387.9 739.8L1280.6 524.1Z" fill="white"/>
<path d="M656.6 43.3998L920.9 98.9998L841.8 259.5L1046.7 3.2998L1046.6 4.49981L1031.5 254.7L997.2 582.2L996.7 582L705.2 450.4L705.5 449.7L996.6 581.1L1030.8 254.6L1045.8 5.59981L840 263L839.7 262.6L656.6 43.3998ZM919.8 99.5998L658.6 44.4998L839.9 261.8L919.8 99.5998Z" fill="white"/>
<path d="M1046.4 4.09961L1265.6 136.5L1265.5 136.7L1201.2 431.9L1200.5 431.7L1264.7 136.8L1046 4.69961L1046.4 4.09961Z" fill="white"/>
<path d="M920.7 98.2L920.8 98.8L1222.4 4.5L1224.8 198L1201.1 433.3L1125.2 237.4L937.5 254.1L941 286.4L1031 254.2L1031.2 254.9L941 287.1L951.7 385.6L951.2 385.5L747.7 355.5L749 355L919.9 99.4L919.5 99.2L920.2 99L920.7 98.2ZM1221.6 5.5L921.4 99.4L1173.2 229.7L1172.9 230.4L920.8 99.9L937.4 253.3L1125.6 236.6L1125.7 236.9L1200.6 430.2L1224 198L1221.6 5.5ZM936.7 253.5L920.1 100.4L751.8 352.2L839.8 262H839.9L936.7 253.5ZM936.8 254.2L840.2 262.8L750.7 354.5L940.3 286.7L936.8 254.2ZM940.4 287.5L750.8 355.2L950.9 384.8L940.4 287.5Z" fill="white"/>
<path d="M920.7 99.0996L1031.9 255L840.1 262.8L703.8 341.8L705.7 450.1H705L703 341.3L703.2 341.2L839.9 262.1H840L1030.4 254.3L920.1 99.4996L920.7 99.0996Z" fill="white"/>
<path d="M657.6 42.5996L657.9 43.8996L749.6 354.5L748.9 354.7L749.7 355.2L706 449.5L951.4 384.8L951.5 384.9L1191.6 541.7L1281.3 523.5L1284.2 603.1L1283.7 602.8L994.2 582L1190.6 542L951.3 385.7L704.7 450.7L748.8 355.6L601.9 254.3L602 254L657.6 42.5996ZM748.9 354.7L657.6 45.2996L602.7 254L748.9 354.7ZM1191.5 542.5L999.6 581.5L1282.4 601.8L1191.5 542.5ZM1280.6 524.3L1192.5 542.2L1283.4 601.5L1280.6 524.3Z" fill="white"/>
<path d="M1265.1 136.3L1390.4 112.3L1224.5 198.4L1224.2 197.7L1385.5 114L1265.2 137L1265.1 136.3Z" fill="white"/>
<path d="M1222.24 4.70896L1221.72 5.17139L1436.21 248.956L1436.74 248.494L1222.24 4.70896Z" fill="white"/>
<path d="M1125.1 236.9L1125.8 237.2L997.4 581.5L1392.6 743.9L1251 729.1L1251.1 728.4L1387.5 742.6L996.4 581.9L996.5 581.5L1125.1 236.9Z" fill="white"/>
<path d="M657.2 43.9999L657.9 43.8999L703.9 342.5L604.9 256.9L706 450.5H705.4L500.5 442.8L500.8 442.3L602.3 253.6L602.6 253.8L602.2 252.9L602.9 252.6L604.2 255.1L702.9 340.6L657.2 43.9999ZM603.4 255.6L602.4 254.8L501.6 442.1L704.7 449.7L603.4 255.6Z" fill="white"/>
<path d="M703.5 341.2L750.5 355.3L749.4 355.7L501.1 442.7L500.9 442L748.1 355.4L703.3 341.9L703.5 341.2Z" fill="white"/>
<g opacity="0.3">
<path opacity="0.3" d="M996.9 581.7L951.3 385.2L705.3 450.1L996.9 581.7Z" fill="white"/>
</g>
<g opacity="0.3">
<path opacity="0.3" d="M1388.4 112.7L1385.9 114.1L1224.8 199L1265.6 137.6L1388.4 112.7Z" fill="white"/>
</g>
<g opacity="0.2">
<path opacity="0.2" d="M920.4 99.2998L1031.2 253.4L1173 228.6L920.4 99.2998Z" fill="white"/>
</g>
<g opacity="0.3">
<path opacity="0.3" d="M840 262.4L703.4 341.5L657.6 44L840 262.4Z" fill="white"/>
</g>
<g opacity="0.2">
<path opacity="0.2" d="M996.9 581.7L1280.9 523.9L1200.9 431.8L996.9 581.7Z" fill="white"/>
</g>
<path d="M425.5 1111.4C425.5 1113.6 423.7 1115.3 421.5 1115.3C419.3 1115.3 417.6 1113.5 417.6 1111.3C417.6 1109.1 419.4 1107.4 421.6 1107.4C423.9 1107.4 425.6 1109.2 425.5 1111.4Z" fill="white"/>
<path d="M717.1 1243C717.1 1245.2 715.3 1246.9 713.1 1246.9C710.9 1246.9 709.2 1245.1 709.2 1242.9C709.2 1240.7 711 1239 713.2 1239C715.4 1239 717.1 1240.8 717.1 1243Z" fill="white"/>
<path d="M673.2 1337.7C673.2 1339.9 671.4 1341.6 669.2 1341.6C667 1341.6 665.3 1339.8 665.3 1337.6C665.3 1335.4 667.1 1333.7 669.3 1333.7C671.5 1333.7 673.2 1335.5 673.2 1337.7Z" fill="white"/>
<path d="M660.1 884C660.1 886.2 658.3 887.9 656.1 887.9C653.9 887.9 652.2 886.1 652.2 883.9C652.2 881.7 654 880 656.2 880C658.5 880 660.2 881.8 660.1 884Z" fill="white"/>
<path d="M820.2 1438.9C820.2 1441.1 818.4 1442.8 816.2 1442.8C814 1442.8 812.3 1441 812.3 1438.8C812.3 1436.6 814.1 1434.9 816.3 1434.9C818.5 1435 820.2 1436.7 820.2 1438.9Z" fill="white"/>
<path d="M719.1 1351.5C719.1 1353.7 717.3 1355.4 715.1 1355.4C712.9 1355.4 711.2 1353.6 711.2 1351.4C711.2 1349.2 713 1347.5 715.2 1347.5C717.4 1347.6 719.1 1349.4 719.1 1351.5Z" fill="white"/>
<path d="M582.5 1430.6C582.5 1432.8 580.7 1434.5 578.5 1434.5C576.3 1434.5 574.6 1432.7 574.6 1430.5C574.6 1428.3 576.4 1426.6 578.6 1426.6C580.8 1426.7 582.5 1428.5 582.5 1430.6Z" fill="white"/>
<path d="M764.9 1649.1C764.9 1651.3 763.1 1653 760.9 1653C758.7 1653 757 1651.2 757 1649C757 1646.8 758.8 1645.1 761 1645.1C763.2 1645.1 764.9 1646.9 764.9 1649.1Z" fill="white"/>
<path d="M502.1 1593.8C502.1 1596 500.3 1597.7 498.1 1597.7C495.9 1597.7 494.2 1595.9 494.2 1593.7C494.2 1591.5 496 1589.8 498.2 1589.8C500.4 1589.8 502.1 1591.6 502.1 1593.8Z" fill="white"/>
<path d="M471.1 1307.8C471.1 1310 469.3 1311.7 467.1 1311.7C464.9 1311.7 463.2 1309.9 463.2 1307.7C463.2 1305.5 465 1303.8 467.2 1303.8C469.4 1303.8 471.1 1305.6 471.1 1307.8Z" fill="white"/>
<path d="M297 1456C297 1458.2 295.2 1459.9 293 1459.9C290.8 1459.9 289.1 1458.1 289.1 1455.9C289.1 1453.7 290.9 1452 293.1 1452C295.3 1452.1 297 1453.8 297 1456Z" fill="white"/>
<path d="M391.3 1438.4C391.3 1440.6 389.5 1442.3 387.3 1442.3C385.1 1442.3 383.4 1440.5 383.4 1438.3C383.4 1436.1 385.2 1434.4 387.4 1434.4C389.6 1434.4 391.3 1436.2 391.3 1438.4Z" fill="white"/>
<path d="M249.4 1463C249.4 1465.2 247.6 1466.9 245.4 1466.9C243.2 1466.9 241.5 1465.1 241.5 1462.9C241.5 1460.7 243.3 1459 245.5 1459C247.7 1459.1 249.5 1460.9 249.4 1463Z" fill="white"/>
<path d="M157.3 1556.4C157.3 1558.6 155.5 1560.3 153.3 1560.3C151.1 1560.3 149.4 1558.5 149.4 1556.3C149.4 1554.1 151.2 1552.4 153.4 1552.4C155.6 1552.4 157.3 1554.2 157.3 1556.4Z" fill="white"/>
<path d="M198.1 1495C198.1 1497.2 196.3 1498.9 194.1 1498.9C191.9 1498.9 190.2 1497.1 190.2 1494.9C190.2 1492.7 192 1491 194.2 1491C196.4 1491 198.1 1492.8 198.1 1495Z" fill="white"/>
<path d="M34.5 1579.9C34.5 1582.1 32.7 1583.8 30.5 1583.8C28.3 1583.8 26.6 1582 26.6 1579.8C26.6 1577.6 28.4 1575.9 30.6 1575.9C32.8 1575.9 34.5 1577.7 34.5 1579.9Z" fill="white"/>
<path d="M138.6 1090.8C138.6 1093 136.8 1094.7 134.6 1094.7C132.4 1094.7 130.7 1092.9 130.7 1090.7C130.7 1088.5 132.5 1086.8 134.7 1086.8C136.9 1086.8 138.6 1088.6 138.6 1090.8Z" fill="white"/>
<path d="M921.5 1250.7C921.5 1252.9 919.7 1254.6 917.5 1254.6C915.3 1254.6 913.6 1252.8 913.6 1250.6C913.6 1248.4 915.4 1246.7 917.6 1246.7C919.8 1246.7 921.5 1248.5 921.5 1250.7Z" fill="white"/>
<path d="M171.4 964.3C171.4 966.5 169.6 968.2 167.4 968.2C165.2 968.2 163.5 966.4 163.5 964.2C163.5 962 165.3 960.3 167.5 960.3C169.7 960.4 171.4 962.2 171.4 964.3Z" fill="white"/>
<path d="M32.3999 949.8C32.3999 952 30.5999 953.7 28.3999 953.7C26.1999 953.7 24.4999 951.9 24.4999 949.7C24.4999 947.5 26.2999 945.8 28.4999 945.8C30.6999 945.8 32.3999 947.6 32.3999 949.8Z" fill="white"/>
<path d="M199.1 1688C199.1 1689.4 197.9 1690.6 196.4 1690.6C194.9 1690.6 193.8 1689.4 193.8 1687.9C193.8 1686.4 195 1685.3 196.5 1685.3C198 1685.4 199.2 1686.6 199.1 1688Z" fill="white"/>
<path d="M376.2 1688.6C376.2 1690.8 374.4 1692.5 372.2 1692.5C370 1692.5 368.3 1690.7 368.3 1688.5C368.3 1686.3 370.1 1684.6 372.3 1684.6C374.5 1684.7 376.2 1686.5 376.2 1688.6Z" fill="white"/>
<path d="M140.2 1169.2C140.2 1170.7 139 1171.8 137.5 1171.8C136 1171.8 134.9 1170.6 134.9 1169.1C134.9 1167.6 136.1 1166.5 137.6 1166.5C139.1 1166.5 140.2 1167.7 140.2 1169.2Z" fill="white"/>
<path d="M222.9 1261.3C222.8 1264.2 220.5 1266.5 217.5 1266.5C214.6 1266.4 212.3 1264 212.3 1261.1C212.4 1258.2 214.7 1255.9 217.7 1255.9C220.6 1256 223 1258.4 222.9 1261.3Z" fill="white"/>
<path d="M424.3 1111.2L137.2 1169.6L134.3 1090.3L424.3 1111.2ZM137.9 1168.7L418.9 1111.5L135.1 1091.1L137.9 1168.7Z" fill="white"/>
<path d="M293.1 1456.3L244 1463.6L466.7 1307.6L421.3 1111.6L167.7 964.8L135 1090.8L134.3 1090.6L167.2 963.7L167.6 963.9L421.9 1111.1L422 1111.2L467.6 1307.9L467.4 1308.1L247 1462.4L293 1455.6L293.1 1456.3Z" fill="white"/>
<path d="M387.6 1438.7L387.4 1438.7L291.7 1456.6L468.7 1306L387.6 1438.7ZM294.4 1455.3L387.2 1438L465.6 1309.5L294.4 1455.3Z" fill="white"/>
<path d="M373.1 1688.9L372.4 1688.9L372.1 1689.1L372 1688.9L196 1688.3L196.2 1687.9L195.8 1688L153 1556.1L211.4 1514.1L193.9 1495.1L194.4 1494.6L212 1513.7L292.8 1455.6L293.1 1454.8L293.4 1455.6L498.7 1593.7L498.3 1594L372.8 1688.6L373.1 1688.9ZM293.8 1456.9L372.5 1688L497.5 1593.8L293.8 1456.9ZM197.1 1687.6L371.5 1688.2L251.2 1557.5L197.1 1687.6ZM251.5 1556.8L371.4 1687L293.1 1457L251.5 1556.8ZM153.8 1556.5L196.3 1687.5L250.6 1556.9L211.8 1514.7L153.8 1556.5ZM212.5 1514.3L251 1556.1L292.3 1456.9L212.5 1514.3Z" fill="white"/>
<path d="M153.5 1556.8L-19.9997 1443.3L194.7 1494.7L153.5 1556.8ZM-15.9997 1445L153.3 1555.8L193.6 1495.2L-15.9997 1445Z" fill="white"/>
<path d="M578.8 1430.8L578.2 1430.4L712.8 1242.8L656 884.7L421.9 1111.6L218.1 1261.3L219.2 1263.5L217.6 1261.6L196.9 1277.7L293.4 1455.7L292.8 1456L196.3 1278.3L-19.1999 1445.7L137.1 1169.1L28.1001 949.9L28.7001 949.5L134.9 1090.5L217.7 1260.7L421.4 1111L656.5 883.2L656.6 883.9L713.6 1243L713.5 1243.1L578.8 1430.8ZM137.6 1169.9L-16.6999 1442.8L196 1277.6L137.6 1169.9ZM139.5 1171.9L196.5 1277.1L217.1 1261.1L139.5 1171.9ZM137.9 1168.9L216.1 1258.9L134.4 1090.9L30.6001 953.2L137.9 1168.9Z" fill="white"/>
<path d="M761.9 1649.6L497.6 1594L576.7 1433.5L371.8 1689.7L371.9 1688.5L387 1438.3L421.3 1110.8L421.8 1111L713.3 1242.6L713 1243.3L421.9 1111.9L387.7 1438.4L372.7 1687.4L578.5 1430L578.8 1430.4L761.9 1649.6ZM498.7 1593.4L759.9 1648.5L578.6 1431.2L498.7 1593.4Z" fill="white"/>
<path d="M372.1 1688.9L152.9 1556.5L153 1556.3L217.3 1261.1L218 1261.3L153.8 1556.2L372.5 1688.3L372.1 1688.9Z" fill="white"/>
<path d="M497.8 1594.8L497.7 1594.2L196.1 1688.5L193.7 1495L217.4 1259.7L293.3 1455.6L481 1438.9L477.5 1406.6L387.5 1438.8L387.3 1438.1L477.5 1405.9L466.8 1307.4L467.3 1307.5L670.8 1337.5L669.5 1338L498.6 1593.6L499 1593.8L498.3 1594L497.8 1594.8ZM196.9 1687.5L497.1 1593.6L245.3 1463.3L245.6 1462.6L497.7 1593.1L481.1 1439.7L292.9 1456.4L292.8 1456.1L217.9 1262.8L194.5 1495L196.9 1687.5ZM481.8 1439.5L498.4 1592.6L666.7 1340.8L578.7 1431L578.6 1431L481.8 1439.5ZM481.7 1438.8L578.3 1430.2L667.8 1338.5L478.2 1406.3L481.7 1438.8ZM478.1 1405.5L667.7 1337.8L467.6 1308.2L478.1 1405.5Z" fill="white"/>
<path d="M497.8 1593.9L386.6 1438L578.4 1430.2L714.7 1351.2L712.8 1242.9L713.5 1242.9L715.5 1351.7L715.3 1351.8L578.6 1430.9L578.5 1430.9L388.1 1438.7L498.4 1593.5L497.8 1593.9Z" fill="white"/>
<path d="M760.9 1650.4L760.6 1649.1L668.9 1338.5L669.6 1338.3L668.8 1337.8L712.5 1243.5L467.1 1308.2L467 1308.1L226.9 1151.3L137.2 1169.5L134.3 1089.9L134.8 1090.2L424.3 1111L227.9 1151L467.2 1307.3L713.8 1242.3L669.7 1337.4L816.6 1438.7L816.5 1439L760.9 1650.4ZM669.6 1338.3L760.9 1647.7L815.8 1439L669.6 1338.3ZM227 1150.5L418.9 1111.5L136.1 1091.2L227 1150.5ZM137.9 1168.7L226 1150.8L135.1 1091.5L137.9 1168.7Z" fill="white"/>
<path d="M153.4 1556.7L28.1003 1580.7L194 1494.6L194.3 1495.3L33.0003 1579L153.3 1556L153.4 1556.7Z" fill="white"/>
<path d="M196.259 1688.29L196.784 1687.83L-17.7126 1444.04L-18.2382 1444.51L196.259 1688.29Z" fill="white"/>
<path d="M293.4 1456.1L292.7 1455.8L421.1 1111.5L25.9001 949.1L167.5 963.9L167.4 964.6L31.0002 950.4L422.1 1111.1L422 1111.5L293.4 1456.1Z" fill="white"/>
<path d="M761.3 1649L760.6 1649.1L714.6 1350.5L813.6 1436.1L712.5 1242.5L713.1 1242.5L918 1250.2L917.7 1250.7L816.2 1439.4L815.9 1439.2L816.3 1440.1L815.6 1440.4L814.3 1437.9L715.6 1352.4L761.3 1649ZM815.1 1437.4L816.1 1438.2L916.9 1250.9L713.8 1243.3L815.1 1437.4Z" fill="white"/>
<path d="M715 1351.8L668 1337.7L669.1 1337.3L917.4 1250.3L917.6 1251L670.4 1337.6L715.2 1351.1L715 1351.8Z" fill="white"/>
<g opacity="0.3">
<path opacity="0.3" d="M421.6 1111.3L467.2 1307.8L713.2 1242.9L421.6 1111.3Z" fill="white"/>
</g>
<g opacity="0.3">
<path opacity="0.3" d="M30.0997 1580.3L32.5997 1578.9L193.7 1494L152.9 1555.4L30.0997 1580.3Z" fill="white"/>
</g>
<g opacity="0.2">
<path opacity="0.2" d="M498.1 1593.7L387.3 1439.6L245.5 1464.4L498.1 1593.7Z" fill="white"/>
</g>
<g opacity="0.3">
<path opacity="0.3" d="M578.5 1430.6L715.1 1351.5L760.9 1649L578.5 1430.6Z" fill="white"/>
</g>
<g opacity="0.2">
<path opacity="0.2" d="M421.6 1111.3L137.6 1169.1L217.6 1261.2L421.6 1111.3Z" fill="white"/>
</g>
</svg>
