<?xml version="1.0" encoding="UTF-8"?>
<!-- Generated by Pixelmator Pro 2.4.3 -->
<svg width="50" height="50" viewBox="0 0 50 50" xmlns="http://www.w3.org/2000/svg" xmlns:xlink="http://www.w3.org/1999/xlink">
    <g id="g1">
        <path id="path1" fill="#3d9b9c" stroke="none" d="M 25.043545 10.028175 C 15.473872 10.028175 6.795594 15.263832 0.391906 23.767931 C -0.130635 24.464651 -0.130635 25.438011 0.391906 26.134733 C 6.795594 34.649078 15.473872 39.884735 25.043545 39.884735 C 34.61322 39.884735 43.291496 34.649078 49.695183 26.144978 C 50.217724 25.448257 50.217724 24.474897 49.695183 23.778175 C 43.291496 15.263832 34.61322 10.028175 25.043545 10.028175 Z M 25.730021 35.46875 C 19.377562 35.86834 14.13166 30.632685 14.53125 24.269979 C 14.859118 19.024076 19.111168 14.772026 24.357071 14.44416 C 30.70953 14.044571 35.955429 19.280224 35.55584 25.642929 C 35.217728 30.878586 30.965677 35.130634 25.730021 35.46875 Z M 25.412397 30.612192 C 21.990267 30.827356 19.162397 28.009733 19.387808 24.587601 C 19.561989 21.759733 21.857069 19.474899 24.684938 19.29047 C 28.107071 19.075306 30.934937 21.892929 30.70953 25.315062 C 30.525101 28.153175 28.230021 30.438011 25.412397 30.612192 Z"/>
    </g>
</svg>
