<svg width="24" height="25" viewBox="0 0 24 25" fill="none" xmlns="http://www.w3.org/2000/svg">
<circle cx="12" cy="12.5" r="12" fill="white"/>
<path d="M17 14.96V16.46C17.0006 16.5993 16.9721 16.7371 16.9163 16.8647C16.8605 16.9923 16.7787 17.1068 16.6761 17.201C16.5735 17.2951 16.4523 17.3668 16.3204 17.4114C16.1885 17.456 16.0487 17.4726 15.91 17.46C14.3714 17.2929 12.8935 16.7671 11.595 15.925C10.3869 15.1574 9.3627 14.1331 8.59503 12.925C7.75002 11.6207 7.22415 10.1355 7.06003 8.59005C7.04753 8.45178 7.06397 8.31243 7.10828 8.18086C7.15259 8.04929 7.22381 7.92839 7.31741 7.82586C7.41101 7.72332 7.52493 7.6414 7.65192 7.58531C7.77892 7.52922 7.9162 7.50018 8.05503 7.50005H9.55503C9.79768 7.49766 10.0329 7.58359 10.2169 7.74181C10.4009 7.90004 10.5211 8.11977 10.555 8.36005C10.6183 8.84008 10.7358 9.31141 10.905 9.76505C10.9723 9.94401 10.9869 10.1385 10.947 10.3255C10.9071 10.5125 10.8145 10.6841 10.68 10.82L10.045 11.455C10.7568 12.7068 11.7933 13.7433 13.045 14.455L13.68 13.82C13.816 13.6856 13.9876 13.593 14.1746 13.5531C14.3616 13.5132 14.5561 13.5278 14.735 13.595C15.1887 13.7643 15.66 13.8817 16.14 13.945C16.3829 13.9793 16.6047 14.1017 16.7633 14.2888C16.9219 14.4759 17.0061 14.7148 17 14.96Z" stroke="#AAC6C7" stroke-linecap="round" stroke-linejoin="round"/>
</svg>
