<svg width="24" height="24" viewBox="0 0 24 24" fill="none" xmlns="http://www.w3.org/2000/svg">
<circle cx="12" cy="12" r="12" fill="#3D9B9C"/>
<g clip-path="url(#clip0_1047_2058)">
<path d="M17 14.46V15.96C17.0005 16.0993 16.972 16.2371 16.9162 16.3647C16.8604 16.4923 16.7786 16.6068 16.676 16.701C16.5734 16.7951 16.4523 16.8668 16.3203 16.9114C16.1884 16.956 16.0487 16.9726 15.91 16.96C14.3714 16.7929 12.8935 16.2671 11.595 15.425C10.3869 14.6574 9.36263 13.6331 8.59497 12.425C7.74996 11.1207 7.22409 9.63555 7.05997 8.09005C7.04747 7.95178 7.0639 7.81243 7.10822 7.68086C7.15253 7.54929 7.22375 7.42839 7.31735 7.32586C7.41095 7.22332 7.52487 7.1414 7.65186 7.08531C7.77886 7.02922 7.91614 7.00018 8.05497 7.00005H9.55497C9.79762 6.99766 10.0329 7.08359 10.2168 7.24181C10.4008 7.40004 10.521 7.61977 10.555 7.86005C10.6183 8.34008 10.7357 8.81141 10.905 9.26505C10.9722 9.44401 10.9868 9.63851 10.9469 9.82549C10.907 10.0125 10.8144 10.1841 10.68 10.32L10.045 10.955C10.7567 12.2068 11.7932 13.2433 13.045 13.955L13.68 13.32C13.8159 13.1856 13.9875 13.093 14.1745 13.0531C14.3615 13.0132 14.556 13.0278 14.735 13.095C15.1886 13.2643 15.6599 13.3817 16.14 13.445C16.3828 13.4793 16.6047 13.6017 16.7632 13.7888C16.9218 13.9759 17.0061 14.2148 17 14.46Z" stroke="white" stroke-linecap="round" stroke-linejoin="round"/>
</g>
<defs>
<clipPath id="clip0_1047_2058">
<rect width="12" height="12" fill="white" transform="translate(6 6)"/>
</clipPath>
</defs>
</svg>
