<svg width="60" height="60" viewBox="0 0 60 60" fill="none" xmlns="http://www.w3.org/2000/svg">
<path d="M49.979 6.7998C49.9712 6.76514 49.9502 6.73779 49.9399 6.70508C49.9229 6.64893 49.9004 6.59473 49.873 6.54297C49.8418 6.4834 49.8042 6.42773 49.7612 6.37598C49.7266 6.33301 49.6885 6.29297 49.647 6.25586C49.5967 6.21338 49.5415 6.17676 49.4829 6.146C49.4336 6.11621 49.3813 6.09082 49.3271 6.06982C49.2622 6.04932 49.1948 6.03564 49.127 6.02881C49.0854 6.0166 49.043 6.00684 49 6H43.958C43.7002 2.51904 42.085 0 40 0C37.915 0 36.2998 2.51904 36.042 6H33.958C33.7002 2.51904 32.085 0 30 0C27.915 0 26.2998 2.51904 26.042 6H23.958C23.7002 2.51904 22.085 0 20 0C17.915 0 16.2998 2.51904 16.042 6H13.958C13.7002 2.51904 12.085 0 10 0C7.91504 0 6.2998 2.51904 6.04199 6H1C0.447754 6 0 6.44775 0 7V59C0 59.5522 0.447754 60 1 60H49C49.5522 60 50 59.5522 50 59V56H59C59.3003 56 59.5845 55.8647 59.7739 55.6323C59.9639 55.3994 60.0391 55.0942 59.979 54.7998L49.979 6.7998ZM40 2C40.7222 2 41.73 3.53223 41.9521 6H38.0518C38.27 3.53223 39.2778 2 40 2ZM30 2C30.7222 2 31.73 3.53223 31.9521 6H28.0518C28.27 3.53223 29.2778 2 30 2ZM20 2C20.7222 2 21.73 3.53223 21.9521 6H18.0518C18.27 3.53223 19.2778 2 20 2ZM10 2C10.7222 2 11.73 3.53223 11.9521 6H8.05176C8.27002 3.53223 9.27783 2 10 2ZM2 8H6.04199C6.2998 11.481 7.91504 14 10 14C10.5522 14 11 13.5522 11 13C11 12.4478 10.5522 12 10 12C9.27783 12 8.27002 10.4678 8.04785 8H16.042C16.3032 11.481 17.915 14 20 14C20.5522 14 21 13.5522 21 13C21 12.4478 20.5522 12 20 12C19.2778 12 18.27 10.4678 18.0479 8H26.042C26.3032 11.481 27.915 14 30 14C30.5522 14 31 13.5522 31 13C31 12.4478 30.5522 12 30 12C29.2778 12 28.27 10.4678 28.0479 8H36.042C36.3032 11.481 37.915 14 40 14C40.5522 14 41 13.5522 41 13C41 12.4478 40.5522 12 40 12C39.2778 12 38.27 10.4678 38.0479 8H48V18H2V8ZM48 58H2V20H48V58ZM50 54V16.7002L57.771 54H50Z" fill="#29A6DF"/>
<path d="M22 36H18C17.4478 36 17 36.4478 17 37V41C17 41.5522 17.4478 42 18 42H22C22.5522 42 23 41.5522 23 41V37C23 36.4478 22.5522 36 22 36ZM21 40H19V38H21V40Z" fill="#29A6DF"/>
<path d="M32 36H28C27.4478 36 27 36.4478 27 37V41C27 41.5522 27.4478 42 28 42H32C32.5522 42 33 41.5522 33 41V37C33 36.4478 32.5522 36 32 36ZM31 40H29V38H31V40Z" fill="#29A6DF"/>
<path d="M11.998 36H7.99805C7.4458 36 6.99805 36.4478 6.99805 37V41C6.99805 41.5522 7.4458 42 7.99805 42H11.998C12.5503 42 12.998 41.5522 12.998 41V37C12.998 36.4478 12.5503 36 11.998 36ZM10.998 40H8.99805V38H10.998V40Z" fill="#29A6DF"/>
<path d="M22 46H18C17.4478 46 17 46.4478 17 47V51C17 51.5522 17.4478 52 18 52H22C22.5522 52 23 51.5522 23 51V47C23 46.4478 22.5522 46 22 46ZM21 50H19V48H21V50Z" fill="#29A6DF"/>
<path d="M32 46H28C27.4478 46 27 46.4478 27 47V51C27 51.5522 27.4478 52 28 52H32C32.5522 52 33 51.5522 33 51V47C33 46.4478 32.5522 46 32 46ZM31 50H29V48H31V50Z" fill="#29A6DF"/>
<path d="M11.998 46H7.99805C7.4458 46 6.99805 46.4478 6.99805 47V51C6.99805 51.5522 7.4458 52 7.99805 52H11.998C12.5503 52 12.998 51.5522 12.998 51V47C12.998 46.4478 12.5503 46 11.998 46ZM10.998 50H8.99805V48H10.998V50Z" fill="#29A6DF"/>
<path d="M22 26H18C17.4478 26 17 26.4478 17 27V31C17 31.5522 17.4478 32 18 32H22C22.5522 32 23 31.5522 23 31V27C23 26.4478 22.5522 26 22 26ZM21 30H19V28H21V30Z" fill="#29A6DF"/>
<path d="M32 26H28C27.4478 26 27 26.4478 27 27V31C27 31.5522 27.4478 32 28 32H32C32.5522 32 33 31.5522 33 31V27C33 26.4478 32.5522 26 32 26ZM31 30H29V28H31V30Z" fill="#29A6DF"/>
<path d="M41.998 36H37.998C37.4458 36 36.998 36.4478 36.998 37V41C36.998 41.5522 37.4458 42 37.998 42H41.998C42.5503 42 42.998 41.5522 42.998 41V37C42.998 36.4478 42.5503 36 41.998 36ZM40.998 40H38.998V38H40.998V40Z" fill="#29A6DF"/>
<path d="M41.998 46H37.998C37.4458 46 36.998 46.4478 36.998 47V51C36.998 51.5522 37.4458 52 37.998 52H41.998C42.5503 52 42.998 51.5522 42.998 51V47C42.998 46.4478 42.5503 46 41.998 46ZM40.998 50H38.998V48H40.998V50Z" fill="#29A6DF"/>
<path d="M41.998 26H37.998C37.4458 26 36.998 26.4478 36.998 27V31C36.998 31.5522 37.4458 32 37.998 32H41.998C42.5503 32 42.998 31.5522 42.998 31V27C42.998 26.4478 42.5503 26 41.998 26ZM40.998 30H38.998V28H40.998V30Z" fill="#29A6DF"/>
<path d="M11.998 26H7.99805C7.4458 26 6.99805 26.4478 6.99805 27V31C6.99805 31.5522 7.4458 32 7.99805 32H11.998C12.5503 32 12.998 31.5522 12.998 31V27C12.998 26.4478 12.5503 26 11.998 26ZM10.998 30H8.99805V28H10.998V30Z" fill="#29A6DF"/>
</svg>
