<svg width="60" height="60" viewBox="0 0 60 60" fill="none" xmlns="http://www.w3.org/2000/svg">
<g clip-path="url(#clip0)">
<path d="M31.2373 33.99C28.9957 33.9796 26.7688 33.6284 24.6328 32.9485C21.22 31.8067 18.6851 28.9174 17.997 25.3851C17.2441 21.7586 18.6162 17.9241 21.7607 14.8651C22.0981 14.5365 22.4487 14.2217 22.8125 13.9208C26.0321 11.2253 30.3728 10.2886 34.4175 11.4164C38.3333 12.6662 41.039 16.2447 41.1743 20.3529C41.3209 22.7176 40.5502 25.0478 39.0224 26.8588C37.8441 28.343 35.935 29.0441 34.0761 28.6752C33.3159 28.5174 32.6526 28.057 32.239 27.4C31.8679 26.7617 31.7727 25.9999 31.9754 25.29C32.8499 21.9844 33.739 16.9609 33.7478 16.91C33.8099 16.5581 34.055 16.266 34.3909 16.1439C34.7267 16.0217 35.1022 16.088 35.3759 16.3177C35.6496 16.5474 35.7799 16.9058 35.7178 17.2577C35.6807 17.4667 34.8052 22.4149 33.9092 25.8012C33.8452 25.9888 33.8613 26.1945 33.9536 26.37C34.0919 26.5613 34.3005 26.6899 34.5336 26.7274C35.6715 26.9173 36.821 26.4608 37.5185 25.5419C38.7049 24.1225 39.2993 22.3009 39.1785 20.455C39.0807 17.1849 36.9364 14.33 33.8231 13.325C30.4248 12.3903 26.7841 13.1888 24.089 15.46C23.7677 15.7267 23.4552 16.0059 23.1554 16.2979C21.6008 17.8101 19.1183 20.9479 19.9548 24.9779C20.5168 27.7933 22.5277 30.1007 25.2399 31.0424C29.9299 32.5385 36.6691 32.7186 40.2199 28.3036C40.5688 27.8834 41.1902 27.8208 41.6158 28.163C42.0414 28.5051 42.1138 29.1255 41.7785 29.5565C39.1528 32.8218 35.1572 33.99 31.2373 33.99Z" fill="#29A6DF"/>
<path d="M27.8154 28.8051C26.7583 28.8233 25.7273 28.4767 24.896 27.8236C22.9766 26.2875 22.9238 23.619 23.4619 21.8017C23.6431 21.1965 23.8864 20.6117 24.188 20.0565C24.9383 18.5426 26.138 17.2976 27.6231 16.4916C29.4724 15.532 31.7319 15.8959 33.1865 17.3876C33.9081 18.1785 34.4516 19.1149 34.7805 20.1337C34.9546 20.6507 34.6822 21.2119 34.1683 21.395C33.6543 21.578 33.0885 21.3153 32.8967 20.8046C32.6596 20.0519 32.2655 19.3581 31.7405 18.7689C30.8924 17.9017 29.5711 17.7044 28.5067 18.286C27.393 18.9141 26.4979 19.8677 25.9417 21.0189C25.7079 21.4503 25.5191 21.9045 25.3782 22.3744C24.9896 23.6889 25.075 25.4044 26.1473 26.2631C27.3196 27.2045 29.2973 26.8065 30.41 25.8466C31.2392 25.1001 31.9517 24.2333 32.5237 23.2753C32.7089 22.965 33.0472 22.7787 33.4085 22.7881C33.7698 22.7976 34.0979 23.0012 34.2666 23.3208C34.4354 23.6404 34.4186 24.0262 34.2227 24.3299C33.5452 25.4588 32.7017 26.4793 31.7207 27.3572C30.6272 28.2798 29.246 28.7919 27.8154 28.8051Z" fill="#29A6DF"/>
<path d="M57 59.9999H3C1.3439 59.9981 0.00181871 58.656 0 56.9999V19.9999C1.572e-05 19.6121 0.224217 19.2593 0.575283 19.0946C0.92635 18.9299 1.34098 18.983 1.6392 19.2309L26.1763 39.6234C28.3965 41.457 31.6057 41.4564 33.8252 39.622L58.36 19.2309C58.6582 18.9825 59.0732 18.9291 59.4245 19.0939C59.7759 19.2586 60.0002 19.6118 60 19.9999V56.9999C59.9982 58.656 58.6561 59.9981 57 59.9999ZM2 22.1312V56.9999C2.00072 57.5519 2.44801 57.9992 3 57.9999H57C57.5521 57.9994 57.9995 57.552 58 56.9999V22.1312L35.1021 41.1612C32.1415 43.6079 27.8608 43.6086 24.8994 41.1627L2 22.1312Z" fill="#29A6DF"/>
<path d="M1.00098 21.0001C0.565409 21.0005 0.179684 20.7189 0.0473448 20.3039C-0.0849943 19.8889 0.0664968 19.436 0.421879 19.1842L9.42188 12.8042C9.87248 12.4919 10.4905 12.6006 10.8075 13.0479C11.1244 13.4953 11.0221 14.1144 10.5781 14.436L1.57808 20.816C1.40955 20.9359 1.20782 21.0002 1.00098 21.0001Z" fill="#29A6DF"/>
<path d="M58.9984 21.0001C58.7916 21.0002 58.5899 20.9359 58.4213 20.816L49.4213 14.436C48.9773 14.1144 48.875 13.4953 49.1919 13.0479C49.5089 12.6006 50.1269 12.4919 50.5775 12.8042L59.5775 19.1842C59.9329 19.436 60.0844 19.8889 59.9521 20.3039C59.8197 20.7189 59.434 21.0005 58.9984 21.0001Z" fill="#29A6DF"/>
<path d="M39.2409 6.99996C39.0339 7.00007 38.8319 6.93572 38.6632 6.81586L33.8832 3.42586C31.6643 1.55084 28.4219 1.53131 26.1806 3.37946L21.3406 6.81596C21.0491 7.02267 20.6694 7.05818 20.3447 6.90909C20.0199 6.76001 19.7993 6.44899 19.7661 6.09319C19.7328 5.73739 19.8919 5.39087 20.1834 5.18416L24.9634 1.79416C27.917 -0.620878 32.1685 -0.601669 35.1002 1.83996L39.8202 5.18376C40.1759 5.43554 40.3275 5.88867 40.1951 6.30384C40.0627 6.71901 39.6767 7.00063 39.2409 6.99996Z" fill="#29A6DF"/>
<path d="M1.65131 59.46C1.22988 59.4603 0.853452 59.1965 0.710085 58.8002C0.566719 58.4039 0.687191 57.9602 1.01131 57.6909L23.8313 38.7309C24.1055 38.4977 24.4839 38.4299 24.822 38.5533C25.1601 38.6767 25.4058 38.9724 25.4653 39.3274C25.5249 39.6823 25.389 40.0419 25.1096 40.2689L2.28961 59.2289C2.11045 59.3782 1.88457 59.46 1.65131 59.46Z" fill="#29A6DF"/>
<path d="M58.3487 59.46C58.1156 59.4601 57.8899 59.3784 57.711 59.229L34.891 40.269C34.6116 40.042 34.4758 39.6825 34.5353 39.3275C34.5948 38.9725 34.8405 38.6769 35.1786 38.5534C35.5167 38.43 35.8951 38.4978 36.1693 38.731L58.9887 57.691C59.3128 57.9603 59.4333 58.404 59.2899 58.8003C59.1465 59.1966 58.7701 59.4605 58.3487 59.4601V59.46Z" fill="#29A6DF"/>
<path d="M50 28.4799C49.4477 28.4799 49 28.0322 49 27.4799V7.00773C48.9971 7.02873 48.957 7.00043 48.89 6.99993H11.11C11.0658 6.99721 11.0224 7.01276 10.99 7.04293L11 27.4799C11 28.0322 10.5523 28.4799 10 28.4799C9.44772 28.4799 9 28.0322 9 27.4799V6.99993C9.03226 5.86582 9.97579 4.97148 11.11 4.99993H48.89C50.0242 4.97159 50.9676 5.86587 51 6.99993V27.4799C51 28.0322 50.5523 28.4799 50 28.4799Z" fill="#29A6DF"/>
</g>
<defs>
<clipPath id="clip0">
<rect width="60" height="60" fill="white"/>
</clipPath>
</defs>
</svg>
