<svg width="60" height="60" viewBox="0 0 60 60" fill="none" xmlns="http://www.w3.org/2000/svg">
<g clip-path="url(#clip0)">
<path d="M43.875 38.6875C43.875 39.6764 44.1682 40.6431 44.7177 41.4654C45.2671 42.2876 46.048 42.9285 46.9616 43.3069C47.8752 43.6853 48.8806 43.7844 49.8505 43.5914C50.8204 43.3985 51.7113 42.9223 52.4105 42.223C53.1098 41.5238 53.586 40.6329 53.7789 39.663C53.9719 38.6931 53.8728 37.6877 53.4944 36.7741C53.116 35.8605 52.4751 35.0796 51.6529 34.5302C50.8306 33.9807 49.8639 33.6875 48.875 33.6875C47.5494 33.6891 46.2786 34.2164 45.3412 35.1537C44.4039 36.0911 43.8766 37.3619 43.875 38.6875ZM51.875 38.6875C51.875 39.2808 51.6991 39.8609 51.3694 40.3542C51.0398 40.8476 50.5712 41.2321 50.0231 41.4591C49.4749 41.6862 48.8717 41.7456 48.2897 41.6299C47.7078 41.5141 47.1732 41.2284 46.7537 40.8088C46.3341 40.3893 46.0484 39.8547 45.9326 39.2728C45.8169 38.6908 45.8763 38.0876 46.1034 37.5395C46.3304 36.9913 46.7149 36.5227 47.2083 36.1931C47.7016 35.8635 48.2817 35.6875 48.875 35.6875C49.6707 35.6875 50.4337 36.0036 50.9963 36.5662C51.5589 37.1288 51.875 37.8919 51.875 38.6875Z" fill="#29A6DF"/>
<path d="M52.355 52.9975C55.395 49.0775 59.875 42.6275 59.875 38.6875C59.8694 36.1193 58.967 33.6337 57.3238 31.66C55.6806 29.6863 53.3997 28.3484 50.875 27.8775V16.6875L54.625 17.6575C54.7069 17.6773 54.7908 17.6874 54.875 17.6875C55.1402 17.6875 55.3946 17.5821 55.5821 17.3946C55.7696 17.2071 55.875 16.9527 55.875 16.6875V10.6875C55.8754 10.4655 55.8019 10.2497 55.6661 10.0741C55.5303 9.89843 55.34 9.77298 55.125 9.71749L28.125 2.71749C27.9607 2.6775 27.7893 2.6775 27.625 2.71749L0.625013 9.71749C0.410065 9.77298 0.219696 9.89843 0.0839055 10.0741C-0.0518852 10.2497 -0.125377 10.4655 -0.124987 10.6875V16.6875C-0.125764 16.8404 -0.0909276 16.9914 -0.0232355 17.1285C0.0444566 17.2656 0.143145 17.3851 0.265013 17.4775C0.385718 17.57 0.52567 17.6342 0.674526 17.6654C0.823382 17.6965 0.977337 17.6938 1.12501 17.6575L4.87501 16.6875V52.6875C4.87501 52.9527 4.98037 53.207 5.16791 53.3946C5.35544 53.5821 5.6098 53.6875 5.87501 53.6875H43.055C41.775 54.2475 40.875 55.0675 40.875 56.1875C40.875 58.5875 45.025 59.6875 48.875 59.6875C52.725 59.6875 56.875 58.5875 56.875 56.1875C56.875 54.4575 54.765 53.4575 52.355 52.9975ZM57.875 38.6875C57.875 42.5575 51.945 50.4575 48.875 54.1475C45.805 50.4575 39.875 42.5575 39.875 38.6875C39.875 36.3005 40.8232 34.0113 42.511 32.3235C44.1989 30.6357 46.4881 29.6875 48.875 29.6875C51.262 29.6875 53.5511 30.6357 55.239 32.3235C56.9268 34.0113 57.875 36.3005 57.875 38.6875ZM34.875 29.6875V25.6875C34.8767 24.897 35.112 24.1246 35.5515 23.4674C35.9909 22.8103 36.6148 22.2978 37.3448 21.9942C38.0747 21.6907 38.8781 21.6098 39.6539 21.7616C40.4297 21.9134 41.1433 22.2912 41.705 22.8475C42.4532 23.6035 42.8736 24.6238 42.875 25.6875V29.4775L42.575 29.6875H34.875ZM1.87501 15.3975V11.4575L27.875 4.71749L53.875 11.4575V15.3975L28.125 8.71749C27.9607 8.6775 27.7893 8.6775 27.625 8.71749L1.87501 15.3975ZM26.875 51.6875H21.875V37.6875H26.875V51.6875ZM33.875 51.6875H28.875V37.6875H33.875V51.6875ZM35.875 51.6875V36.6875C35.875 36.4223 35.7696 36.1679 35.5821 35.9804C35.3946 35.7928 35.1402 35.6875 34.875 35.6875H20.875C20.6098 35.6875 20.3554 35.7928 20.1679 35.9804C19.9804 36.1679 19.875 36.4223 19.875 36.6875V51.6875H6.87501V16.1675L27.875 10.7175L48.875 16.1675V27.6875C47.5062 27.6914 46.1499 27.9491 44.875 28.4475V25.6875C44.875 24.0962 44.2429 22.5701 43.1176 21.4448C41.9924 20.3196 40.4663 19.6875 38.875 19.6875C37.2837 19.6875 35.7576 20.3196 34.6324 21.4448C33.5071 22.5701 32.875 24.0962 32.875 25.6875V29.6875H31.875V31.6875H40.395C38.7644 33.6555 37.873 36.1317 37.875 38.6875C37.875 42.2075 41.465 47.7475 44.395 51.6875H35.875ZM48.875 57.6875C45.035 57.6875 42.995 56.5875 42.875 56.2075C42.965 55.8975 44.245 55.1075 46.835 54.8075C47.545 55.6875 48.035 56.2475 48.125 56.3475C48.2188 56.4539 48.3343 56.5391 48.4636 56.5975C48.5929 56.6558 48.7331 56.686 48.875 56.686C49.0169 56.686 49.1571 56.6558 49.2864 56.5975C49.4158 56.5391 49.5312 56.4539 49.625 56.3475C49.715 56.2475 50.205 55.6875 50.915 54.8075C53.505 55.1075 54.785 55.8975 54.875 56.1675C54.755 56.5875 52.715 57.6875 48.875 57.6875Z" fill="#29A6DF"/>
<path d="M23.875 43.6875H25.875V45.6875H23.875V43.6875Z" fill="#29A6DF"/>
<path d="M29.875 43.6875H31.875V45.6875H29.875V43.6875Z" fill="#29A6DF"/>
<path d="M22.875 29.6875V25.6875C22.875 24.0962 22.2429 22.5701 21.1176 21.4449C19.9924 20.3196 18.4663 19.6875 16.875 19.6875C15.2837 19.6875 13.7576 20.3196 12.6324 21.4449C11.5071 22.5701 10.875 24.0962 10.875 25.6875V29.6875H9.875V31.6875H23.875V29.6875H22.875ZM20.875 29.6875H12.875V25.6875C12.875 24.6266 13.2964 23.6092 14.0466 22.8591C14.7967 22.1089 15.8141 21.6875 16.875 21.6875C17.9359 21.6875 18.9533 22.1089 19.7034 22.8591C20.4536 23.6092 20.875 24.6266 20.875 25.6875V29.6875Z" fill="#29A6DF"/>
</g>
<defs>
<clipPath id="clip0">
<rect width="60" height="60" fill="white"/>
</clipPath>
</defs>
</svg>
