<svg width="60" height="60" viewBox="0 0 60 60" fill="none" xmlns="http://www.w3.org/2000/svg">
<g clip-path="url(#clip0)">
<path d="M58.4256 46.2872L56.0949 44.7345C61.3511 35.4898 61.2924 24.147 55.9408 14.9572C50.5893 5.76746 40.7533 0.118222 30.1188 0.12701C29.5666 0.12701 29.119 0.5746 29.119 1.12682C29.119 1.67905 29.5666 2.12663 30.1188 2.12663C40.0147 2.11925 49.1716 7.36297 54.1736 15.9019C59.1754 24.4406 59.2713 34.9923 54.4252 43.6206L46.2775 38.1883C44.7362 37.1693 42.6707 37.5047 41.5311 38.9592L37.9977 43.5075C37.5427 44.1066 36.7167 44.2803 36.0589 43.9155L35.386 43.5445C33.1554 42.3286 30.3798 40.8149 24.7877 35.2207C19.1955 29.6266 17.6787 26.8489 16.4628 24.6224L16.0939 23.9494C15.7235 23.2919 15.8941 22.462 16.4938 22.0037L21.039 18.4673C22.4933 17.3278 22.8293 15.2626 21.8109 13.721L13.7121 1.57676C12.6684 0.00702791 10.5746 -0.46423 8.95891 0.506993L3.88064 3.55752C2.28501 4.49558 1.11437 6.01481 0.614168 7.79685C-1.21451 14.4598 0.161188 25.9591 17.1007 42.9007C24.4796 50.2796 30.8237 54.6989 36.1878 57.1986C27.9316 59.064 19.2752 57.0672 12.6702 51.7739C6.06516 46.4806 2.23076 38.4669 2.25291 30.0027C2.25291 29.4505 1.80532 29.0029 1.2531 29.0029C0.700874 29.0029 0.253284 29.4505 0.253284 30.0027C0.268751 46.4923 13.6293 59.8573 30.1189 59.8783C33.2081 59.8793 36.2784 59.3955 39.2175 58.4444C41.8692 59.4349 44.6719 59.9605 47.5023 59.9982C49.0891 60.005 50.6697 59.7986 52.2016 59.3844C53.984 58.8848 55.5034 57.714 56.4409 56.1179L59.4945 51.0427C60.4671 49.4266 59.9961 47.3314 58.4256 46.2872ZM57.7756 50.0136L54.7291 55.0919C54.0555 56.2459 52.9611 57.0941 51.6755 57.4585C48.767 58.2584 44.8275 58.3583 39.7653 56.5336C39.685 56.4886 39.5988 56.455 39.5093 56.4337C33.9101 54.355 26.9581 49.9247 18.5124 41.482C2.2549 25.2253 0.854132 14.4779 2.54291 8.32587C2.90801 7.04075 3.75609 5.9465 4.90951 5.2723L9.98778 2.22576C10.6888 1.80395 11.5976 2.00841 12.0504 2.68964L16.4498 9.29463L20.1423 14.8328C20.5845 15.5015 20.4392 16.3977 19.8084 16.8925L15.2621 20.429C13.8785 21.4869 13.4834 23.4011 14.3353 24.9203L14.6963 25.5762C15.9741 27.9199 17.5628 30.8354 23.363 36.6346C29.1631 42.4337 32.0777 44.0226 34.4203 45.3003L35.0772 45.6622C36.5963 46.5139 38.5106 46.119 39.5685 44.7354L43.105 40.1891C43.5999 39.5586 44.4958 39.4134 45.1647 39.8552L57.3079 47.954C57.9892 48.4051 58.1953 49.3123 57.7756 50.0136Z" fill="#29A6DF"/>
</g>
<defs>
<clipPath id="clip0">
<rect width="60" height="60" fill="white"/>
</clipPath>
</defs>
</svg>
