<svg width="207" height="77" viewBox="0 0 207 77" fill="none" xmlns="http://www.w3.org/2000/svg">
<g clip-path="url(#clip0_154_29)">
<mask id="mask0_154_29" style="mask-type:luminance" maskUnits="userSpaceOnUse" x="0" y="0" width="207" height="77">
<path d="M207 0H0V77H207V0Z" fill="white"/>
</mask>
<g mask="url(#mask0_154_29)">
<path d="M114.323 57.0048C114.323 57.0865 114.305 57.1672 114.273 57.2422C114.241 57.3172 114.194 57.385 114.135 57.4417C114.078 57.5007 114.01 57.5477 113.935 57.5797C113.86 57.6118 113.779 57.6283 113.697 57.6283C113.615 57.6283 113.534 57.6118 113.459 57.5797C113.383 57.5477 113.315 57.5007 113.258 57.4417L107.69 51.8712C107.594 51.7852 107.527 51.6703 107.502 51.5436V57.0048C107.509 57.0906 107.499 57.1771 107.472 57.2588C107.444 57.3404 107.4 57.4154 107.342 57.479C107.284 57.5426 107.213 57.5934 107.134 57.6282C107.056 57.6629 106.971 57.6809 106.885 57.6809C106.799 57.6809 106.714 57.6629 106.635 57.6282C106.556 57.5934 106.486 57.5426 106.428 57.479C106.37 57.4154 106.326 57.3404 106.298 57.2588C106.271 57.1771 106.26 57.0906 106.268 57.0048V45.844C106.26 45.7582 106.271 45.6717 106.298 45.5901C106.326 45.5084 106.37 45.4334 106.428 45.3698C106.486 45.3062 106.556 45.2554 106.635 45.2207C106.714 45.1859 106.799 45.168 106.885 45.168C106.971 45.168 107.056 45.1859 107.134 45.2207C107.213 45.2554 107.284 45.3062 107.342 45.3698C107.4 45.4334 107.444 45.5084 107.472 45.5901C107.499 45.6717 107.509 45.7582 107.502 45.844V51.3053C107.528 51.1801 107.594 51.0669 107.69 50.9825L113.258 45.3972C113.314 45.3369 113.382 45.2888 113.458 45.256C113.533 45.2231 113.614 45.2061 113.697 45.2061C113.779 45.2061 113.86 45.2231 113.936 45.256C114.011 45.2888 114.079 45.3369 114.135 45.3972C114.194 45.4541 114.241 45.5224 114.273 45.5979C114.305 45.6734 114.321 45.7546 114.321 45.8366C114.321 45.9186 114.305 45.9998 114.273 46.0752C114.241 46.1507 114.194 46.219 114.135 46.276L109.027 51.4294L114.16 56.5729C114.269 56.6896 114.328 56.8448 114.323 57.0048Z" fill="#D62C2C"/>
<path d="M124.767 57.025C124.767 57.1068 124.748 57.1876 124.713 57.2614C124.678 57.3353 124.627 57.4003 124.564 57.4519C124.441 57.5668 124.28 57.6307 124.113 57.6307C124.01 57.6294 123.91 57.6 123.822 57.5458C123.735 57.4915 123.664 57.4145 123.617 57.3229L119.986 50.8687L116.355 57.3229C116.305 57.4181 116.23 57.4977 116.139 57.5529C116.047 57.6081 115.941 57.6367 115.834 57.6356C115.664 57.6357 115.5 57.5719 115.374 57.4569C115.269 57.3679 115.2 57.2433 115.181 57.1069C115.162 56.9705 115.193 56.8317 115.27 56.7172L119.391 49.3743C119.433 49.2487 119.513 49.1394 119.62 49.062C119.728 48.9845 119.856 48.9429 119.988 48.9429C120.121 48.9429 120.249 48.9845 120.356 49.062C120.464 49.1394 120.544 49.2487 120.585 49.3743L124.697 56.7172C124.749 56.811 124.773 56.9178 124.767 57.025Z" fill="#D62C2C"/>
<path d="M134.165 49.5726V57.0197C134.165 57.1843 134.099 57.3422 133.983 57.4586C133.867 57.575 133.71 57.6403 133.545 57.6403C133.381 57.6403 133.224 57.575 133.107 57.4586C132.991 57.3422 132.926 57.1843 132.926 57.0197V51.2209L127.585 57.3325C127.522 57.4169 127.442 57.4871 127.349 57.5384C127.257 57.5897 127.155 57.6211 127.05 57.6304C126.964 57.6429 126.875 57.6349 126.792 57.6071C126.709 57.5793 126.633 57.5325 126.571 57.4703C126.509 57.4082 126.462 57.3324 126.435 57.249C126.407 57.1657 126.399 57.077 126.411 56.99V49.5428C126.4 49.4588 126.408 49.3732 126.435 49.2928C126.462 49.2124 126.507 49.1395 126.567 49.0797C126.627 49.02 126.701 48.9751 126.781 48.9486C126.861 48.9221 126.947 48.9148 127.031 48.9272C127.115 48.9133 127.202 48.9194 127.284 48.9451C127.366 48.9708 127.441 49.0154 127.502 49.0752C127.564 49.135 127.611 49.2085 127.639 49.2897C127.667 49.3709 127.676 49.4576 127.665 49.5428V55.3516L133.005 49.2499C133.066 49.1639 133.144 49.0919 133.234 49.0388C133.325 48.9857 133.426 48.9527 133.53 48.9421C133.616 48.9298 133.703 48.9376 133.786 48.9648C133.868 48.9921 133.943 49.0381 134.004 49.0992C134.066 49.1603 134.112 49.2348 134.14 49.317C134.168 49.3991 134.176 49.4866 134.165 49.5726Z" fill="#D62C2C"/>
<path d="M143.454 57.0099C143.461 57.0958 143.451 57.1823 143.423 57.2639C143.396 57.3455 143.352 57.4206 143.294 57.4842C143.236 57.5477 143.165 57.5985 143.086 57.6333C143.008 57.668 142.923 57.686 142.837 57.686C142.751 57.686 142.666 57.668 142.587 57.6333C142.508 57.5985 142.438 57.5477 142.38 57.4842C142.322 57.4206 142.278 57.3455 142.25 57.2639C142.223 57.1823 142.212 57.0958 142.22 57.0099V53.9119H137.875V57.0099C137.883 57.0958 137.873 57.1823 137.845 57.2639C137.818 57.3455 137.773 57.4206 137.715 57.4842C137.657 57.5477 137.587 57.5985 137.508 57.6333C137.429 57.668 137.344 57.686 137.258 57.686C137.172 57.686 137.087 57.668 137.009 57.6333C136.93 57.5985 136.859 57.5477 136.801 57.4842C136.743 57.4206 136.699 57.3455 136.672 57.2639C136.644 57.1823 136.634 57.0958 136.642 57.0099V49.5628C136.655 49.4084 136.726 49.2648 136.841 49.1602C136.955 49.0556 137.104 48.9976 137.258 48.9976C137.413 48.9976 137.562 49.0556 137.676 49.1602C137.79 49.2648 137.861 49.4084 137.875 49.5628V52.6757H142.22V49.5578C142.234 49.4034 142.305 49.2598 142.419 49.1553C142.533 49.0507 142.682 48.9927 142.837 48.9927C142.991 48.9927 143.14 49.0507 143.255 49.1553C143.369 49.2598 143.44 49.4034 143.454 49.5578V57.0099Z" fill="#D62C2C"/>
<path d="M153.679 49.5727V57.0199C153.679 57.1845 153.614 57.3423 153.497 57.4587C153.381 57.5751 153.224 57.6405 153.06 57.6405C152.895 57.6405 152.738 57.5751 152.622 57.4587C152.506 57.3423 152.44 57.1845 152.44 57.0199V51.221L147.1 57.3326C147.037 57.4175 146.956 57.488 146.864 57.5394C146.772 57.5907 146.67 57.6218 146.565 57.6305C146.478 57.643 146.389 57.635 146.306 57.6072C146.223 57.5794 146.147 57.5326 146.085 57.4705C146.023 57.4083 145.977 57.3325 145.949 57.2492C145.921 57.1658 145.913 57.0771 145.926 56.9901V49.5429C145.94 49.386 146.012 49.24 146.128 49.1336C146.244 49.0273 146.395 48.9683 146.552 48.9683C146.71 48.9683 146.861 49.0273 146.977 49.1336C147.093 49.24 147.165 49.386 147.179 49.5429V55.3517L152.52 49.25C152.58 49.164 152.658 49.092 152.749 49.0389C152.839 48.9858 152.94 48.9528 153.045 48.9422C153.13 48.9299 153.218 48.9377 153.3 48.9649C153.382 48.9922 153.457 49.0382 153.518 49.0993C153.58 49.1604 153.626 49.2349 153.654 49.3171C153.682 49.3992 153.69 49.4867 153.679 49.5727Z" fill="#D62C2C"/>
<path d="M162.358 57.0048C162.351 57.1691 162.282 57.3248 162.166 57.4406C162.049 57.5565 161.893 57.6243 161.729 57.6303C161.648 57.6315 161.567 57.6158 161.492 57.5842C161.417 57.5526 161.349 57.5057 161.293 57.4466L157.578 53.733C157.484 53.6447 157.419 53.5307 157.389 53.4053V57.0097C157.397 57.0956 157.387 57.182 157.359 57.2637C157.332 57.3453 157.288 57.4203 157.23 57.4839C157.172 57.5475 157.101 57.5983 157.022 57.6331C156.944 57.6678 156.859 57.6858 156.773 57.6858C156.687 57.6858 156.602 57.6678 156.523 57.6331C156.444 57.5983 156.374 57.5475 156.316 57.4839C156.258 57.4203 156.213 57.3453 156.186 57.2637C156.158 57.182 156.148 57.0956 156.156 57.0097V49.5626C156.17 49.4082 156.241 49.2646 156.355 49.16C156.469 49.0554 156.618 48.9974 156.773 48.9974C156.927 48.9974 157.076 49.0554 157.191 49.16C157.305 49.2646 157.376 49.4082 157.389 49.5626V53.172C157.419 53.0466 157.484 52.9326 157.578 52.8443L161.293 49.1257C161.383 49.0427 161.494 48.9872 161.614 48.9658C161.734 48.9445 161.857 48.9582 161.969 49.0053C162.082 49.0525 162.178 49.131 162.247 49.2316C162.316 49.3322 162.355 49.4505 162.358 49.5725C162.357 49.6534 162.34 49.7333 162.308 49.8074C162.275 49.8816 162.229 49.9485 162.17 50.0044L158.901 53.2862L162.17 56.5679C162.229 56.6243 162.276 56.6921 162.309 56.7672C162.341 56.8422 162.358 56.923 162.358 57.0048Z" fill="#D62C2C"/>
<path d="M169.383 57.0098C169.395 57.094 169.387 57.1797 169.36 57.2603C169.333 57.3408 169.287 57.414 169.227 57.4741C169.167 57.5342 169.094 57.5795 169.014 57.6067C168.934 57.6338 168.848 57.6419 168.764 57.6304C168.68 57.6432 168.594 57.6359 168.513 57.6092C168.433 57.5825 168.36 57.537 168.3 57.4765C168.24 57.416 168.195 57.3422 168.169 57.2611C168.143 57.1801 168.136 57.0939 168.15 57.0098C167.689 57.3575 167.141 57.5696 166.567 57.6224C165.993 57.6752 165.416 57.5666 164.9 57.3087C164.384 57.0509 163.95 56.6541 163.647 56.1628C163.343 55.6715 163.182 55.1052 163.182 54.5274C163.182 53.9497 163.343 53.3834 163.647 52.8921C163.95 52.4008 164.384 52.004 164.9 51.7461C165.416 51.4883 165.993 51.3797 166.567 51.4325C167.141 51.4853 167.689 51.6974 168.15 52.0451C168.153 51.7994 168.106 51.5557 168.013 51.3286C167.919 51.1016 167.78 50.896 167.605 50.7244C167.434 50.5508 167.229 50.414 167.003 50.3227C166.778 50.2313 166.535 50.1872 166.292 50.1932C165.903 50.205 165.528 50.3368 165.217 50.5705C165.018 50.7351 164.792 50.8629 164.548 50.9478C164.464 50.9483 164.38 50.9314 164.303 50.8981C164.225 50.8648 164.155 50.8158 164.097 50.7542C164.037 50.6953 163.99 50.625 163.958 50.5474C163.925 50.4698 163.909 50.3865 163.909 50.3024C163.921 50.1387 163.989 49.9842 164.102 49.8655C164.374 49.5569 164.713 49.3146 165.092 49.1571C165.472 48.9996 165.882 48.9312 166.292 48.957C167.112 48.9583 167.899 49.2858 168.478 49.8676C169.058 50.4493 169.383 51.2378 169.383 52.0599V57.0098ZM168.15 54.5274C168.146 54.0349 167.948 53.5639 167.599 53.2171C167.25 52.8702 166.779 52.6756 166.287 52.6756C165.919 52.6749 165.559 52.7839 165.252 52.9888C164.946 53.1936 164.708 53.485 164.567 53.8261C164.426 54.1671 164.39 54.5423 164.462 54.9041C164.535 55.2659 164.713 55.5979 164.974 55.858C165.235 56.1176 165.567 56.2941 165.927 56.3653C166.288 56.4364 166.662 56.3991 167.001 56.2579C167.341 56.1167 167.631 55.878 167.835 55.5718C168.04 55.2657 168.149 54.9057 168.15 54.5374V54.5274Z" fill="#D62C2C"/>
<path d="M69.2112 41.7231H206.44" stroke="#D62C2C" stroke-width="2.27" stroke-miterlimit="10" stroke-linecap="round"/>
<path d="M110.058 19.6254C111.525 18.7948 113.183 18.3619 114.868 18.3693C116.191 18.3619 117.5 18.6308 118.713 19.1587C121.084 20.1733 122.974 22.0654 123.989 24.4412C124.505 25.6631 124.772 26.9767 124.772 28.3038C124.772 29.6309 124.505 30.9445 123.989 32.1664C123.478 33.3336 122.756 34.3958 121.859 35.2991C120.943 36.2228 119.854 36.9551 118.654 37.4537C117.454 37.9522 116.167 38.2071 114.868 38.2035C113.544 38.2208 112.23 37.9639 111.009 37.4489C108.635 36.4382 106.744 34.5448 105.733 32.1664C104.89 30.1517 104.732 27.9153 105.282 25.8015C105.495 24.9956 105.797 24.2162 106.184 23.478" stroke="#D62C2C" stroke-width="2.2" stroke-linecap="round"/>
<path d="M94.2691 25.2106C94.7543 24.8672 95.1488 24.4105 95.4184 23.88C95.6991 23.3407 95.8437 22.7407 95.8395 22.1324C95.8432 21.6357 95.7436 21.1437 95.5472 20.6877C95.3649 20.2454 95.0991 19.8425 94.7645 19.5011C94.4292 19.1692 94.0385 18.8987 93.6102 18.7018C93.1627 18.493 92.6768 18.3798 92.1834 18.3691H88.6313M88.5272 31.6896C88.5337 30.0994 89.1191 28.5662 90.1735 27.3778C91.228 26.1895 92.679 25.4277 94.2542 25.2354H94.6158C94.6158 25.2354 94.8735 25.2354 95.0122 25.2354C95.8808 25.2281 96.7419 25.397 97.5437 25.7319C98.3226 26.0616 99.0307 26.5386 99.6294 27.1369C100.226 27.7344 100.7 28.4427 101.026 29.2221C101.364 30.0265 101.532 30.8917 101.522 31.7641C101.533 32.6301 101.364 33.489 101.026 34.2862C100.694 35.0347 100.225 35.7148 99.6443 36.2919C99.0467 36.8903 98.3382 37.3659 97.5586 37.692C96.7576 38.0297 95.8959 38.1987 95.027 38.1885H88.6461C88.5669 38.1885 88.5272 38.1537 88.5272 38.0743V22.6835" stroke="#D62C2C" stroke-width="2.2" stroke-linecap="round"/>
<path d="M150.696 19.6254C152.162 18.795 153.818 18.3621 155.502 18.3693C156.826 18.3619 158.137 18.6308 159.351 19.1587C161.723 20.1718 163.612 22.0646 164.622 24.4412C165.142 25.6623 165.41 26.9762 165.41 28.3038C165.41 29.6314 165.142 30.9452 164.622 32.1664C164.112 33.3324 163.391 34.3943 162.497 35.2991C161.581 36.2234 160.491 36.956 159.29 37.4546C158.089 37.9532 156.802 38.2078 155.502 38.2035C154.174 38.2217 152.857 37.9648 151.633 37.4489C149.261 36.4343 147.371 34.5421 146.357 32.1664C145.514 30.1517 145.355 27.9153 145.906 25.8015C146.118 24.9947 146.422 24.215 146.812 23.478" stroke="#D62C2C" stroke-width="2.2" stroke-linecap="round"/>
<path d="M141.571 18.4683H127.358V28.7056C127.563 27.9159 127.898 27.166 128.348 26.4864C128.798 25.811 129.356 25.214 129.998 24.7189C130.641 24.221 131.358 23.8273 132.123 23.5522C133.878 22.9282 135.803 22.9903 137.514 23.7259C138.417 24.1138 139.238 24.6716 139.931 25.3693C140.616 26.0586 141.165 26.8702 141.551 27.7623C141.951 28.6934 142.154 29.6977 142.146 30.7114C142.151 31.7152 141.949 32.7094 141.551 33.6307C141.165 34.5227 140.616 35.3344 139.931 36.0237C139.245 36.7111 138.434 37.262 137.543 37.6472C136.624 38.0459 135.632 38.2488 134.63 38.2429H127.288" stroke="#D62C2C" stroke-width="2.2" stroke-linecap="round"/>
<path d="M206.44 38.2234L197.731 18.419C197.702 18.3852 197.661 18.3639 197.617 18.3594C197.538 18.3594 197.498 18.3792 197.498 18.419L192.177 30.3691" stroke="#D62C2C" stroke-width="2.2" stroke-linecap="round"/>
<path d="M192.177 30.3691H198.672" stroke="#D62C2C" stroke-width="2.2" stroke-linecap="round"/>
<path d="M192.177 30.3691L188.759 38.0496L188.685 38.2234" stroke="#D62C2C" stroke-width="2.2" stroke-linecap="round"/>
<path d="M175.908 18.3643L175.938 18.4387L184.36 38.2233M186.426 38.2233H184.38H167.268M173.679 23.1702L167.268 38.2233M167.268 38.2233H165.242" stroke="#D62C2C" stroke-width="2.2" stroke-linecap="round"/>
<path d="M79.1194 38.2231C77.7918 38.2341 76.4763 37.9705 75.2552 37.4485C72.8836 36.4355 70.9949 34.5426 69.984 32.166C69.4672 30.9231 69.2044 29.5889 69.2112 28.2423C69.218 26.8958 69.4943 25.5643 70.0236 24.3267M73.5807 20.0619C74.3869 19.5018 75.2764 19.0729 76.2163 18.791C77.1587 18.5113 78.1365 18.3692 79.1194 18.369C80.2342 18.3602 81.3421 18.5449 82.394 18.9151C83.4412 19.287 84.4203 19.8287 85.2922 20.5187" stroke="#D62C2C" stroke-width="2.2" stroke-linecap="round"/>
<path d="M34.9336 67.7884C30.9548 67.8203 27.0121 67.031 23.3508 65.4698C16.2338 62.4215 10.5642 56.7398 7.52243 49.6074C5.96512 45.9381 5.17761 41.9871 5.20885 37.9998C5.17329 33.8991 6.00749 29.8376 7.65619 26.0844M18.3224 13.2902C20.742 11.6093 23.4125 10.324 26.2341 9.48218C29.0563 8.6345 31.9873 8.20628 34.9336 8.2112C38.2824 8.19695 41.6088 8.75953 44.7675 9.8744C47.9104 10.9949 50.849 12.6233 53.4669 14.6952" stroke="#D62C2C" stroke-width="4.88" stroke-linecap="round"/>
<path d="M53.3778 61.3638C50.9607 63.2828 48.2596 64.8121 45.3719 65.8966" stroke="#D62C2C" stroke-width="4.88" stroke-linecap="round"/>
<path d="M40.6655 67.7833C41.3604 67.7833 41.9238 67.2187 41.9238 66.5223C41.9238 65.8258 41.3604 65.2612 40.6655 65.2612C39.9705 65.2612 39.4071 65.8258 39.4071 66.5223C39.4071 67.2187 39.9705 67.7833 40.6655 67.7833Z" fill="#D62C2C"/>
<path d="M50.9601 61.0758C50.544 60.207 47.4675 57.9976 46.6847 57.8834C46.1596 57.804 44.4157 58.509 43.0632 58.9707C42.8007 58.2409 42.0724 58.653 41.0519 59.1445C39.957 58.4196 38.02 56.0663 36.8706 55.5053C35.5132 54.845 29.2958 57.7345 29.2958 57.7345C28.9737 58.3948 34.5521 57.1387 35.5478 57.094C36.5436 57.0494 37.9357 58.2608 38.7532 59.08C39.5706 59.8991 39.6548 60.4055 39.1693 60.8971C38.6838 61.3886 37.8515 61.1155 37.7623 61.2942C37.6732 61.473 38.3766 62.034 39.6102 61.9943C40.8438 61.9546 41.7702 60.9517 42.2111 60.5048C42.6521 60.058 43.4051 59.914 44.8368 59.4176C46.2686 58.9211 47.3882 59.7105 48.9388 60.2914C50.4895 60.8722 51.3763 61.9446 50.9601 61.0758Z" fill="#D62C2C"/>
</g>
</g>
<defs>
<clipPath id="clip0_154_29">
<rect width="207" height="77" fill="white"/>
</clipPath>
</defs>
</svg>
